<?xml version="1.0" encoding="UTF-8" standalone="no"?>
<svg
   xmlns:dc="http://purl.org/dc/elements/1.1/"
   xmlns:cc="http://creativecommons.org/ns#"
   xmlns:rdf="http://www.w3.org/1999/02/22-rdf-syntax-ns#"
   xmlns:svg="http://www.w3.org/2000/svg"
   xmlns="http://www.w3.org/2000/svg"
   xmlns:sodipodi="http://sodipodi.sourceforge.net/DTD/sodipodi-0.dtd"
   xmlns:inkscape="http://www.inkscape.org/namespaces/inkscape"
   viewBox="0 0 800.04 792.94341"
   id="svg2"
   version="1.1"
   inkscape:version="0.48.4 r9939"
   width="100%"
   height="100%"
   sodipodi:docname="caduceus.svg">
  <metadata
     id="metadata12">
    <rdf:RDF>
      <cc:Work
         rdf:about="">
        <dc:format>image/svg+xml</dc:format>
        <dc:type
           rdf:resource="http://purl.org/dc/dcmitype/StillImage" />
      </cc:Work>
    </rdf:RDF>
  </metadata>
  <defs
     id="defs10" />
  <sodipodi:namedview
     pagecolor="#ffffff"
     bordercolor="#666666"
     borderopacity="1"
     objecttolerance="10"
     gridtolerance="10"
     guidetolerance="10"
     inkscape:pageopacity="0"
     inkscape:pageshadow="2"
     inkscape:window-width="1301"
     inkscape:window-height="744"
     id="namedview8"
     showgrid="false"
     fit-margin-top="0"
     fit-margin-left="0"
     fit-margin-right="0"
     fit-margin-bottom="0"
     inkscape:zoom="0.4609375"
     inkscape:cx="156.62714"
     inkscape:cy="747.33343"
     inkscape:window-x="65"
     inkscape:window-y="24"
     inkscape:window-maximized="1"
     inkscape:current-layer="svg2" />
  <path
     style="fill:#bb11bd;fill-opacity:1"
     d="m 394.57354,790.26328 c -1.13991,-1.4492 -2.07257,-3.10803 -2.07257,-3.68632 0,-0.57829 -1.14647,-12.35604 -2.5477,-26.17278 -1.40123,-13.81674 -2.41373,-28.38816 -2.25,-32.38093 l 0.2977,-7.25958 16.49999,-7.27167 c 9.075,-3.99942 19.29552,-8.69208 22.71226,-10.42812 l 6.21224,-3.15645 5.30539,3.74534 c 18.69092,13.19485 27.77011,21.50724 27.77011,25.42474 0,1.98722 -0.36314,2.07394 -6.25,1.49243 -3.4375,-0.33956 -10.075,-2.01238 -14.75,-3.71737 -4.67499,-1.70499 -10.30711,-3.72431 -12.51583,-4.48737 -2.20869,-0.76307 -7.3331,-2.75532 -11.38754,-4.42724 -4.05444,-1.67192 -7.75981,-3.03985 -8.23417,-3.03985 -0.47435,0 -0.86246,4.2931 -0.86246,9.54023 0,5.24712 -1.15862,21.78462 -2.5747,36.75 -2.29165,24.21844 -2.80553,27.45713 -4.67432,29.45974 -2.99416,3.2086 -7.9935,3.0285 -10.6784,-0.3848 z m -61.69315,-57.81879 c -0.30679,-0.79949 0.0954,-2.38625 0.89384,-3.52615 3.32159,-4.7422 24.63646,-19.22219 53.72674,-36.49854 19.30125,-11.46277 26.99999,-18.26819 26.99999,-23.86704 0,-3.52207 -1.50103,-4.09466 -3.66993,-1.39996 -2.98921,3.71389 -11.42442,10.30304 -17.58006,13.73264 l -5.75,3.20359 0,-9.93835 0,-9.93835 12.74999,-3.29143 c 27.00164,-6.9705 41.19357,-12.52229 48.5728,-19.00134 l 3.41884,-3.00178 2.6195,3.77994 c 6.59341,9.51429 3.35934,26.28741 -7.2397,37.5478 -4.96799,5.27798 -12.74399,10.44651 -25.14338,16.71224 -14.97411,7.56679 -83.91815,36.94035 -86.70442,36.94035 -1.28502,0 -2.58741,-0.65413 -2.89421,-1.45362 z m 31.60386,-42.87854 c -12.4095,-9.74208 -18.97436,-19.94057 -19.74848,-30.67921 -0.38323,-5.31608 -0.0579,-7.38675 1.77214,-11.28004 3.17518,-6.75486 9.89711,-13.8309 18.78744,-19.77712 7.63018,-5.10336 26.61457,-14.75319 34.4928,-17.5328 9.63654,-3.39997 19.71282,-11.08484 19.71282,-15.03438 0,-3.66911 -2.56961,-9.06358 -4.91535,-10.31898 -1.99432,-1.06733 -2.08466,-0.87956 -2.08466,4.333 0,5.2351 -0.16312,5.56863 -4.16157,8.50913 -5.12052,3.76567 -18.51038,9.45242 -20.47832,8.69725 -1.12475,-0.4316 -1.38002,-2.27446 -1.15244,-8.31955 l 0.29234,-7.76514 5,-2.66866 c 2.75,-1.46777 17.08953,-6.76728 31.86562,-11.7767 14.77611,-5.00943 27.67273,-9.53998 28.65917,-10.06791 2.46067,-1.31691 5.25489,3.55106 7.36593,12.83262 3.30579,14.53448 1.37457,31.54366 -4.84406,42.66357 -7.89853,14.1239 -20.75151,21.79195 -48.70793,29.059 -18.58046,4.82984 -24.28028,7.24193 -25.19663,10.66287 -0.33813,1.26237 -0.62095,7.78609 -0.62845,14.49717 l -0.0136,12.20196 -4.43018,3.04804 c -2.4366,1.67642 -4.79909,3.04776 -5.25,3.04741 -0.4509,-3.4e-4 -3.30235,-1.94953 -6.33655,-4.33153 z m -21.87431,-64.25977 c -5.92907,-5.33075 -10.69501,-14.24672 -11.63439,-21.76524 -0.91101,-7.29144 1.7283,-20.56557 5.69149,-28.62469 3.55429,-7.22766 9.78159,-14.40514 17.39632,-20.05075 5.10084,-3.7818 17.80471,-10.58785 22.43761,-12.02087 1.375,-0.42531 10.20649,-3.44222 19.62555,-6.70424 29.38313,-10.17602 40.38322,-18.18505 40.37071,-29.39341 -0.007,-6.2157 -6.20066,-13.42135 -17.27631,-20.09891 l -6.21996,-3.75004 -0.64147,5.75004 c -0.3528,3.16252 -0.6903,11.44352 -0.75,18.40221 l -0.10853,12.65218 -2.75,1.00386 c -15.22538,5.55788 -19.8599,7.18264 -20.49999,7.18685 -0.4125,0.003 -0.75,-8.73513 -0.75,-19.41743 l 0,-19.42238 9.24999,-3.51509 c 5.0875,-1.9333 13.975,-4.93896 19.75001,-6.67924 13.91129,-4.19212 23.25003,-7.42011 36.25059,-12.53019 l 10.75059,-4.2257 5.19097,5.92108 c 13.88355,15.83624 18.70483,29.93206 15.89343,46.46708 -2.34955,13.81869 -7.10902,22.64042 -17.08597,31.66905 -8.52465,7.71436 -19.57376,12.88866 -47.49961,22.24408 -28.15123,9.43092 -36.57211,13.19273 -41.77469,18.66177 -3.82552,4.02147 -3.93044,4.31926 -3.52016,9.99126 0.29073,4.01934 1.1335,6.80742 2.69692,8.92206 1.25072,1.6917 2.12192,3.18896 1.93599,3.32726 -0.18593,0.1383 -4.38806,2.4153 -9.33806,5.06001 -8.53476,4.56 -19.5,12.24194 -19.5,13.66116 0,0.3609 -0.6519,0.90634 -1.44866,1.21209 -0.85172,0.32683 -3.50642,-1.2942 -6.44237,-3.93386 z m -6.63342,-77.11223 c -12.11314,-8.62651 -21.3699,-19.97633 -24.46486,-29.99667 -5.48426,-17.75592 0.0785,-34.55488 16.66987,-50.34099 15.67825,-14.91735 35.45761,-25.66268 66.31944,-36.02868 22.16003,-7.4432 32.14171,-12.48607 39.91907,-20.16759 6.74588,-6.66277 10.19774,-12.92228 10.84589,-19.66759 0.85671,-8.91594 -2.19087,-15.05533 -10.15452,-20.45638 -2.13924,-1.45087 -3.42442,-2.63794 -2.85594,-2.63794 4.03769,0 23.13762,-2.32592 29.51368,-3.59407 8.50281,-1.69115 22.38851,-6.1428 27.65386,-8.86562 3.75461,-1.94158 3.16593,-2.38484 8.11027,6.10703 6.96076,11.9551 9.45591,35.42335 5.07555,47.73833 -5.88239,16.5378 -21.70119,30.97877 -48.60786,44.37406 -8.59864,4.28077 -21.60673,9.06512 -46.99917,17.28618 -24.94773,8.07709 -36.18965,14.54836 -40.40669,23.25962 -2.53153,5.22944 -2.62906,8.76827 -0.42033,15.25055 1.95896,5.74927 8.97704,13.11632 15.35425,16.11774 l 4.21107,1.98194 -7.86956,2.75259 c -11.81999,4.13435 -23.71973,10.12714 -29.61014,14.91185 -2.89269,2.3497 -5.72043,4.55272 -6.28388,4.89561 -0.56346,0.34288 -3.26346,-0.9711 -6,-2.91997 z M 323.58378,444.38627 c -14.87691,-10.18979 -23.74816,-20.12735 -27.70916,-31.03978 -3.093,-8.52112 -3.27759,-22.59411 -0.4418,-33.68194 8.12452,-31.76658 38.54092,-56.88951 79.06815,-65.30766 4.125,-0.85683 16.275,-1.98166 26.99999,-2.49961 27.59626,-1.33275 48.16552,-4.32965 68.60953,-9.99627 18.95616,-5.25423 34.47573,-12.36043 40.44509,-18.51926 3.14377,-3.24354 3.43924,-4.0917 3.78064,-10.85237 0.34113,-6.75534 0.18691,-7.46233 -1.95497,-8.96256 -2.94168,-2.06044 -13.60679,-2.18765 -18.3196,-0.21851 -1.85628,0.7756 -6.34714,3.74586 -9.97969,6.60056 -9.38934,7.3788 -14.26009,8.98924 -27.18781,8.98924 -13.06183,0 -20.5391,-1.94592 -25.13421,-6.54103 -3.06359,-3.06359 -3.25897,-3.68254 -3.25897,-10.32402 0,-15.85736 8.81661,-29.41056 23.64659,-36.35034 8.34952,-3.90722 16.19501,-4.92955 32.35341,-4.21592 41.81003,1.84652 65.1055,14.54253 71.46199,38.94671 7.32937,28.13935 -11.957,56.62375 -52.70657,77.84334 -21.69233,11.29588 -45.62566,18.12362 -72.25542,20.61316 -40.84362,3.81834 -55.2074,6.13132 -64.33365,10.35957 -10.51542,4.87187 -13.63428,9.51819 -13.60608,20.26968 0.0157,5.97289 0.53664,8.1534 3.27896,13.72385 3.75512,7.62774 8.62818,12.09152 18.77143,17.19489 5.34231,2.68787 6.35375,3.5342 4.82438,4.03684 -13.848,4.55134 -31.12575,12.80282 -41.80577,19.96553 -3.67211,2.46276 -7.00343,4.45154 -7.40292,4.41951 -0.39949,-0.032 -3.61408,-2.03615 -7.14354,-4.45361 z m 63.54219,-25.61316 c -0.34375,-1.71875 -0.625,-12.47256 -0.625,-23.89735 l 0,-20.77234 6.25,-1.0686 c 3.43749,-0.58773 9.28749,-1.37107 12.99999,-1.74075 l 6.75,-0.67215 0,21.11241 0,21.11242 -2.75,1.41525 c -2.99855,1.54316 -19.91801,7.63611 -21.20467,7.63611 -0.43743,0 -1.07657,-1.40625 -1.42032,-3.125 z m -95.12501,-82.70707 c -11.881,-6.3282 -15.65411,-8.77772 -24.54686,-15.93597 -16.96272,-13.65418 -25.67611,-28.42206 -26.68791,-45.23196 -1.07368,-17.83785 5.36993,-31.46074 19.46926,-41.16134 13.06507,-8.989 34.69982,-13.85494 61.4761,-13.82679 17.6342,0.0185 27.3053,3.55358 36.59556,13.37668 8.6282,9.12305 13.85099,24.06028 11.2103,32.06163 -2.80045,8.48541 -9.36691,11.58472 -26.01645,12.27948 -14.02664,0.58531 -19.36745,-1.05638 -29.73005,-9.13859 -9.50833,-7.41595 -10.58355,-7.85056 -19.18607,-7.75509 -6.49314,0.0721 -7.83557,0.39349 -9.33388,2.23488 -2.47,3.03557 -2.36932,12.40121 0.17823,16.57915 5.78704,9.49066 30.93413,19.47538 65.00159,25.80906 4.63641,0.86199 8.56365,1.70105 8.72719,1.8646 0.16355,0.16355 -2.95488,1.32808 -6.92983,2.58785 -16.33435,5.17678 -35.94368,16.94444 -45.07107,27.04737 -2.008,2.22261 -4.21458,4.03247 -4.90351,4.02192 -0.68893,-0.0106 -5.3026,-2.17635 -10.2526,-4.81288 z m 94.16291,-68.78061 c -0.3646,-19.09276 -0.664,-60.40308 -0.66535,-91.80071 -10e-4,-31.39764 -0.29679,-66.83355 -0.65654,-78.74647 L 384.18789,75.0784 378.2149,71.23825 C 356.53221,57.29806 353.31003,28.61664 371.44246,10.9551 378.82338,3.7658499 385.92697,0.62218991 395.98409,0.09432991 c 13.17231,-0.69137 21.38867,2.35021999 30.66974,11.35357009 11.89603,11.54004 14.87558,29.65215 7.39368,44.9446 -2.75072,5.62227 -10.91641,14.31279 -16.0421,17.07315 l -3.17919,1.71211 -0.66177,63.61017 c -0.36397,34.9856 -0.66216,85.5618 -0.66263,112.39156 -6.7e-4,38.14962 -0.27329,48.86648 -1.25086,49.17179 -0.6875,0.21473 -6.68919,0.67342 -13.33709,1.01933 l -12.08707,0.62892 -0.66292,-34.7141 z m -83.66291,-61.98088 c -8.29739,-1.77786 -21.15212,-8.12284 -27.20702,-13.42914 -2.58886,-2.26878 -6.52809,-7.00852 -8.75384,-10.53275 l -4.04681,-6.40768 -6.4945,4.35563 c -9.83978,6.59919 -18.20897,8.93205 -30.30155,8.44635 -8.60895,-0.34579 -10.67379,-0.79937 -16.34222,-3.58993 -10.23833,-5.04031 -17.18631,-13.24089 -21.30995,-25.15176 l -1.19807,-3.46053 -11.09262,0.25598 c -14.99042,0.34594 -21.88818,-1.55904 -28.3511,-7.82981 -4.93743,-4.79064 -6.88649,-9.40613 -6.89674,-16.33185 -0.005,-3.63069 -0.10653,-3.74082 -2.75558,-3 -1.5125,0.42298 -7.7,0.76905 -13.75,0.76905 -9.89468,0 -11.58641,-0.27472 -16.83589,-2.734 -7.965399,-3.73163 -12.584409,-7.59562 -17.284049,-14.45882 -3.91124,-5.71186 -7.38006,-13.07562 -7.38006,-15.66672 0,-1.06009 8.00066,-1.44416 40.749999,-1.9562 44.46499,-0.69522 74.18142,-1.93826 101.25,-4.2353 28.1645,-2.39004 44.41699,-5.89948 67.06206,-14.48089 21.08969,-7.99198 28.65504,-9.24648 41.47256,-6.87704 11.24525,2.0788 14.14475,4.63148 18.50851,16.29468 3.96612,10.60039 11.56752,16.54776 21.20687,16.59233 l 4.75,0.022 0,48.83994 0,48.83994 -3.75,1.12747 c -17.87642,5.37471 -56.11168,7.84274 -71.25,4.59909 z m 149,0.0313 c -12.09133,-1.68827 -23.70466,-3.96398 -27.30748,-5.35109 l -2.80749,-1.0809 0.18257,-47.39625 c 0.1004,-26.06794 0.46378,-47.83166 0.80748,-48.36381 0.34371,-0.53215 2.93555,-1.1841 5.75964,-1.44877 10.20441,-0.95635 15.97505,-6.11782 20.44738,-18.28889 2.68969,-7.31975 7.0909,-11.9229 12.9783,-13.57377 2.44178,-0.6847 9.1646,-1.28099 14.9396,-1.32509 9.69258,-0.074 11.26899,0.2004 20.5,3.56858 32.55084,11.87702 43.41601,14.65219 67.5,17.24075 28.41843,3.05444 86.83348,5.55286 130.26905,5.57162 l 22.76905,0.01 -0.64648,2.75 c -1.11304,4.73466 -6.61169,14.27846 -11.10751,19.2789 -8.64762,9.61823 -19.1148,13.50963 -34.21925,12.72173 -5.26068,-0.27441 -10.22939,-0.66806 -11.04158,-0.87478 -1.13835,-0.28973 -1.61767,1.0412 -2.0918,5.80822 -0.88823,8.93056 -4.68528,13.99542 -13.93148,18.58315 -3.99862,1.98401 -6.03233,2.23278 -18.25299,2.23278 l -13.75298,0 -1.13234,3.5 c -3.78958,11.71339 -10.4553,19.70145 -20.64066,24.73532 -7.53357,3.72329 -7.74979,3.76468 -19.66917,3.76468 -11.47483,0 -12.37407,-0.15263 -18.78142,-3.18789 -3.70125,-1.75335 -8.70949,-4.55013 -11.12942,-6.21508 l -4.39986,-3.02719 -3.61906,5.86335 c -7.25333,11.75132 -19.42978,20.11576 -35.03206,24.06476 -9.42486,2.38548 -31.18424,2.59089 -46.59004,0.43983 z"
     id="path3768"
     inkscape:connector-curvature="0" />
</svg>
