<?xml version="1.0" encoding="UTF-8" standalone="no"?>
<svg
   xmlns:dc="http://purl.org/dc/elements/1.1/"
   xmlns:cc="http://creativecommons.org/ns#"
   xmlns:rdf="http://www.w3.org/1999/02/22-rdf-syntax-ns#"
   xmlns:svg="http://www.w3.org/2000/svg"
   xmlns="http://www.w3.org/2000/svg"
   xmlns:sodipodi="http://sodipodi.sourceforge.net/DTD/sodipodi-0.dtd"
   xmlns:inkscape="http://www.inkscape.org/namespaces/inkscape"
   viewBox="0 0 466.114 466.84"
   id="svg2"
   version="1.1"
   inkscape:version="0.48.4 r9939"
   width="100%"
   height="100%"
   sodipodi:docname="lion.svg">
  <metadata
     id="metadata12">
    <rdf:RDF>
      <cc:Work
         rdf:about="">
        <dc:format>image/svg+xml</dc:format>
        <dc:type
           rdf:resource="http://purl.org/dc/dcmitype/StillImage" />
      </cc:Work>
    </rdf:RDF>
  </metadata>
  <defs
     id="defs10" />
  <sodipodi:namedview
     pagecolor="#ffffff"
     bordercolor="#666666"
     borderopacity="1"
     objecttolerance="10"
     gridtolerance="10"
     guidetolerance="10"
     inkscape:pageopacity="0"
     inkscape:pageshadow="2"
     inkscape:window-width="1301"
     inkscape:window-height="744"
     id="namedview8"
     showgrid="false"
     fit-margin-top="0"
     fit-margin-left="0"
     fit-margin-right="0"
     fit-margin-bottom="0"
     inkscape:zoom="0.4609375"
     inkscape:cx="-187.16485"
     inkscape:cy="222.212"
     inkscape:window-x="65"
     inkscape:window-y="24"
     inkscape:window-maximized="1"
     inkscape:current-layer="svg2" />
  <circle
     cx="256"
     cy="256"
     r="256"
     id="circle4"
     sodipodi:cx="256"
     sodipodi:cy="256"
     sodipodi:rx="256"
     sodipodi:ry="256"
     style="opacity:0;fill:#c02c2c"
     transform="translate(-20.114,-11.372)" />
  <path
     d="m 103.77099,4.5750019 c -10.347997,0.467 -21.336997,3.1459999 -32.193997,5.3659999 l 62.491997,65.6280002 -21.645,0.188 c -29.375997,0.187 -75.694997,6.154 -103.5549968,22.303 L 40.624993,149.636 -6.8359376e-6,170.734 v 56.577 L 46.539993,253.631 -6.8359376e-6,293.707 v 32.268 C 28.216993,324.742 60.629993,326.611 89.134993,317.068 L 121.03699,306.41 99.208993,331.996 c -18.76,22 -29.782,55.133 -50.736,87.713 31.91,-2.394 63.351997,-7.65 96.799997,-25.81 l 16.026,-8.683 -9.746,77.124 c 26.333,-12.19 52.103,-28.923 71.178,-49.055 22.683,-23.94 35.713,-50.49 33.36,-72.71 l -0.074,-0.75 c -18.488,-12.687 -32.26,-31.173 -39.236,-54.18 -8.414,-27.753 -5.867,-62.33 6.643,-101.145 -26.406,-4.04 -46.536,-14.637 -57.307,-30.11 -12.33,-17.716 -14.222,-39.26 -7.738,-57.017998 6.483,-17.758 22.29,-32.165 43.437,-33.4 20.558,-1.195 44.48,10.033 69.972,36.101998 11.368,4.11 21.73,8.034 31.14,11.94 2.434,-21.394998 -1.46,-38.032998 -10.408,-52.899998 -8.41,-13.975 -23.217,-26.43 -41.1,-38.582 l 4.27,42.888 -16.425,-10.985 c -37.009,-24.737 -90.406,-49.8170001 -135.494,-47.7100001 l 0.002,-0.225 z m 100.387,77.9970001 c -0.436,0.008 -0.866,0 -1.29,0 h -0.002 c -13.54,0.785 -22.545,9.105 -26.937,21.134998 -4.393,12.03 -3.243,27.353 5.51,39.93 8.755,12.576 25.128,23.158 53.548,24.784 l 12.595,0.69 -4.344,11.827 c -14.837,40.46 -16.242,73.928 -8.577,99.212 7.66,25.267 24.04,42.795 47.305,52.56 h 0.037 l 108.59,38.474 c 5.65,-11.9 11.672,-23.813 17.988,-35.71 -4.997,2.188 -10.513,3.41 -16.32,3.41 -22.52,0 -40.78,-18.262 -40.78,-40.782 0,-22.518 18.26,-40.78 40.78,-40.78 20.66,0 37.697,15.373 40.373,35.3 10.666,-18.062 21.885,-36 33.48,-53.683 l -103.224,-52.377 -4.746,-5.732 c -3.93,-13.556 -11.515,-23.32 -26.39,-33.324 -14.876,-10.002 -37.034,-19.57 -67.784,-30.623 l -2.08,-0.767 -1.53,-1.607 c -23.283,-24.531998 -42.7,-32.277998 -56.202,-32.023998 z m 119.04,89.929998 c 8.272,0 14.657,6.387 14.657,14.657 0,8.274 -6.387,14.688 -14.658,14.688 -8.27,0 -14.687,-6.414 -14.687,-14.687 0,-8.27 6.416,-14.655 14.687,-14.655 z"
     id="path6"
     style="fill:#00b489;fill-opacity:1"
     inkscape:connector-curvature="0" />
</svg>
