<?xml version="1.0" encoding="UTF-8" standalone="no"?>
<svg
   xmlns:dc="http://purl.org/dc/elements/1.1/"
   xmlns:cc="http://creativecommons.org/ns#"
   xmlns:rdf="http://www.w3.org/1999/02/22-rdf-syntax-ns#"
   xmlns:svg="http://www.w3.org/2000/svg"
   xmlns="http://www.w3.org/2000/svg"
   xmlns:sodipodi="http://sodipodi.sourceforge.net/DTD/sodipodi-0.dtd"
   xmlns:inkscape="http://www.inkscape.org/namespaces/inkscape"
   version="1.1"
   id="Calque_1"
   x="0px"
   y="0px"
   width="86.324997"
   height="85.306"
   viewBox="0 0 86.324997 85.306"
   enable-background="new 0 0 100 100"
   xml:space="preserve"
   inkscape:version="0.48.4 r9939"
   sodipodi:docname="rebis.svg"><metadata
     id="metadata15"><rdf:RDF><cc:Work
         rdf:about=""><dc:format>image/svg+xml</dc:format><dc:type
           rdf:resource="http://purl.org/dc/dcmitype/StillImage" /></cc:Work></rdf:RDF></metadata><defs
     id="defs13" /><sodipodi:namedview
     pagecolor="#ffffff"
     bordercolor="#666666"
     borderopacity="1"
     objecttolerance="10"
     gridtolerance="10"
     guidetolerance="10"
     inkscape:pageopacity="0"
     inkscape:pageshadow="2"
     inkscape:window-width="1301"
     inkscape:window-height="744"
     id="namedview11"
     showgrid="false"
     fit-margin-top="0"
     fit-margin-left="0"
     fit-margin-right="0"
     fit-margin-bottom="0"
     inkscape:zoom="2.92"
     inkscape:cx="6.9851961"
     inkscape:cy="75.803164"
     inkscape:window-x="65"
     inkscape:window-y="24"
     inkscape:window-maximized="1"
     inkscape:current-layer="Calque_1" /><path
     style="fill:#ae6200;fill-opacity:1;fill-rule:nonzero"
     d="M 43.15625 0 C 30.28605 0 18.727401 5.6109178 10.8125 14.46875 L 8.4375 14.46875 L 7.3125 14.46875 L 7.3125 15.5625 L 7.3125 18.90625 C 2.692201 25.696281 1.7268953e-18 33.876798 0 42.65625 C 0 51.427965 2.6994274 59.588717 7.3125 66.375 L 7.3125 84.21875 L 7.3125 85.3125 L 8.4375 85.3125 L 77.90625 85.3125 L 79 85.3125 L 79 84.21875 L 79 66.375 C 83.615079 59.58762 86.3125 51.430429 86.3125 42.65625 C 86.312873 33.876051 83.62003 25.696574 79 18.90625 L 79 15.5625 L 79 14.46875 L 77.90625 14.46875 L 75.5 14.46875 C 67.58552 5.6133665 56.024677 0 43.15625 0 z M 43.15625 1.09375 C 55.367772 1.09375 66.349467 6.2564629 74.03125 14.46875 L 12.28125 14.46875 C 19.963356 6.253069 30.94376 1.09375 43.15625 1.09375 z M 8.4375 15.5625 L 9.84375 15.5625 C 9.3559594 16.147509 8.8937905 16.764573 8.4375 17.375 L 8.4375 15.5625 z M 13.40625 15.5625 L 34 15.5625 C 32.550072 16.575994 31.59375 18.253001 31.59375 20.15625 C 31.59375 23.252699 34.1223 25.75 37.21875 25.75 C 40.315199 25.75 42.8125 23.252699 42.8125 20.15625 C 42.8125 18.260041 41.878362 16.577164 40.4375 15.5625 L 45.875 15.5625 C 44.434138 16.577164 43.5 18.260041 43.5 20.15625 C 43.5 23.252699 46.02855 25.75 49.125 25.75 C 52.221449 25.75 54.71875 23.252699 54.71875 20.15625 C 54.71875 18.260041 53.784612 16.577164 52.34375 15.5625 L 72.9375 15.5625 C 72.905478 15.576532 72.876043 15.578476 72.84375 15.59375 L 49.90625 26.40625 L 60.40625 26.40625 L 74.75 19.65625 C 76.061 19.03925 76.459 17.937 76.25 17 C 76.826973 17.726021 77.378129 18.486346 77.90625 19.25 L 77.90625 66.0625 C 74.31405 71.248634 69.5405 75.6175 64 78.75 C 64.627 77.783 64.733 76.5085 64.125 75.4375 L 51.34375 52.9375 L 51.34375 65.8125 L 58.59375 78.5625 C 59.16175 79.5605 60.18 80.1495 61.25 80.1875 C 57.963 81.7385 54.44 82.86725 50.75 83.53125 C 50.609713 83.775683 50.432354 84.008581 50.25 84.21875 L 48.5 84.21875 C 49.523 83.68975 50.21875 82.63625 50.21875 81.40625 L 50.25 32 L 75.34375 32 C 78.73075 32 78.73075 27.53125 75.34375 27.53125 L 10.96875 27.53125 C 9.27475 27.53125 8.4375 28.631 8.4375 29.75 C 8.4375 30.869 9.27475 32 10.96875 32 L 36.09375 32 L 36.09375 81.40625 C 36.09375 82.63625 36.7905 83.68975 37.8125 84.21875 L 36.0625 84.21875 C 35.86875 83.9995 35.71 83.78725 35.5625 83.53125 C 31.8785 82.86325 28.3445 81.7365 25.0625 80.1875 C 26.1315 80.1505 27.184 79.5605 27.75 78.5625 L 34.96875 65.8125 L 34.96875 52.9375 L 22.1875 75.4375 C 21.5805 76.5075 21.6845 77.783 22.3125 78.75 C 16.772 75.616188 12.029484 71.248881 8.4375 66.0625 L 8.4375 29.75 L 8.4375 19.25 C 8.9657674 18.486284 9.5165718 17.726124 10.09375 17 C 9.88475 17.937 10.2535 19.03825 11.5625 19.65625 L 25.9375 26.40625 L 36.4375 26.40625 L 13.5 15.59375 C 13.467667 15.578476 13.438308 15.576532 13.40625 15.5625 z M 76.5 15.5625 L 77.90625 15.5625 L 77.90625 17.375 C 77.449528 16.763866 76.988293 16.148159 76.5 15.5625 z M 7.3125 20.9375 L 7.3125 64.34375 C 3.3896073 58.029918 1.09375 50.609163 1.09375 42.65625 C 1.09375 34.689811 3.3754743 27.259216 7.3125 20.9375 z M 79 20.9375 C 82.937106 27.259462 85.21875 34.687937 85.21875 42.65625 C 85.21875 50.625738 82.937318 58.053366 79 64.375 L 79 20.9375 z M 42.46875 54.6875 L 43.875 54.6875 L 43.875 81.40625 C 43.875 82.63625 44.57075 83.68975 45.59375 84.21875 L 40.71875 84.21875 C 41.74275 83.68975 42.4375 82.63625 42.4375 81.40625 L 42.46875 54.6875 z M 77.90625 67.9375 L 77.90625 84.21875 L 52.84375 84.21875 C 63.047632 81.90149 71.876594 76.00521 77.90625 67.9375 z M 8.4375 67.96875 C 14.463949 76.017297 23.282821 81.901454 33.46875 84.21875 L 8.4375 84.21875 L 8.4375 67.96875 z "
     id="path7" /></svg>