<?xml version="1.0" standalone="no"?>
<!DOCTYPE svg PUBLIC "-//W3C//DTD SVG 1.1//EN" "http://www.w3.org/Graphics/SVG/1.1/DTD/svg11.dtd">
<svg xmlns="http://www.w3.org/2000/svg">
<metadata>Copyright (C) 2017 by original authors @ fontello.com</metadata>
<defs>
<font id="fontello" horiz-adv-x="1000" >
<font-face font-family="fontello" font-weight="400" font-stretch="normal" units-per-em="1000" ascent="850" descent="-150" />
<missing-glyph horiz-adv-x="1000" />
<glyph glyph-name="hermes" unicode="&#xe801;" d="M498-147c-2 2-3 4-3 5 0 1-1 16-3 33-2 17-3 36-3 41l0 9 21 9c12 5 25 11 29 13l8 4 6-4c24-17 35-28 35-33 0-2 0-2-8-1-4 0-12 2-18 4-6 2-13 5-16 6-3 1-9 3-14 6-5 2-10 3-11 3 0 0-1-5-1-12 0-6-1-27-3-46-3-31-4-35-6-37-4-4-10-4-13 0z m-78 73c-1 1 0 3 1 5 4 6 31 24 68 46 24 14 34 23 34 30 0 4-2 5-5 2-4-5-14-13-22-18l-7-4 0 13 0 12 16 5c34 8 52 15 61 24l4 3 4-4c8-12 4-34-9-48-7-7-17-13-32-21-19-10-106-47-109-47-2 0-4 1-4 2z m40 54c-16 13-24 26-25 39-1 7 0 9 2 14 4 9 13 18 24 25 9 7 33 19 43 22 12 5 25 14 25 19 0 5-3 12-6 13-3 2-3 1-3-5 0-7 0-7-5-11-6-5-23-12-26-11-1 1-2 3-1 11l0 9 6 4c4 2 22 8 41 15 18 6 34 12 36 12 3 2 6-4 9-16 4-18 2-40-6-54-10-17-26-27-62-36-23-6-30-9-31-14-1-1-1-10-1-18l0-15-6-4c-3-2-6-4-6-4-1 0-4 2-8 5z m-28 81c-7 7-13 18-15 28-1 9 3 26 8 36 4 9 12 18 22 25 6 5 22 14 28 15 2 1 13 5 25 9 37 13 51 23 51 37 0 8-8 17-22 25l-8 5-1-7c0-4-1-15-1-23l0-16-3-2c-20-7-26-9-26-9-1 0-1 11-1 25l0 24 11 5c7 2 18 6 25 8 18 5 30 10 46 16l14 5 6-7c18-20 24-38 20-59-3-17-9-28-21-40-11-9-25-16-60-28-36-12-46-16-53-23-5-5-5-6-4-13 0-5 1-8 3-11 2-2 3-4 2-4 0-1-5-3-11-7-11-5-25-15-25-17 0 0-1-1-2-1-1-1-4 1-8 4z m-8 98c-16 11-27 25-31 38-7 22 0 43 21 63 20 19 45 32 84 45 28 10 40 16 50 26 8 8 13 16 14 25 1 11-3 19-13 25-3 2-5 4-4 4 5 0 29 3 37 4 11 2 29 8 35 12 5 2 4 3 11-8 8-15 11-45 6-60-8-21-27-39-61-56-11-6-28-12-60-22-31-10-45-18-51-29-3-7-3-12 0-20 2-7 11-16 19-20l6-3-10-3c-15-5-30-13-38-19-3-3-7-6-8-6 0 0-4 1-7 4z m-16 131c-19 12-30 25-35 39-4 11-4 28 0 42 10 40 48 72 99 83 6 1 21 2 34 3 35 1 61 5 87 12 24 7 43 16 51 24 4 4 4 5 5 13 0 9 0 10-3 12-3 2-17 2-23 0-2-1-8-5-12-8-12-10-18-12-35-12-16 0-26 3-31 9-4 3-5 4-5 13 0 20 12 37 30 45 11 5 21 7 41 6 53-3 82-19 90-49 9-36-15-72-66-99-28-14-58-22-91-26-52-4-70-7-82-13-13-6-17-12-17-25 0-8 1-10 4-17 5-10 11-16 24-22 7-4 8-5 6-5-17-6-39-16-53-25-4-4-8-6-9-6 0 0-4 3-9 6z m80 32c0 2-1 16-1 30l0 26 8 2c5 0 12 1 17 2l8 1 0-27 0-27-3-1c-4-2-25-10-27-10 0 0-1 2-2 4z m-120 104c-15 8-19 11-31 20-21 18-32 36-33 57-2 23 6 40 24 52 17 12 44 18 78 18 22 0 34-5 46-17 11-12 17-30 14-41-3-10-12-14-33-15-17-1-24 1-37 11-12 10-14 10-24 10-9 0-10 0-12-3-3-3-3-15 0-20 7-12 39-25 82-33 6-1 11-2 11-2 0-1-4-2-9-4-20-6-45-21-57-34-2-3-5-5-6-5-1 0-6 3-13 6z m119 87c0 24-1 76-1 116 0 39 0 84-1 99l0 27-8 5c-27 18-31 54-9 76 10 9 19 13 31 14 17 1 27-3 39-14 15-15 19-38 9-57-3-7-13-18-20-22l-4-2-1-80c0-44 0-108 0-142 0-48-1-61-2-62-1 0-8-1-17-1l-15-1-1 44z m-105 78c-11 2-27 10-35 17-3 3-8 9-11 13l-5 8-8-5c-13-8-23-11-38-11-11 1-14 1-21 5-13 6-22 17-27 32l-1 4-14 0c-19-1-28 2-36 9-6 6-9 12-9 21 0 5 0 5-3 4-2-1-10-1-18-1-12 0-14 0-21 3-10 5-16 10-22 19-5 7-9 16-9 19 0 2 10 2 51 3 57 1 94 2 128 5 36 3 56 8 85 18 26 10 36 12 52 9 14-3 18-6 23-21 5-13 15-20 27-20l6 0 0-62 0-62-5-1c-22-7-70-10-89-6z m187 0c-15 2-29 5-34 7l-4 1 1 60c0 33 0 60 1 61 0 1 3 1 7 2 13 1 20 8 26 23 3 9 9 15 16 17 3 1 12 2 19 2 12 0 14-1 26-5 41-15 55-18 85-22 36-3 109-7 164-7l29 0-1-3c-1-6-8-18-14-24-11-13-24-17-43-16-7 0-13 0-14 1-1 0-2-2-3-8-1-11-5-17-17-23-5-3-8-3-23-3l-18 0-1-4c-5-15-13-25-26-32-9-4-10-4-25-4-14 0-15 0-23 4-5 2-11 5-15 8l-5 3-5-7c-9-15-24-25-44-30-12-3-39-4-59-1z" horiz-adv-x="1009" />

<glyph glyph-name="lionvert" unicode="&#xe802;" d="M222 840c-22-1-45-6-69-11l134-141-46 0c-63-1-162-13-222-48l68-110-87-46v-121l100-56-100-86v-69c60 2 130-2 191 19l68 23-46-55c-41-47-64-118-109-188 68 5 136 16 207 55l35 19-21-165c56 26 111 62 152 105 49 51 77 108 72 156l-1 1c-39 27-69 67-84 116-18 60-12 134 15 217-57 8-100 31-123 64-27 38-31 84-17 122 14 39 48 69 93 72 44 3 96-21 150-77 25-9 47-18 67-26 5 46-3 82-22 113-18 30-50 57-88 83l9-92-35 24c-80 53-194 106-291 102l0 0z m215-167c-1 0-1 0-2 0h0c-29-2-49-19-58-45-10-26-7-59 12-86 18-27 54-49 114-53l27-1-9-26c-32-86-35-158-18-212 16-54 51-92 101-113h0l233-82c12 25 25 51 38 76-10-4-22-7-35-7-48 0-87 39-87 87 0 49 39 88 87 88 45 0 81-33 87-76 23 39 47 77 71 115l-221 112-10 13c-8 29-24 50-56 71-32 22-80 42-146 66l-4 1-3 4c-50 52-92 69-121 68z m255-192c18 0 32-14 32-32 0-18-14-31-32-31-17 0-31 13-31 31 0 18 14 32 31 32z" horiz-adv-x="998" />

<glyph glyph-name="atalante" unicode="&#xe803;" d="M432 850c-32 0-69-5-111-16-74-20-137-62-186-116-37-29-78-98-108-181-35-116-35-254-5-396 8-38 28-64 56-79 28-14 66-18 111-6 28 7 48 26 60 48 13 22 16 46 12 61-10 34-41 53-68 46-19-5-29-22-29-36 0-7 2-13 6-17 4-4 9-7 21-7l-1-40c-20 1-37 8-49 21-11 12-16 28-16 44 0 31 21 63 57 73 51 13 103-21 117-74 7-28 1-61-15-90-17-30-46-57-85-67-9-3-18-4-26-6 208-190 524-233 736-20 38 38 66 86 81 137 0 0 0 0 0 0 21 85 11 178-37 260-93 161-299 224-406 165-121-49-151-120-162-173-45-128 10-285 143-329 92-31 205 11 235 108 20 64-9 141-75 159-20 5-43 3-62-6-18-9-32-23-37-44-3-12-1-25 4-36 5-10 13-16 24-18 4-1 9 0 13 1-4 1-7 4-9 5-3 3-7 8-8 14-2 11 5 21 11 25 6 5 11 6 18 6 13 0 24-8 30-17 5-9 7-18 6-28v0c-2-17-13-31-26-38-13-7-28-10-42-7-25 4-43 21-52 40-10 19-12 41-7 62 8 33 31 58 58 71 28 13 60 16 90 8 90-25 127-126 102-209-38-120-174-170-286-134-143 48-208 205-177 345-40 34-72 83-85 132-31 116 68 241 173 275 89 29 167-12 126-83 71 60 33 168-120 167z" horiz-adv-x="1000" />

<glyph glyph-name="esmeralda" unicode="&#xe804;" d="M620 850l-465-124 123-107 284 76 4 1 54 154z m36-16l-57-162 193-193 201 18-337 337z m-88-26l-18-71c-1 33-80 36-226 10l244 61z m108-31l259-259-123-16c34 45-68 192-136 275z m-551-76l-125-465 166 67 79 292-120 106z m436-47l-280-75-75-280 204-206 280 76 76 280-205 205z m-424-12l69-64-64-250-82-33c107 64 138 274 77 347z m412-31l174-175-64-239-94-25c252 227-73 501-277 296l21 79 240 64z m450-153l-195-18-76-282 150-151 121 451z m-36-29l-62-244c15 145 0 191-64 234l126 10z m-781-162l-172-69 340-340 37 204-205 205z m0-42l165-174-16-129c-11 94-60 181-149 303z m518-94l-275-74-36-207 466 124-155 157z m39-90l51-52-242-69c129 56 175 79 191 121z" horiz-adv-x="999" />

<glyph glyph-name="mdk-aresh" unicode="&#xe805;" d="M0 850c127-240 304-432 496-625l7-8 1 1c46-47 94-94 141-142-40-31-83-60-128-86l61-61 147 147c90-59 163-136 222-226l60 60c-91 59-170 128-226 222l147 147-61 61c-24-47-52-90-84-130-94 94-185 183-278 268 0 0-1 1-1 1-154 140-315 265-504 371z m1007 0c-177-99-329-215-474-344l49-46 121 121 28-28-120-120 53-50c131 143 251 292 343 467z m-703-269l428-428c-9-9-19-18-29-27l-427 427 28 28z m-164-241l-61-61 147-147c-56-94-135-163-226-222l60-60c59 90 132 167 222 226l147-147 61 61c-45 26-88 55-128 86 38 38 76 76 113 113l-53 55-118-118c-10 9-19 18-29 27l120 120-53 54c-39-38-78-77-118-117-32 40-60 83-84 130z" horiz-adv-x="1007" />

<glyph glyph-name="mdk-meborack" unicode="&#xe806;" d="M495 786c0 0-10-77-103-102-93-26-268 0-268 0l-30-28 17-19-2-6-108-284-1-4v-3c0-39 17-71 42-92 25-20 57-29 89-29 32 0 64 9 89 29 26 21 43 52 43 92v4l-2 3-114 279c50 7 168 18 240-3 48-14 75-42 90-66l-73-396 45-63c-37-16-68-51-78-106-117-13-198-43-198-78h647c0 35-82 65-198 78-11 55-41 91-78 108l44 61-73 399c15 23 42 50 88 63 72 21 192 9 241 3l-106-279-1-4v-3c0-39 17-71 42-92 25-20 57-29 89-29 32 0 64 9 89 29 25 21 43 52 43 92v4l-2 3-116 285-2 5 18 17-32 30c0 0-176-26-268 0-93 25-103 102-103 102z m-367-214l91-225h-176l85 225z m737 0l91-225h-176l85 225z" horiz-adv-x="999" />

<glyph glyph-name="mdk-pachad" unicode="&#xe807;" d="M717 850c-5 0-11 0-16-1-134-9-277-122-300-275l604-25v155c-17 16-35 32-53 47-73 59-152 99-235 99z m-490-43c-76 0-156-32-227-97v-172l363 40 0 0c8 56 30 108 61 151-57 51-125 78-197 78z m233-274c-52 1-232-25-231-57 0-54 220-109 200-112-208-31-323-31-392-94-83-75 454-171 389-190-121-34-228-76-230-186 0-16 2-31 6-44h116c-33 44-51 86-31 97 22-32 47-66 76-97h136c-41 21-109 62-107 104 3 60 140 101 148 101 0 0-103-56-106-105-1-35 47-78 76-100h109c-34 26-55 53-43 67 33-23 70-47 110-67h225c-120 34-217 69-243 112-22 35 153 59 127 167-12 52-123 87-429 132-53 8 284 41 274 121-5 46-218 56-242 78-10 9 13 62 62 73z m-305-290c71 0 178-48 259-78l-3-25c-60 23-220 80-269 102 4 0 8 1 13 1z m571-114c0 0 0 0 0 0 8-26-46-93-131-91 30 15 126 91 131 91z" horiz-adv-x="1005" />

<glyph glyph-name="mdk-sohar" unicode="&#xe808;" d="M825 850l-24-8-674-235-14-5 1-15 40-711 2-26 24 8 674 235 14 5-1 15-40 711-2 26z m-67-65l-92-137-384-135-78 52c157-26 418 112 546 218l8 2z m34-41l34-594-105 70-9 163c40 96 69 243 80 361z m-134-144l20-375-355-124-6 107c103-19 177 18 222 81-59 7-98 66-91 128 6 60 53 109 110 112 3 0 7 0 11-1 5 0 10-1 15-2-2 15-6 30-11 44l85 30z m-461-78l63-42 22-406-92-138-1 8c52 216 78 463 8 578z m366-48c-28 0-57-26-61-63-4-38 18-66 46-68 29-2 59 25 64 63 4 38-18 66-47 68-1 0-2 0-2 0z m136-287l105-70-542-189c102 57 219 137 288 207l149 52z" horiz-adv-x="981" />

<glyph glyph-name="mdk-tous" unicode="&#xe809;" d="M955 803c-48 52-152 36-289-42-51 20-107 32-165 32-243 2-441-197-441-441 0-57 10-112 31-161-81-137-95-239-46-293 55-62 170-24 290 44 51-21 109-33 168-33 244 0 441 199 441 441 0 58-10 115-32 166 69 122 97 230 43 287z m-38-38c29-29 15-99-33-190-39 64-93 119-159 158 93 46 166 59 192 32z m-181-385c-1 50-7 98-16 141h132c0 0 0-1 1-1-27-45-60-92-101-140h-16z m83 195h-114c-17 56-40 104-69 141 75-27 138-77 183-141z m-291 161c50-16 93-77 121-161h-121v161z m0-215h136c10-43 16-91 19-141h-155v141z m0-196h155c0-9-2-19-2-28-20-22-94-96-113-113h-39v141z m141-119c-1-7-3-15-4-22h-17c2 3 17 17 21 22z m-338-202c-59 30-109 73-147 126h115c13-44 30-82 51-114-8-4-14-8-19-12z m143 321v-141h-135c-11 43-16 91-19 141h154z m-154 55c1 50 8 98 19 141h135v-141h-154z m34-250h120v-24c-26-20-53-41-81-60-15 24-29 52-39 84z m120 606v-161h-120c28 84 71 145 120 161z m-108-20c-28-37-53-85-70-141h-114c47 64 110 114 184 141z m-214-195h132c-10-44-15-91-16-141h-153c2 50 16 98 37 141z m114-196c2-50 7-98 16-141h-131c-20 43-34 91-36 141h151z m-184-388c-29 25-13 101 37 195 37-66 92-121 157-160-83-44-157-66-194-35z m343 64c16 13 33 25 49 37v-69c-17 6-33 16-49 32z m103-32v110c22 18 42 35 61 51h60c-28-84-71-145-121-161z m109 19c28 36 52 85 70 142h114c-47-64-110-114-184-142z m215 196h-132c7 28 11 59 14 91 14 16 29 34 42 51h113c-4-51-17-99-37-142z m36 196h-70c20 27 39 52 56 79 9-27 13-52 14-79z" horiz-adv-x="1000" />

<glyph glyph-name="mdk-zakaï" unicode="&#xe80a;" d="M500 850c-93 0-177-11-240-30-31-10-57-21-77-35-19-14-34-32-34-55l0 0c0-28 2-55 6-82 7 3 15 5 23 5 3 0 6 0 9 0 25-3 45-19 60-41 16-21 26-47 29-76 3-29-2-55-15-75-6-9-13-16-21-21 64-87 156-143 260-143 103 0 194 54 258 140-10 5-19 14-26 24-12 20-17 46-15 75 3 29 14 55 29 76 15 22 36 38 60 41 2 0 3 0 5 0 1 0 3 0 4 0 11 0 21-3 29-8 5 27 7 56 7 85v0c0 23-15 41-34 55-20 14-46 25-77 35-63 19-147 30-240 30z m-230-68c-10-8-15-17-15-26 0-40 110-74 245-74 135 0 245 34 245 74 0 9-5 18-15 26 28-9 50-19 64-29 14-10 18-18 18-23 0-5-4-13-18-23-14-10-37-20-65-29-58-17-139-28-229-28-90 0-171 11-228 28-29 9-52 19-66 29-14 10-18 18-18 23 0 5 4 13 18 23 14 10 36 20 64 29z m-92-168c-1 0-2 0-3 0-6-1-11-5-16-13-6-10-11-28-8-50 1-17 7-34 15-48 2 19 18 34 37 34 15 0 28-8 34-21 0 5 0 10-1 16-2 22-10 42-21 57-10 15-23 24-33 25-1 0-2 0-4 0z m637 0c-1 0-3 0-4 0-10-1-22-10-33-25-11-15-19-35-21-57-1-4-1-7-1-10 7 9 18 15 30 15 21 0 38-17 38-38 0 0 0-1 0-1 10 14 17 33 19 53 2 22-3 40-9 50-5 8-10 12-16 13-1 0-2 0-3 0z m-315-25c25 0 47-15 61-35 14-20 22-46 22-75 0-28-8-55-22-75-14-20-36-35-61-35-25 0-46 15-60 35-14 20-22 47-22 75 0 29 8 55 22 75 14 20 35 35 60 35z m0-39c-9 0-19-6-28-18-9-13-15-32-15-53 0-10 2-19 4-27 4 16 19 28 37 28 21 0 38-16 38-37 0-2 0-3-1-4 5 11 9 25 9 40 0 21-7 40-15 53-9 12-19 18-29 18z m-82-272c-3-13-6-25-9-38 1 0 2 0 4-1 20-6 50-11 84-11 33 0 64 4 84 11-3 12-6 23-9 35-21-4-45-7-69-7-31 0-60 4-85 11z m-19-76c-24-90-56-163-94-201 1-3 4-6 9-10 8-7 22-14 39-20 36-12 87-20 144-20 57 0 108 8 144 20 18 6 31 13 40 20 6 5 8 9 9 12-37 38-70 110-98 198-26-8-59-13-95-13-37 0-71 5-97 14 0 0 0 0-1 0z m322-224c-4-7-9-13-16-18-13-11-31-19-51-26-42-15-96-23-157-23-60 0-115 8-156 23-21 7-38 15-52 26-6 5-12 11-16 17-1 0-1 0-2-1-25-10-45-24-50-45-9-40 124-81 279-81 154 0 279 36 279 81 0 18-24 28-58 47z" horiz-adv-x="1000" />

<glyph glyph-name="ambre" unicode="&#xe80b;" d="M1146 407c0 58-103 110-259 140 27 64 55 132 73 170 48 105-78 188-143 84-30-48-93-142-151-229-31 1-61 2-93 2-316 0-573-75-573-167 0-200 133-372 326-453v-50c0-29 110-53 247-53 136 0 247 24 247 53v50c193 81 326 253 326 453z m-1073-136c121-55 315-80 500-80v-237c-234 0-433 134-500 317z m500 42c-214 0-387 42-387 94 0 52 173 94 387 94 15 0 30 0 44-1-46-68-81-120-81-120h281c0 0 16 39 38 91 65-17 105-39 105-64 0-52-173-94-387-94z" horiz-adv-x="1146" />

<glyph glyph-name="liqueur" unicode="&#xe80c;" d="M310 27l29 0c10 0 18 8 18 18 0 10-8 18-18 18l-35 0 0 90-180 0 0-90-36 0c-10 0-18-8-18-18 0-10 8-18 18-18l29 0 12-83c12-35 45-61 85-61 39 0 72 26 84 61z m-6 413l-18 0-144 0-18 0 0 36 180 0 0-36z m556 161l0-185c-1 0-2 0-3 0-6 2-13 3-19 4-2 0-4 0-6 1-9 0-17 1-26 1-8 0-17-1-25-1-2-1-4-1-6-1-7-1-13-2-20-4-1 0-2 0-2 0l0 185 107 0z m-135 162l163 0-22-54-119 0-22 54z m-206-144l0 18 90 0 0-143c0-10 8-18 18-18l90 0 0-71c-78-30-138-98-156-181l30 0c4 0 8-1 11-4 56-47 145-38 193 0 1 1 1 1 1 1 58 45 161 59 232 3l24 0c-18 83-78 151-156 181l0 196 18 0c10 0 18 9 18 18l0 72c0 10-8 18-18 18l-9 0 26 65c2 6 1 12-2 17-3 5-9 8-15 8l-215 0c-6 0-12-3-15-8-4-5-4-11-2-17l26-65-9 0c-10 0-18-8-18-18l0-72c0-9 8-18 18-18l18 0 0-89-72 0 0 143c0 10-8 18-18 18l-108 0 0 18c0 10-8 18-18 18l-54 0 0 36 36 0c10 0 18 8 18 18 0 10-8 18-18 18l-36 0 0 18c0 10-8 18-18 18-10 0-18-8-18-18l0-18-36 0c-10 0-18-8-18-18 0-10 8-18 18-18l36 0 0-36-54 0c-9 0-18-8-18-18l0-18-125 0c-10 0-18-8-18-18l0-143-90 0c-10 0-18-8-18-18l0-72c0-10 8-18 18-18l18 0 0-216 180 0 0 216 18 0c9 0 17 8 17 18l0 72c0 10-8 18-17 18l-90 0 0 125 107 0 0-18c0-9 9-18 18-18l144 0c10 0 18 9 18 18l0 0z m525-556l14 0c10 0 18 8 18 18 0 10-8 18-18 18l-11 0c7 22 11 46 11 71 0 7-1 12-1 18l-35 0c-4 0-8 2-12 5-56 47-144 38-192-1-1 0-1 0-1 0-32-25-76-40-121-40-39 0-79 11-111 36l-29 0c-1-6-1-11-1-18 0-25 4-49 11-71l-11 0c-10 0-18-8-18-18 0-10 8-18 18-18l14 0 29-33c45-67 122-111 208-111 87 0 164 44 209 111" horiz-adv-x="1146" />

<glyph glyph-name="métal" unicode="&#xe80d;" d="M825 512c-2 7-4 14-7 21-9 40-60 114-122 114h-246c-62 0-113-75-122-114-2-7-4-14-7-21-64-27-110-91-110-167v-371c0-68 56-124 124-124h475c69 0 125 56 125 124v373c0 74-46 138-110 165z m15-437c0-69-56-125-124-125h-286c-68 0-124 56-124 125v108c0 148 120 268 267 268 147 0 267-120 267-268v-108z m-121 606h-292v115c0 30 24 54 53 54h187c29 0 53-24 53-54v-115z m31-601l-69 208-51-158-60 234-61-234-52 158-69-208c-11-36 22-70 69-70h0c25 0 46 10 59 25 12-15 32-25 54-25h0c21 0 41 10 53 25 13-15 34-25 60-25h0c45 0 79 35 67 70z" horiz-adv-x="1146" />

<glyph glyph-name="poudre" unicode="&#xe80e;" d="M573 445c245 0 443 47 443 105 0 48-135 88-320 101 16-10 31-18 42-23 2 0 6 0 10 0 50 0 68-6 71-23 4-18-17-28-39-36-69-26-162-29-199-29l0 0c-10 0-16 0-17 0 0 0-6 0-16 0-37 0-130 3-199 29-22 8-43 18-40 36 3 17 21 23 72 23 4 0 8 0 10 0 10 4 24 12 39 21-175-14-301-53-301-99 0-58 199-105 444-105z m-75 303c0-16 7-31 19-41-22-48-122-96-122-96 0 0-125 5-40-27 85-32 209-27 209-27 0 0 125-5 210 27 85 32-40 27-40 27 0 0-101 48-122 96 11 10 18 25 18 41 0 32-29 59-66 59-36 0-66-27-66-59z m471-309l0 46c-84-37-241-57-396-57-155 0-312 20-396 57l0-46 0-139c10-131 68-264 140-296 41-19 42-83 88-83 0 0-12-28 166-28 202 0 175 47 175 47 46 0 47 55 83 82 85 63 143 111 140 278z m-205-437l-33-16c69 111 118 179 140 388l33 16c-28-231-74-302-140-388z" horiz-adv-x="1146" />

<glyph glyph-name="vapeur" unicode="&#xe80f;" d="M742 506c-47 62-113 111-186 138l-3 49c127 66 419-160 537-248l46 53c-114 120-657 625-858 146-73-27-139-76-186-138-54-71-82-156-82-245 0-225 182-407 407-407 224 0 407 182 407 407 0 89-28 174-82 245z m-325-623c-209 0-378 169-378 378 0 170 113 315 268 361 65 173 237 392 801-126l-16-19c-379 272-449 280-566 233l0-88c156-46 269-191 269-361 0-209-169-378-378-378z m-252 509c-3 0-6 1-9 2-12 5-17 19-12 31 33 77 102 131 184 145 13 2 25-6 27-19 2-13-6-25-19-27-67-11-123-55-149-117-4-9-12-15-22-15z m477-248c-6-5-10-13-10-22 0-18 16-32 37-32h19c-55-92-156-153-271-153-175 0-317 142-317 317 0 175 172 35 301 111 132 78 287 69 325-51h-57c-10 0-20-3-27-9-6-6-10-14-10-23 0-17 16-31 37-31h65c0-34-6-67-16-97h-49c-10 0-20-4-27-10z" horiz-adv-x="1146" />

<glyph glyph-name="sephirah" unicode="&#xe810;" d="M500-150c-34 0-62 28-62 62 0 18 7 34 20 46l-129 223c-6-2-12-2-19-2-34 0-62 27-62 62 0 29 20 54 49 60v98c-29 6-49 31-49 61 0 29 20 54 49 60v98c-29 6-49 31-49 61 0 34 28 62 62 62 18 0 34-8 46-20l85 48c-2 6-3 13-3 19 0 34 28 62 62 62 34 0 62-28 62-62 0-6-1-13-3-19l85-49c12 13 28 21 46 21 34 0 62-28 62-62 0-30-20-55-49-61v-98c29-6 49-31 49-60 0-30-20-55-49-61v-98c29-6 49-31 49-60 0-35-28-62-62-62-7 0-13 0-19 2l-129-223c13-12 20-28 20-46 0-34-28-62-62-62z m-19 121c2 1 4 1 6 2v97c-29 7-49 32-49 61 0 7 1 13 3 19l-85 49c-1-2-2-3-4-4l129-224z m32 2c2-1 4-1 6-2l129 224c-2 1-3 2-4 4l-85-49c2-6 3-12 3-19 0-29-20-54-49-61v-97z m-59 200c9 10 20 16 33 19v35h-116c0-2-1-3-1-5l84-49z m59 19c13-3 24-9 33-19l84 49c0 2-1 3-1 5h-116v-35z m116 62c0 2 1 4 1 5l-84 49c-9-9-20-16-33-19v-35h116z m-142 0v35c-13 3-24 10-33 19l-84-49c0-1 1-3 1-5h116z m-164 47c13-2 25-9 33-18l85 48c-2 6-3 13-3 19 0 7 1 13 3 19l-85 49c-9-10-20-16-33-19v-98z m321-18c9 9 20 16 32 18v98c-12 3-23 9-32 19l-85-49c2-6 3-12 3-19 0-6-1-13-3-19l85-48z m-190 109c1 1 3 3 4 4l-29 50h-58c0-2-1-3-1-5l84-49z m88 4c1-1 3-3 4-4l84 49c0 2-1 3-1 5h-58l-29-50z m-61 13c2 1 4 1 6 2v35h-27l21-37z m32 2c2-1 4-1 6-2l21 37h-27v-35z m116 62c5 24 24 42 47 47v98c-1 0-3 1-5 1l-84-146h42z m-73 0l92 160c-10 8-16 20-19 32h-116v-192h43z m-69 0v192h-116c-3-12-9-24-19-32l92-160h43z m-73 0l-85 146c-2 0-4-1-6-1v-98c24-5 43-23 48-47h43z m215 219c0 2 1 4 1 5l-84 49c-9-9-20-16-33-19v-35h116z m-142 0v35c-13 3-24 10-33 19l-84-49c0-1 1-3 1-5h116z" horiz-adv-x="1000" />

<glyph glyph-name="air" unicode="&#xe811;" d="M845 417h254c24 0 43 19 43 42 0 24-19 43-43 43h-303l-188 327c-8 13-22 21-37 21-15 0-29-8-37-21l-189-327h-302c-24 0-43-19-43-43 0-23 19-42 43-42h253l-290-503c-8-13-8-30 0-43 7-13 21-21 37-21h1056c15 0 29 8 37 21 8 13 8 30 0 43l-291 503z m-274 306l127-221h-255l128 221z m-455-788l278 482h353l278-482-909 0z" horiz-adv-x="1142" />

<glyph glyph-name="eau" unicode="&#xe812;" d="M43 850h1056l0 0c15 0 29-8 37-21l0 0c8-13 8-30 0-43l-528-915 0 0c-8-13-22-21-37-21l0 0c-15 0-29 8-37 21l-528 915 0 0c-8 13-8 30 0 43l0 0c7 13 21 21 37 21v-42l36 21-36-21v42l0 0z m73-85l455-788 454 788-909 0 0 0z" horiz-adv-x="1142" />

<glyph glyph-name="feu" unicode="&#xe813;" d="M43-150v42l36-21-36 21v-42c-16 0-30 8-37 21l0 0c-8 13-8 30 0 43l0 0 528 915c8 13 22 21 37 21l0 0c15 0 29-8 37-21l0 0 528-915c8-13 8-30 0-43l0 0c-8-13-22-21-37-21l0 0h-1056l0 0z m73 85l909 0-454 788-455-788 0 0z" horiz-adv-x="1142" />

<glyph glyph-name="lune" unicode="&#xe814;" d="M203-134c-18 5-31 21-31 41l0 0c0 19 13 36 31 41l0 0c179 46 312 209 312 402l0 0c0 194-133 356-312 402l0 0c-18 5-31 22-31 41l0 0c0 20 13 36 31 41l0 0c40 11 82 16 125 16l0 0v-42-13 13 42c277 0 500-224 500-500l0 0c0-276-223-500-500-500l0 0c-43 0-85 5-125 16l0 0z m397 484c0-171-86-321-216-412l0 0c203 28 359 201 360 412l0 0c-1 211-157 384-360 412l0 0c130-91 216-241 216-412l0 0z" horiz-adv-x="1000" />

<glyph glyph-name="terre" unicode="&#xe815;" d="M1136 786c8 13 8 30 0 43-8 13-22 21-37 21h-1056c-16 0-30-8-37-21-8-13-8-30 0-43l290-503h-253c-24 0-43-19-43-42 0-24 19-43 43-43h302l189-327c8-13 22-21 37-21 15 0 29 8 37 21l188 327h303c24 0 43 19 43 43 0 23-19 42-43 42h-254l291 503z m-693-588h255l-127-221-128 221z m582 567l-278-482h-353l-278 482 909 0z" horiz-adv-x="1142" />

<glyph glyph-name="tous" unicode="&#xe816;" d="M959 395l0 0 102 71h-405l-126 384-125-384h-405l329-234-126-380 326 236 329-238-126 383 227 162z m-429-241l-1-1-140 100 54 162 176 0 54-162-143-99 0 0z m-70 313l70 216 72-216-142 0z m-297-52l226 0-42-132-184 132z m209-213l113-81-181-129 68 210z m202-81l115 82 70-216-185 134z m141 163l-42 131 226 0-184-131z" horiz-adv-x="1061" />

<glyph glyph-name="rebis" unicode="&#xe817;" d="M506 850c-151 0-286-66-379-170l-28 0-13 0 0-12 0-40c-54-79-86-175-86-278 0-103 32-198 86-278l0-209 0-13 13 0 814 0 13 0 0 13 0 209c54 80 86 175 86 278 0 103-32 199-86 278l0 40 0 12-13 0-28 0c-93 104-228 170-379 170z m0-13c143 0 272-60 362-157l-724 0c90 97 219 157 362 157z m-407-169l16 0c-5-7-11-14-16-22l0 22z m58 0l242 0c-17-12-29-32-29-54 0-37 30-66 66-66 37 0 66 29 66 66 0 22-11 42-28 54l64 0c-17-12-28-32-28-54 0-37 30-66 66-66 36 0 65 29 65 66 0 22-10 42-27 54l241 0c0-1-1-1-1-1l-269-126 123 0 168 79c16 7 20 20 18 31 7-9 13-18 19-27l0-548c-42-61-98-112-163-149 8 11 9 26 2 39l-150 263 0-150 85-150c7-12 19-19 31-19-38-18-80-31-123-39-2-3-4-6-6-8l-20 0c12 6 20 18 20 33l0 579 294 0c40 0 40 52 0 52l-754 0c-20 0-30-13-30-26 0-13 10-26 30-26l294 0 0-579c0-15 8-27 20-33l-20 0c-2 2-4 5-6 8-43 8-85 21-123 39 12 0 25 7 31 19l85 150 0 150-150-263c-7-13-6-28 2-39-65 37-121 88-163 149l0 425 0 123c6 9 13 18 19 27-2-11 2-24 18-31l168-79 123 0-269 126c0 0 0 0-1 1z m740 0l16 0 0-22c-5 8-10 15-16 22z m-811-63l0-509c-46 74-73 161-73 254 0 93 27 181 73 255z m840 0c46-74 73-162 73-255 0-93-27-180-73-255l0 510z m-428-396l16 0 0-313c0-15 9-27 21-33l-58 0c12 6 21 18 21 33l0 313z m415-155l0-191-293 0c119 27 223 96 293 191z m-814-1c71-94 174-163 293-190l-293 0 0 190z" horiz-adv-x="1012" />

<glyph glyph-name="iosis" unicode="&#xe818;" d="M982 350c0-266-216-482-482-482-266 0-482 216-482 482 0 266 216 482 482 482 266 0 482-216 482-482z" horiz-adv-x="1000" />

<glyph glyph-name="mélanosis" unicode="&#xe81a;" d="M982 350c0-266-216-482-482-482-266 0-482 216-482 482 0 266 216 482 482 482 266 0 482-216 482-482z" horiz-adv-x="1000" />

<glyph glyph-name="leukosis" unicode="&#xe81b;" d="M500 850c-276 0-500-224-500-500 0-276 224-500 500-500 276 0 500 224 500 500 0 276-224 500-500 500z m0-36c257 0 464-207 464-464 0-257-207-464-464-464-257 0-464 207-464 464 0 257 207 464 464 464z" horiz-adv-x="1000" />

<glyph glyph-name="maîtriser" unicode="&#xe81d;" d="M181 850l104-201c-6-5-11-10-17-14l-105 58 59-104c-49-58-81-130-89-210l-113-32 112-32c6-80 37-154 85-213l-19-35-198-188v-29h27l197 188 36 20c59-53 135-87 219-95l29-104 30 104c42 3 82 12 119 28l68-141h44l-76 158c24 13 47 29 68 46l93-51-52 93c51 60 84 137 90 222l104 29-105 30c-1 15-3 29-6 43l115 44v42l-125-47c-17 50-43 97-78 136l55 98-99-55c-11 8-22 16-33 24l130 188h-48l-116-168c-44 22-94 36-146 40l-32 113-32-113c-57-6-111-24-158-52l-93 180h-44z m170-313l68-139c7-5 13-9 19-13l18 84 39-9-24-112c-2-13-5-24-8-35l0-2-1 0c-22-72-75-78-128-56l-157 40 9 38 113-29c1 6 2 11 3 17l-125 69 19 34 122-67c3 5 5 9 8 13l-97 97 28 28 98-97c5 3 11 6 16 9l-55 113 35 17z m323 0l35-17-55-113c5-3 11-6 16-9l98 97 28-28-98-97c3-4 6-8 9-13l122 67 19-34-125-69c1-6 2-11 3-17l112 29 10-38-157-40c-63-26-126-12-138 106l-23 99 39 9 19-83c6 3 12 7 17 12l69 139z" horiz-adv-x="1000" />

<glyph glyph-name="manipuler" unicode="&#xe81e;" d="M488 850c-235 2-488-167-488-483l46 110c-20-154-17-315 83-433l-89 39c83-149 270-195 429-198-246 86-366 273-374 478-15 453 557 466 728 162-7 42-18 82-33 120 165-191 127-460-46-541-52-9-104-26-130-41-125-72-13-270 114-197 20 12 50 37 78 67 138 127 210 253 199 404-14-62-41-124-76-181 135 314 17 564-310 645 26-13 50-30 73-50-123 50-281 48-400-8 60 56 138 94 218 106-7 1-15 1-22 1z m-42-343l-43-215c-6-8-12-14-19-21l-55 105-49-25 67-131c10-24 22-44 33-61 60-91 138-75 204-20l186 103-27 49-141-79c-4 6-7 14-11 20l145 139-38 40-142-137c-5 5-9 10-14 14l96 167-48 28-99-167c-8 3-16 5-24 6l33 175-54 10z" horiz-adv-x="1006" />

<glyph glyph-name="percevoir" unicode="&#xe81f;" d="M302 706c-114 0-225-61-293-114-7-6-10-13-9-22 2-8 6-14 15-18 8-3 15-2 22 4 73 57 205 123 317 100 44-9 146-47 262-77 116-30 247-55 361-37 9 2 15 6 18 15 3 8 2 15-3 22-6 7-13 10-22 8-102-16-229 6-343 36-113 30-211 66-264 77-16 4-33 6-50 6-4 0-8 0-11 0l0 0z m-24-200c-54 1-106-12-153-49-12-9-38-33-64-60-13-14-26-28-36-41-10-13-18-24-20-42 0-8 2-20 12-27 9-7 18-7 24-6 12 2 22 6 32 11 9 4 19 8 26 10 2 0 3 0 4 0 28-26 61-41 96-48 3-21 4-37 5-48-3 3-7 6-18 6-8 0-18-5-22-11-4-7-4-11-5-16-1-20 6-35 12-46 5-11 10-22 13-47 3-29 3-27 3-29 0-3-1-10 2-48 0-6 3-12 8-16 5-4 10-6 16-5 7 0 12 3 16 7 4 5 6 11 6 17-3 38-3 41-3 44 0 3 0 6-3 34-2 25-8 41-13 53 7 0 15 2 20 7 10 8 12 18 13 28 2 15 1 34-3 63 93-86 151-140 207-176 57-37 112-53 189-64 56-7 131-11 197 2 33 6 64 17 90 34 26 17 46 43 54 76 7 36-15 68-41 91-27 22-61 37-95 30-27-6-46-26-59-49-7-11-12-24-12-38 0-15 8-31 21-41 6-3 11-4 18-3 6 1 11 4 14 10 4 5 5 11 4 17-2 6-5 11-10 14-2 1-1 0-1 3 0 3 1 9 5 16 8 13 25 25 29 26 13 3 38-5 57-21 18-15 27-35 25-45-5-21-16-36-34-48-19-12-44-22-73-27-59-11-130-8-183-1-74 9-118 23-170 57-45 28-96 73-171 143 24 3 49 9 73 15 102 27 206 74 287 92 102-20 206-20 310 7 5 2 10 5 13 10 3 4 4 10 4 15-1 6-4 11-8 15-4 3-9 5-15 5-2 0-4 0-6 0-102-27-205-26-308-4-3 1-5 1-8 0-80 20-168 58-255 81-35 9-70 15-105 17-4 0-7 0-11 0l0 0z m3-45c2 0 5 0 7-1 30-1 62-7 95-16 62-16 128-42 194-63-68-22-140-50-208-69-19-5-38-9-55-12 25 16 42 43 42 74 0 44-33 79-75 87l0 0z m-42-3c-37-11-64-44-64-84 0-34 20-64 50-78-37 4-68 17-95 42-7 7-16 10-23 10-8 1-14-1-20-2-5-2-10-3-15-5 7 8 14 16 22 24 24 26 52 51 60 56 26 21 54 32 85 37z" horiz-adv-x="997" />

<glyph glyph-name="spinner" unicode="&#xe838;" d="M462 850c-6 0-11-5-11-11l0-183 0 0c0-6 5-11 11-11l69 0c1 0 1 0 1 0 7 0 12 5 12 11l0 183 0 0c0 6-5 11-12 11l-69 0c0 0 0 0-1 0z m250-47c-4 1-8-2-10-5l-91-158 0 0c-4-6-2-13 4-16l60-34c0-1 0-1 0-1 6-3 13-1 16 4l91 158c3 6 2 13-4 16l-61 35c-1 1-3 1-5 1z m-428-2c-2 0-4-1-6-2l-61-35c-5-3-7-10-4-16l91-157c0 0 0 0 0 0 3-6 10-8 16-5l61 35c5 4 7 11 4 16l-91 157c0 1 0 1 0 1-2 4-6 6-10 6z m620-163c-2 0-4 0-6-1l-157-91c0 0 0 0 0 0-6-3-8-10-5-16l35-61c4-5 11-7 16-4l157 91c1 0 1 0 1 0 6 3 7 11 4 16l-35 61c-2 4-6 6-10 5z m-810-4c-5 0-9-2-11-6l-35-61c-3-5-1-12 4-15l158-91 0 0c6-4 13-2 16 4l35 60c0 0 0 0 0 0 3 6 1 13-4 16l-158 91c-2 1-4 2-5 2z m712-235l0 0c-6 0-11-5-11-11l0-69c0-1 0-1 0-1 0-7 5-12 11-12l183 0 0 0c6 0 11 5 11 12l0 69c0 0 0 0 0 1 0 6-5 11-11 11l-183 0z m-794-5l0 0c-7 0-12-5-12-12l0-69c0 0 0 0 0-1 0-6 5-11 12-11l182 0 0 0c6 0 11 5 11 11l0 69c0 1 0 1 0 1 0 7-5 12-11 12l-182 0z m772-153c-4 0-8-2-10-6l-34-60c-1 0-1 0-1 0-3-6-1-13 4-16l158-91c6-3 13-1 16 4l35 61c3 5 1 12-4 15l-158 92 0 0c-2 1-4 1-6 1z m-566-5c-1 0-3 0-5-1l-157-91c0 0-1 0-1 0-5-3-7-10-4-16l35-61c3-5 10-7 16-4l157 91c0 0 0 0 0 0 6 3 8 10 5 16l-35 61c-3 3-7 6-11 5z m468-121c-2 0-4 0-6-1l-61-35c-5-4-7-11-4-16l91-157c0-1 0-1 0-1 3-6 11-7 16-4l61 35c5 3 7 10 4 16l-91 157c0 0 0 0 0 0-2 4-6 6-10 6z m-367-2c-4 0-8-2-10-6l-91-158c-3-6-1-13 4-16l61-35c5-3 12-1 15 4l92 158 0 0c3 6 1 13-5 16l-60 35c0 0 0 0 0 0-2 1-4 1-6 2z m149-58c-7 0-12-5-12-11l0-183 0 0c0-6 5-11 12-11l69 0c0 0 0 0 1 0 6 0 11 5 11 11l0 183 0 0c0 6-5 11-11 11l-69 0c-1 0-1 0-1 0z" horiz-adv-x="1000" />

<glyph glyph-name="circle" unicode="&#xf111;" d="M857 350q0-117-57-215t-156-156-215-58-216 58-155 156-58 215 58 215 155 156 216 58 215-58 156-156 57-215z" horiz-adv-x="857.1" />
</font>
</defs>
</svg>
