<?xml version="1.0" encoding="UTF-8" standalone="no"?>
<!-- Created with Inkscape (http://www.inkscape.org/) -->

<svg
   xmlns:dc="http://purl.org/dc/elements/1.1/"
   xmlns:cc="http://creativecommons.org/ns#"
   xmlns:rdf="http://www.w3.org/1999/02/22-rdf-syntax-ns#"
   xmlns:svg="http://www.w3.org/2000/svg"
   xmlns="http://www.w3.org/2000/svg"
   xmlns:sodipodi="http://sodipodi.sourceforge.net/DTD/sodipodi-0.dtd"
   xmlns:inkscape="http://www.inkscape.org/namespaces/inkscape"
   width="41.999302"
   height="36.655682"
   id="svg3707"
   version="1.1"
   inkscape:version="0.48.4 r9939"
   sodipodi:docname="liqueur.svg">
  <defs
     id="defs3709" />
  <sodipodi:namedview
     id="base"
     pagecolor="#ffffff"
     bordercolor="#666666"
     borderopacity="1.0"
     inkscape:pageopacity="0.0"
     inkscape:pageshadow="2"
     inkscape:zoom="3.2581913"
     inkscape:cx="-25.308049"
     inkscape:cy="-12.406751"
     inkscape:document-units="px"
     inkscape:current-layer="layer1"
     showgrid="false"
     fit-margin-top="0"
     fit-margin-left="0"
     fit-margin-right="0"
     fit-margin-bottom="0"
     inkscape:window-width="1301"
     inkscape:window-height="744"
     inkscape:window-x="65"
     inkscape:window-y="24"
     inkscape:window-maximized="1" />
  <metadata
     id="metadata3712">
    <rdf:RDF>
      <cc:Work
         rdf:about="">
        <dc:format>image/svg+xml</dc:format>
        <dc:type
           rdf:resource="http://purl.org/dc/dcmitype/StillImage" />
        <dc:title />
      </cc:Work>
    </rdf:RDF>
  </metadata>
  <g
     inkscape:label="Calque 1"
     inkscape:groupmode="layer"
     id="layer1"
     transform="translate(-351.04759,-507.85325)">
    <g
       style="fill:#20beb9;fill-opacity:1;display:inline"
       id="g3045"
       transform="matrix(0.65829622,0,0,0.65829622,353.61504,509.06539)">
      <g
         id="g3013"
         style="fill:#20beb9;fill-opacity:1">
        <path
           style="fill:#20beb9;fill-opacity:1;fill-rule:evenodd;stroke:none"
           inkscape:connector-curvature="0"
           id="path14-3"
           d="M 13.36,44 15,44 c 0.552,0 1,-0.448 1,-1 0,-0.552 -0.448,-1 -1,-1 l -2,0 0,-5 -10,0 0,5 -2,0 c -0.553,0 -1,0.448 -1,1 0,0.552 0.447,1 1,1 l 1.639,0 0.653,4.618 C 3.968,50.579 5.812,52 8,52 c 2.187,0 4.031,-1.421 4.708,-3.382 z"
           sodipodi:nodetypes="csssccccsssccscc" />
        <path
           style="fill:#20beb9;fill-opacity:1;fill-rule:evenodd;stroke:none"
           inkscape:connector-curvature="0"
           id="path16-9"
           d="m 12.9996,21 -1,0 -8,0 -1,0 0,-2 10,0 0,2 z m 31,-9 0,10.328 c -0.054,-0.012 -0.109,-0.016 -0.164,-0.027 -0.356,-0.074 -0.718,-0.133 -1.084,-0.179 -0.115,-0.014 -0.229,-0.034 -0.344,-0.045 C 41.9446,22.03 41.4756,22 40.9996,22 c -0.476,0 -0.944,0.03 -1.408,0.077 -0.116,0.012 -0.23,0.031 -0.345,0.045 -0.365,0.046 -0.726,0.105 -1.083,0.179 -0.054,0.011 -0.11,0.015 -0.164,0.027 l 0,-10.328 6,0 z m -7.523,-9.0000003 9.046,0 -1.2,3 -6.646,0 -1.2,-3 z M 24.9996,11 l 0,-1.0000003 5,0 0,8.0000003 c 0,0.552 0.448,1 1,1 l 5,0 0,3.933 c -4.344,1.67 -7.653,5.441 -8.668,10.067 l 1.668,0 c 0.236,0 0.465,0.083 0.646,0.236 3.109,2.628 8.057,2.114 10.727,-0.016 0.021,-0.016 0.042,-0.032 0.063,-0.046 3.208,-2.514 8.959,-3.25 12.918,-0.172 l 1.315,0 c -1.015,-4.627 -4.325,-8.399 -8.669,-10.069 l 0,-10.933 1,0 c 0.552,0 1,-0.448 1,-1 l 0,-4.0000003 c 0,-0.552 -0.448,-1 -1,-1 l -0.523,0 1.452,-3.628 c 0.123,-0.309 0.085,-0.658 -0.101,-0.933 -0.186,-0.274 -0.496,-0.43900003 -0.828,-0.43900003 l -12,0 c -0.332,0 -0.642,0.16500003 -0.828,0.43900003 -0.186,0.275 -0.224,0.624 -0.101,0.933 l 1.452,3.628 -0.523,0 c -0.552,0 -1,0.448 -1,1 L 33.9996,11 c 0,0.552 0.448,1 1,1 l 1,0 0,5 -4,0 0,-8.0000003 c 0,-0.552 -0.448,-1 -1,-1 l -6,0 0,-1 c 0,-0.552 -0.448,-1 -1,-1 l -3,0 0,-2 2,0 c 0.552,0 1,-0.448 1,-1 0,-0.552 -0.448,-1 -1,-1 l -2,0 0,-1.00000003 c 0,-0.552 -0.448,-0.99999999910157 -1,-0.99999999910157 -0.552,0 -1,0.44799999910157 -1,0.99999999910157 l 0,1.00000003 -2,0 c -0.552,0 -1,0.448 -1,1 0,0.552 0.448,1 1,1 l 2,0 0,2 -3,0 c -0.552,0 -1,0.448 -1,1 l 0,1 -7,0 c -0.552,0 -1,0.448 -1,1 l 0,8.0000003 -5,0 c -0.552,0 -1,0.448 -1,1 l 0,4 c 0,0.552 0.448,1 1,1 l 1,0 0,12 10,0 0,-12 1,0 c 0.552,0 1,-0.448 1,-1 l 0,-4 c 0,-0.552 -0.448,-1 -1,-1 l -5,0 0,-7.0000003 6,0 0,1.0000003 c 0,0.552 0.448,1 1,1 l 8,0 c 0.552,0 1,-0.448 1,-1 l 0,0 z" />
        <path
           style="fill:#20beb9;fill-opacity:1;fill-rule:evenodd;stroke:none"
           inkscape:connector-curvature="0"
           id="path18"
           d="m 54.2457,42.0002 0.754,0 c 0.552,0 1,-0.448 1,-1 0,-0.552 -0.448,-1 -1,-1 l -0.59,0 c 0.379,-1.269 0.59,-2.61 0.59,-4 0,-0.337 -0.027,-0.667 -0.051,-0.998 l -1.949,0 c -0.236,0 -0.465,-0.084 -0.646,-0.237 -3.109,-2.627 -8.057,-2.113 -10.727,0.017 -0.021,0.016 -0.042,0.031 -0.063,0.046 -1.732,1.357 -4.206,2.196 -6.738,2.197 -2.158,0 -4.358,-0.609 -6.18,-2.025 l -1.595,0 c -0.024,0.331 -0.051,0.662 -0.051,1 0,1.39 0.21,2.731 0.59,4 l -0.59,0 c -0.552,0 -1,0.448 -1,1 0,0.552 0.448,1 1,1 l 0.753,0 1.643,1.825 c 2.519,3.723 6.78,6.175 11.604,6.175 4.823,0 9.085,-2.452 11.604,-6.175"
           sodipodi:nodetypes="cssscscsccccccscsssccsc" />
      </g>
    </g>
  </g>
</svg>
