<?xml version="1.0" encoding="UTF-8" standalone="no"?>
<!-- Created with Inkscape (http://www.inkscape.org/) -->

<svg
   xmlns:dc="http://purl.org/dc/elements/1.1/"
   xmlns:cc="http://creativecommons.org/ns#"
   xmlns:rdf="http://www.w3.org/1999/02/22-rdf-syntax-ns#"
   xmlns:svg="http://www.w3.org/2000/svg"
   xmlns="http://www.w3.org/2000/svg"
   xmlns:sodipodi="http://sodipodi.sourceforge.net/DTD/sodipodi-0.dtd"
   xmlns:inkscape="http://www.inkscape.org/namespaces/inkscape"
   width="41.999302"
   height="36.655682"
   id="svg3707"
   version="1.1"
   inkscape:version="0.48.4 r9939"
   sodipodi:docname="poudre.svg">
  <defs
     id="defs3709" />
  <sodipodi:namedview
     id="base"
     pagecolor="#ffffff"
     bordercolor="#666666"
     borderopacity="1.0"
     inkscape:pageopacity="0.0"
     inkscape:pageshadow="2"
     inkscape:zoom="3.2581913"
     inkscape:cx="-25.308049"
     inkscape:cy="-12.406751"
     inkscape:document-units="px"
     inkscape:current-layer="layer1"
     showgrid="false"
     fit-margin-top="0"
     fit-margin-left="0"
     fit-margin-right="0"
     fit-margin-bottom="0"
     inkscape:window-width="1301"
     inkscape:window-height="744"
     inkscape:window-x="65"
     inkscape:window-y="24"
     inkscape:window-maximized="1" />
  <metadata
     id="metadata3712">
    <rdf:RDF>
      <cc:Work
         rdf:about="">
        <dc:format>image/svg+xml</dc:format>
        <dc:type
           rdf:resource="http://purl.org/dc/dcmitype/StillImage" />
        <dc:title />
      </cc:Work>
    </rdf:RDF>
  </metadata>
  <g
     inkscape:label="Calque 1"
     inkscape:groupmode="layer"
     id="layer1"
     transform="translate(-351.04759,-507.85325)">
    <g
       style="fill:#a2a2a2;fill-opacity:1;display:inline"
       id="g2992"
       transform="matrix(0.56554297,0,0,0.56554297,355.79127,509.43338)">
      <path
         inkscape:connector-curvature="0"
         id="path4"
         d="m 28.744,23.488 c 15.875,0 28.744,-3.049 28.744,-6.813 0,-3.105 -8.763,-5.721 -20.743,-6.542 1.029,0.634 2.009,1.16 2.673,1.483 0.162,-0.002 0.393,-0.006 0.662,-0.006 3.271,0 4.441,0.37 4.64,1.466 0.22,1.211 -1.155,1.835 -2.582,2.37 -4.454,1.668 -10.485,1.85 -12.872,1.85 l 0,0 c -0.645,0 -1.045,-0.013 -1.109,-0.014 -0.004,0.001 -0.405,0.014 -1.048,0.014 -2.386,0 -8.417,-0.181 -12.872,-1.85 -1.427,-0.535 -2.803,-1.159 -2.583,-2.37 0.199,-1.097 1.37,-1.466 4.64,-1.466 0.27,0 0.499,0.004 0.662,0.006 0.631,-0.309 1.547,-0.796 2.519,-1.389 C 8.15,11.139 0,13.68 0,16.674 c 0,3.764 12.868,6.814 28.744,6.814 z"
         style="fill:#a2a2a2;fill-opacity:1" />
      <path
         inkscape:connector-curvature="0"
         id="path6"
         d="m 23.904,3.831 c 0,1.041 0.467,1.982 1.222,2.674 -1.412,3.089 -7.943,6.172 -7.943,6.172 0,0 -8.079,-0.28 -2.577,1.784 5.502,2.061 13.581,1.768 13.581,1.768 0,0 8.079,0.293 13.581,-1.768 5.501,-2.063 -2.577,-1.784 -2.577,-1.784 0,0 -6.53,-3.083 -7.942,-6.172 C 32.003,5.814 32.471,4.872 32.471,3.831 32.471,1.714 30.555,0 28.188,0 25.821,0 23.904,1.714 23.904,3.831 z"
         style="fill:#a2a2a2;fill-opacity:1" />
      <path
         sodipodi:nodetypes="ccscccscscsccccccc"
         inkscape:connector-curvature="0"
         id="path14"
         d="m 54.424,23.83 0,-2.961 c -5.468,2.424 -15.612,3.672 -25.679,3.672 -10.067,0 -20.212,-1.248 -25.68,-3.672 l 0,2.961 10e-4,9.031 c 0.68326,8.495823 4.441191,17.13806 9.077599,19.191716 2.680789,1.187432 2.719826,5.332004 5.684826,5.332004 0,0 -0.764425,1.84228 10.771575,1.84228 13.1,0 11.356401,-3.01359 11.356401,-3.01359 2.965,0 3.038512,-3.582018 5.391,-5.331997 C 50.862286,46.778976 54.620217,43.701429 54.425,32.864 z m -13.299599,28.350413 -2.149,1.054 C 43.465396,46.015245 46.637675,41.577922 48.053,28.063 l 2.149,-1.056 c -1.824082,15.000949 -4.808899,19.591503 -9.077599,25.173413 z"
         style="fill:#a2a2a2;fill-opacity:1" />
    </g>
  </g>
</svg>
