<?xml version="1.0" encoding="UTF-8" standalone="no"?>
<svg
   xmlns:dc="http://purl.org/dc/elements/1.1/"
   xmlns:cc="http://creativecommons.org/ns#"
   xmlns:rdf="http://www.w3.org/1999/02/22-rdf-syntax-ns#"
   xmlns:svg="http://www.w3.org/2000/svg"
   xmlns="http://www.w3.org/2000/svg"
   xmlns:sodipodi="http://sodipodi.sourceforge.net/DTD/sodipodi-0.dtd"
   xmlns:inkscape="http://www.inkscape.org/namespaces/inkscape"
   version="1.1"
   x="0px"
   y="0px"
   viewBox="0 0 87.2 82.2"
   enable-background="new 0 0 90 90"
   xml:space="preserve"
   id="svg2"
   inkscape:version="0.48.4 r9939"
   width="100%"
   height="100%"
   sodipodi:docname="tous.svg"
   style="fill:#000000"><metadata
     id="metadata10"><rdf:RDF><cc:Work
         rdf:about=""><dc:format>image/svg+xml</dc:format><dc:type
           rdf:resource="http://purl.org/dc/dcmitype/StillImage" /></cc:Work></rdf:RDF></metadata><defs
     id="defs8" /><sodipodi:namedview
     pagecolor="#ffffff"
     bordercolor="#666666"
     borderopacity="1"
     objecttolerance="10"
     gridtolerance="10"
     guidetolerance="10"
     inkscape:pageopacity="0"
     inkscape:pageshadow="2"
     inkscape:window-width="640"
     inkscape:window-height="480"
     id="namedview6"
     showgrid="false"
     fit-margin-top="0"
     fit-margin-left="0"
     fit-margin-right="0"
     fit-margin-bottom="0"
     inkscape:zoom="2.6222222"
     inkscape:cx="43.6"
     inkscape:cy="40.6"
     inkscape:window-x="65"
     inkscape:window-y="24"
     inkscape:window-maximized="0"
     inkscape:current-layer="svg2" /><path
     d="m 78.8,37.4 0,0 8.4,-5.8 H 53.9 L 43.6,0 33.3,31.6 H 0 L 27,50.8 16.7,82 43.5,62.6 70.5,82.2 60.2,50.7 78.8,37.4 z M 43.6,57.2 43.5,57.3 32,49.1 l 4.4,-13.3 14.5,0 4.4,13.3 -11.7,8.1 0,0 z m -5.8,-25.7 5.8,-17.8 5.9,17.8 -11.7,0 z M 13.4,35.8 32,35.8 28.5,46.6 13.4,35.8 z M 30.6,53.3 39.9,59.9 25,70.5 30.6,53.3 z m 16.6,6.6 9.4,-6.7 5.8,17.7 -15.2,-11 z m 11.6,-13.4 -3.5,-10.7 18.6,0 -15.1,10.7 z"
     id="path4"
     inkscape:connector-curvature="0" /></svg>