<?xml version="1.0" encoding="UTF-8" standalone="no"?>
<svg
   xmlns:dc="http://purl.org/dc/elements/1.1/"
   xmlns:cc="http://creativecommons.org/ns#"
   xmlns:rdf="http://www.w3.org/1999/02/22-rdf-syntax-ns#"
   xmlns:svg="http://www.w3.org/2000/svg"
   xmlns="http://www.w3.org/2000/svg"
   xmlns:sodipodi="http://sodipodi.sourceforge.net/DTD/sodipodi-0.dtd"
   xmlns:inkscape="http://www.inkscape.org/namespaces/inkscape"
   viewBox="0 0 471.875 468.592"
   id="svg2"
   version="1.1"
   inkscape:version="0.48.4 r9939"
   width="100%"
   height="100%"
   sodipodi:docname="aresh.svg">
  <metadata
     id="metadata12">
    <rdf:RDF>
      <cc:Work
         rdf:about="">
        <dc:format>image/svg+xml</dc:format>
        <dc:type
           rdf:resource="http://purl.org/dc/dcmitype/StillImage" />
      </cc:Work>
    </rdf:RDF>
  </metadata>
  <defs
     id="defs10" />
  <sodipodi:namedview
     pagecolor="#ffffff"
     bordercolor="#666666"
     borderopacity="1"
     objecttolerance="10"
     gridtolerance="10"
     guidetolerance="10"
     inkscape:pageopacity="0"
     inkscape:pageshadow="2"
     inkscape:window-width="640"
     inkscape:window-height="480"
     id="namedview8"
     showgrid="false"
     fit-margin-top="0"
     fit-margin-left="0"
     fit-margin-right="0"
     fit-margin-bottom="0"
     inkscape:zoom="0.4609375"
     inkscape:cx="236.25"
     inkscape:cy="227.029"
     inkscape:window-x="75"
     inkscape:window-y="34"
     inkscape:window-maximized="0"
     inkscape:current-layer="svg2" />
  <circle
     r="256"
     cy="256"
     cx="256"
     id="circle4"
     sodipodi:cx="256"
     sodipodi:cy="256"
     sodipodi:rx="256"
     sodipodi:ry="256"
     style="opacity:0;fill:#021a7a"
     transform="translate(-19.75,-14.437)" />
  <path
     d="m 0,0.001 c 59.538,112.29 142.51,202.35 232.28,292.718 l 3.626,3.75 0.063,-0.062 c 21.827,21.93 44.04,43.923 66.405,66.25 -18.856,14.813 -38.974,28.2 -59.938,40.312 l 28.532,28.53 68.717,-68.717 c 42.337,27.636 76.286,63.646 104.094,105.81 l 28.064,-28.06 c -42.47,-27.493 -79.74,-60.206 -106.03,-103.876 l 68.936,-68.938 -28.53,-28.53 c -11.115,21.853 -24.413,42.015 -39.47,60.593 -43.852,-43.8 -86.462,-85.842 -130.125,-125.47 -0.224,-0.203 -0.432,-0.422 -0.656,-0.625 C 163.874,108.313 88.765,49.473 0,0 z m 471.875,0 c -83.038,46.28 -154.122,100.78 -221.97,161.156 l 22.814,21.562 56.81,-56.812 13.22,13.187 -56.438,56.44 24.594,23.186 C 372.707,151.8 428.505,81.8 471.875,0 z m -329.53,125.906 200.56,200.53 c -4.36,4.443 -8.84,8.793 -13.405,13.032 l -200.375,-200.376 13.22,-13.186 z m -76.69,113.28 -28.5,28.532 68.907,68.906 c -26.29,43.673 -63.53,76.414 -106,103.907 l 28.063,28.06 c 27.807,-42.164 61.758,-78.174 104.094,-105.81 l 68.718,68.717 28.53,-28.53 c -20.962,-12.113 -41.08,-25.5 -59.937,-40.313 17.865,-17.83 35.61,-35.433 53.157,-52.97 l -24.843,-25.655 -55.47,55.467 C 137.809,335.26 133.36,330.878 129,326.436 l 55.844,-55.844 -24.53,-25.374 c -18.28,17.856 -36.602,36.06 -55.158,54.594 -15.068,-18.587 -28.38,-38.758 -39.5,-60.625 z"
     id="path6"
     inkscape:connector-curvature="0"
     style="fill:#9b0003" />
</svg>
