<?xml version="1.0" encoding="UTF-8" standalone="no"?>
<svg
   xmlns:dc="http://purl.org/dc/elements/1.1/"
   xmlns:cc="http://creativecommons.org/ns#"
   xmlns:rdf="http://www.w3.org/1999/02/22-rdf-syntax-ns#"
   xmlns:svg="http://www.w3.org/2000/svg"
   xmlns="http://www.w3.org/2000/svg"
   xmlns:sodipodi="http://sodipodi.sourceforge.net/DTD/sodipodi-0.dtd"
   xmlns:inkscape="http://www.inkscape.org/namespaces/inkscape"
   viewBox="0 0 481.749 482"
   id="svg2"
   version="1.1"
   inkscape:version="0.48.4 r9939"
   width="100%"
   height="100%"
   sodipodi:docname="meborack.svg">
  <metadata
     id="metadata12">
    <rdf:RDF>
      <cc:Work
         rdf:about="">
        <dc:format>image/svg+xml</dc:format>
        <dc:type
           rdf:resource="http://purl.org/dc/dcmitype/StillImage" />
      </cc:Work>
    </rdf:RDF>
  </metadata>
  <defs
     id="defs10" />
  <sodipodi:namedview
     pagecolor="#ffffff"
     bordercolor="#666666"
     borderopacity="1"
     objecttolerance="10"
     gridtolerance="10"
     guidetolerance="10"
     inkscape:pageopacity="0"
     inkscape:pageshadow="2"
     inkscape:window-width="722"
     inkscape:window-height="480"
     id="namedview8"
     showgrid="false"
     fit-margin-top="0"
     fit-margin-left="0"
     fit-margin-right="0"
     fit-margin-bottom="0"
     inkscape:zoom="0.4609375"
     inkscape:cx="240"
     inkscape:cy="217.811"
     inkscape:window-x="65"
     inkscape:window-y="24"
     inkscape:window-maximized="0"
     inkscape:current-layer="svg2" />
  <circle
     r="256"
     cy="256"
     cx="256"
     id="circle4"
     sodipodi:cx="256"
     sodipodi:cy="256"
     sodipodi:rx="256"
     sodipodi:ry="256"
     style="opacity:0;fill:#021a7a"
     transform="translate(-16,8.1890009)" />
  <path
     d="m 238.47,30.641501 c 0,0 -4.808,37.12 -49.5,49.499999 -44.695,12.38 -129.281996,0 -129.281996,0 l -14.345,13.186 8.187,9.157 -1.093,2.876 -51.84300046,137.312 -0.5939999999608,1.595 v 1.717 c 0,18.897 8.2529999599608,34.243 20.3440004599608,44 12.09,9.758 27.563,14.31 42.937,14.313 15.376,0.003 30.878,-4.556 42.969996,-14.313 12.092,-9.756 20.344,-25.094 20.344,-44 v -1.843 l -0.688,-1.688 -54.936996,-134.626 c 23.946,-3.003 80.865996,-8.54 115.499996,1.532 23.064,6.71 36.151,20.345 43.436,31.97 l -35.126,190.686 21.407,30.31 c -17.75,7.75 -32.593,24.84 -37.562,51.345 -56.076,6.195 -95.469996,20.74 -95.469996,37.688 H 395.031 c 0,-16.947 -39.392,-31.493 -95.467,-37.688 -4.91,-26.6 -19.57,-44.112 -37.188,-51.906 l 21,-29.75 L 248,139.8275 c 7.457,-11.275 20.388,-24.045 42.47,-30.468 34.955,-10.167 92.615,-4.42 116.155,-1.437 l -50.875,134.75 -0.625,1.594 v 1.717 c 0,18.897 8.253,34.243 20.344,44 12.09,9.758 27.593,14.31 42.967,14.313 15.375,0.003 30.877,-4.556 42.97,-14.313 12.09,-9.756 20.343,-25.094 20.343,-44 v -1.843 l -0.688,-1.688 -56.061,-137.343 -0.938,-2.28 8.782,-8.438 -15.594,-14.25 c 0,0 -84.556,12.38 -129.25,0 C 243.306,67.761501 238.47,30.641501 238.47,30.641501 z M 61.530004,134.2035 105.75,242.5785 H 20.594004 l 40.936,-108.374 z m 355.157996,0 44.218,108.375 H 375.72 l 40.967,-108.374 z"
     id="path6"
     inkscape:connector-curvature="0"
     style="fill:#335c00" />
</svg>
