<?xml version="1.0" encoding="UTF-8" standalone="no"?>
<svg
   xmlns:dc="http://purl.org/dc/elements/1.1/"
   xmlns:cc="http://creativecommons.org/ns#"
   xmlns:rdf="http://www.w3.org/1999/02/22-rdf-syntax-ns#"
   xmlns:svg="http://www.w3.org/2000/svg"
   xmlns="http://www.w3.org/2000/svg"
   xmlns:sodipodi="http://sodipodi.sourceforge.net/DTD/sodipodi-0.dtd"
   xmlns:inkscape="http://www.inkscape.org/namespaces/inkscape"
   viewBox="0 0 476 473.61577"
   id="svg2"
   version="1.1"
   inkscape:version="0.48.4 r9939"
   width="100%"
   height="100%"
   sodipodi:docname="pachad.svg">
  <metadata
     id="metadata12">
    <rdf:RDF>
      <cc:Work
         rdf:about="">
        <dc:format>image/svg+xml</dc:format>
        <dc:type
           rdf:resource="http://purl.org/dc/dcmitype/StillImage" />
      </cc:Work>
    </rdf:RDF>
  </metadata>
  <defs
     id="defs10" />
  <sodipodi:namedview
     pagecolor="#ffffff"
     bordercolor="#666666"
     borderopacity="1"
     objecttolerance="10"
     gridtolerance="10"
     guidetolerance="10"
     inkscape:pageopacity="0"
     inkscape:pageshadow="2"
     inkscape:window-width="640"
     inkscape:window-height="480"
     id="namedview8"
     showgrid="false"
     fit-margin-top="0"
     fit-margin-left="0"
     fit-margin-right="0"
     fit-margin-bottom="0"
     inkscape:zoom="0.4609375"
     inkscape:cx="238"
     inkscape:cy="238.001"
     inkscape:window-x="75"
     inkscape:window-y="34"
     inkscape:window-maximized="0"
     inkscape:current-layer="svg2" />
  <circle
     cx="256"
     cy="256"
     r="256"
     id="circle4"
     sodipodi:cx="256"
     sodipodi:cy="256"
     sodipodi:rx="256"
     sodipodi:ry="256"
     style="opacity:0;fill:#c02c2c"
     transform="translate(-18,-20.385227)" />
  <path
     d="m 339.676,0.00177277 c -2.612,0.01 -5.23,0.105 -7.856,0.29 C 268.506,4.7297728 200.69,58.297773 189.703,130.54477 L 476,142.60677 V 69.270773 c -8.09,-7.792 -16.415,-15.25 -24.953,-22.177 -34.59,-28.067 -72.195,-47.23400023 -111.37,-47.09300023497 z M 107.55,20.426773 c -36.187,0.128 -73.807,14.913 -107.55,46.013 v 81.299997 l 172.107,-18.815 -0.363,-0.054 c 3.872,-26.688 14.327,-50.956997 29.162,-71.741997 -26.973,-24.13 -59.536,-36.82 -93.357,-36.7 z M 217.813,149.94077 c -24.49,-0.258 -109.87,12.136 -109.602,27.078 0.46,25.55 104.433,51.553 94.726,53.018 -98.384,14.848 -152.969,15.005 -185.597,44.778 -38.914,35.507 214.983,80.92 184.422,89.687 -57.204,16.412 -107.82,36.256 -109.002,88.414 -0.17,7.52 0.8,14.385 2.705,20.7 h 54.945 c -15.423,-20.635 -24.05,-40.664 -14.6,-45.912 10.413,15.107 22.492,31.126 36.174,45.912 h 64.286 c -19.474,-9.912 -51.732,-29.408 -50.594,-49.424 1.6,-28.17 66.37,-47.758 69.883,-47.758 0,0 -48.786,26.384 -49.867,49.866 -0.767,16.68 22.317,36.985 35.69,47.316 h 51.976 c -16.454,-12.325 -26.478,-24.92 -20.426,-31.885 15.54,11.066 33.115,22.438 51.826,31.885 h 106.717 c -56.74,-15.988 -102.683,-32.67 -115.225,-53.127 -10.196,-16.63 72.362,-27.836 60.408,-78.902 -5.79,-24.738 -58.24,-41.094 -203.222,-62.626 -25.368,-3.768 134.358,-19.456 129.818,-57.11 -2.65,-21.98 -103.288,-26.85 -114.58,-36.933 -4.746,-4.237 5.863,-29.56 29.137,-34.974 z m -144.388,137.73 c 33.376,-0.145 84.385,22.424 122.8,36.747 l -1.79,11.67 c -28.404,-10.606 -103.905,-37.464 -127.442,-48.077 2.06,-0.22 4.207,-0.332 6.432,-0.34 z m 270.234,53.803 c 0.103,-0.006 0.1,0.077 -0.015,0.253 3.9,12.183 -21.487,44.05 -61.807,42.842 14.153,-7.15 59.732,-43.004 61.822,-43.096 z"
     id="path6"
     inkscape:connector-curvature="0"
     style="fill:#212121" />
</svg>
