<?xml version="1.0" encoding="UTF-8" standalone="no"?>
<svg
   xmlns:dc="http://purl.org/dc/elements/1.1/"
   xmlns:cc="http://creativecommons.org/ns#"
   xmlns:rdf="http://www.w3.org/1999/02/22-rdf-syntax-ns#"
   xmlns:svg="http://www.w3.org/2000/svg"
   xmlns="http://www.w3.org/2000/svg"
   xmlns:sodipodi="http://sodipodi.sourceforge.net/DTD/sodipodi-0.dtd"
   xmlns:inkscape="http://www.inkscape.org/namespaces/inkscape"
   viewBox="0 0 461.33857 470.344"
   id="svg2"
   version="1.1"
   inkscape:version="0.48.4 r9939"
   width="100%"
   height="100%"
   sodipodi:docname="saphir.svg">
  <metadata
     id="metadata12">
    <rdf:RDF>
      <cc:Work
         rdf:about="">
        <dc:format>image/svg+xml</dc:format>
        <dc:type
           rdf:resource="http://purl.org/dc/dcmitype/StillImage" />
      </cc:Work>
    </rdf:RDF>
  </metadata>
  <defs
     id="defs10" />
  <sodipodi:namedview
     pagecolor="#ffffff"
     bordercolor="#666666"
     borderopacity="1"
     objecttolerance="10"
     gridtolerance="10"
     guidetolerance="10"
     inkscape:pageopacity="0"
     inkscape:pageshadow="2"
     inkscape:window-width="1301"
     inkscape:window-height="744"
     id="namedview8"
     showgrid="false"
     fit-margin-top="0"
     fit-margin-left="0"
     fit-margin-right="0"
     fit-margin-bottom="0"
     units="mm"
     inkscape:document-units="mm"
     inkscape:zoom="0.4609375"
     inkscape:cx="177.563"
     inkscape:cy="234.594"
     inkscape:window-x="65"
     inkscape:window-y="24"
     inkscape:window-maximized="1"
     inkscape:current-layer="svg2" />
  <circle
     cx="256"
     cy="256"
     r="256"
     id="circle4"
     sodipodi:cx="256"
     sodipodi:cy="256"
     sodipodi:rx="256"
     sodipodi:ry="256"
     style="opacity:0;fill:#c02c2c"
     transform="translate(-78.437,-20.24998)" />
  <path
     d="M 388.18679,2.8008755e-6 376.71679,4.0000028 59.686789,114.47 l -6.533,2.28 0.406,6.875 18.937,334.595 0.69,12.124 11.468,-4 317.030001,-110.47 6.5,-2.28 -0.374,-6.906 L 388.87279,12.125003 388.18579,2.8008756e-6 z M 356.65379,30.375003 l -43.375,64.75 L 132.52879,158.5 95.748789,133.97 C 169.96879,146.485 292.56879,81.480003 352.87279,31.688003 l 3.78,-1.313 z m 16.032,19.688 15.78,279.124997 -49.313,-32.875 -4.187,-76.47 c 18.567,-45.422 32.45,-114.342 37.72,-169.779997 z m -63.44,67.749997 9.69,176.187 -166.876,58.5 -2.78,-50.47 c 48.082,9.04 83.113,-8.624 104.342,-38.25 -27.814,-3.42 -46.384,-30.984 -43.094,-60.28 3.174,-28.257 24.982,-51.253 51.72,-52.313 1.782,-0.07 3.615,-0.035 5.437,0.094 2.458,0.176 4.837,0.56 7.155,1.095 -1.355,-6.985 -3.194,-13.86 -5.5,-20.563 l 39.906,-14 z m -216.749001,36.437 29.657001,19.78 10.47,190.814 -43.407001,64.812 -0.188,-3.656 c 24.146001,-101.32 36.740001,-217.525 3.47,-271.75 z m 172.095001,22.625 c -13.068,-0.123 -26.546,12.068 -28.5,29.47 -2.017,17.96 8.33,31.076 21.78,32.03 13.452,0.954 27.765,-11.444 29.783,-29.406 2.017,-17.963 -8.363,-31.08 -21.813,-32.032 -0.42,-0.03 -0.828,-0.06 -1.25,-0.063 z m 64.156,134.97 49.283,32.874 -254.938,88.81 c 48.305,-26.555 103.147,-64.172 135.594,-97.124 l 70.06,-24.562 z"
     id="path6"
     inkscape:connector-curvature="0"
     style="fill:#0017c8;fill-opacity:1" />
</svg>
