<?xml version="1.0" encoding="UTF-8" standalone="no"?>
<svg
   xmlns:dc="http://purl.org/dc/elements/1.1/"
   xmlns:cc="http://creativecommons.org/ns#"
   xmlns:rdf="http://www.w3.org/1999/02/22-rdf-syntax-ns#"
   xmlns:svg="http://www.w3.org/2000/svg"
   xmlns="http://www.w3.org/2000/svg"
   xmlns:sodipodi="http://sodipodi.sourceforge.net/DTD/sodipodi-0.dtd"
   xmlns:inkscape="http://www.inkscape.org/namespaces/inkscape"
   viewBox="0 0 474.97 475.313"
   id="svg2"
   version="1.1"
   inkscape:version="0.48.4 r9939"
   width="100%"
   height="100%"
   sodipodi:docname="sohar.svg">
  <metadata
     id="metadata12">
    <rdf:RDF>
      <cc:Work
         rdf:about="">
        <dc:format>image/svg+xml</dc:format>
        <dc:type
           rdf:resource="http://purl.org/dc/dcmitype/StillImage" />
      </cc:Work>
    </rdf:RDF>
  </metadata>
  <defs
     id="defs10" />
  <sodipodi:namedview
     pagecolor="#ffffff"
     bordercolor="#666666"
     borderopacity="1"
     objecttolerance="10"
     gridtolerance="10"
     guidetolerance="10"
     inkscape:pageopacity="0"
     inkscape:pageshadow="2"
     inkscape:window-width="640"
     inkscape:window-height="480"
     id="namedview8"
     showgrid="false"
     fit-margin-top="0"
     fit-margin-left="0"
     fit-margin-right="0"
     fit-margin-bottom="0"
     inkscape:zoom="0.4609375"
     inkscape:cx="240.406"
     inkscape:cy="236.063"
     inkscape:window-x="75"
     inkscape:window-y="34"
     inkscape:window-maximized="0"
     inkscape:current-layer="svg2" />
  <circle
     r="256"
     cy="256"
     cx="256"
     id="circle4"
     sodipodi:cx="256"
     sodipodi:cy="256"
     sodipodi:rx="256"
     sodipodi:ry="256"
     style="opacity:0;fill:#021a7a"
     transform="translate(-15.594,-16.75)" />
  <path
     d="M 294.781,0 73.811,58.97 131.937,109.875 266.969,73.53 269.001,73 294.781,0 z m 17.063,7.844 -27.157,76.812 91.69,91.875 95.624,-8.78 L 311.844,7.844 z m -41.813,12.062 -8.594,33.657 c -0.28,-15.516 -38.03,-17.018 -107.56,-4.376 l 116.155,-29.28 z m 51.063,14.625 123.5,123.407 -58.844,7.563 c 16.2,-21.37 -32.277,-91.112 -64.656,-130.97 z M 59.156,70.97 0,291.655 79,260.185 116.28,121.03 59.156,70.97 z m 207.438,22 -133.032,35.81 -35.72,133.376 97.25,97.53 133.064,-35.81 35.72,-133.376 -97.283,-97.53 z m -201.72,5.686 32.844,30.5 -30.156,118.97 -39.03,15.812 C 79.349,233.395 94.199,133.806 64.875,98.656 z m 195.876,14.78 82.656,83.191 -30.156,113.81 -44.688,11.97 C 388.089,214.535 233.746,84.032 137.062,181.532 l 9.875,-37.405 113.814,-30.688 z m 214.22,72.814 -92.877,8.53 -35.968,134.19 71.342,71.842 57.502,-214.562 z m -17.283,13.875 -29.251,116.155 c 6.73,-68.874 -0.03,-90.85 -30.655,-111.5 l 59.906,-4.655 z m -371.155,77.188 -81.906,32.625 161.75,161.468 17.31,-96.72 -97.155,-97.373 z m 0.094,20 78.124,82.437 -7.438,61.375 c -5.23,-44.565 -28.34,-85.92 -70.687,-143.813 z M 332.75,342 202.22,377.125 184.656,475.313 406.344,416.156 332.75,342 z m 18.625,42.5 24.28,24.844 -115.22,32.72 c 61.28,-26.446 83.34,-37.418 90.94,-57.564 z"
     id="path6"
     inkscape:connector-curvature="0"
     style="fill:#00149e" />
</svg>
