<?xml version="1.0" encoding="UTF-8" standalone="no"?>
<svg
   xmlns:dc="http://purl.org/dc/elements/1.1/"
   xmlns:cc="http://creativecommons.org/ns#"
   xmlns:rdf="http://www.w3.org/1999/02/22-rdf-syntax-ns#"
   xmlns:svg="http://www.w3.org/2000/svg"
   xmlns="http://www.w3.org/2000/svg"
   xmlns:sodipodi="http://sodipodi.sourceforge.net/DTD/sodipodi-0.dtd"
   xmlns:inkscape="http://www.inkscape.org/namespaces/inkscape"
   version="1.1"
   x="0px"
   y="0px"
   viewBox="0 0 84.666 84.527"
   enable-background="new 0 0 90 90"
   xml:space="preserve"
   id="svg2"
   inkscape:version="0.48.4 r9939"
   width="100%"
   height="100%"
   sodipodi:docname="alchimi.svg"
   style="fill:#000000"><metadata
     id="metadata10"><rdf:RDF><cc:Work
         rdf:about=""><dc:format>image/svg+xml</dc:format><dc:type
           rdf:resource="http://purl.org/dc/dcmitype/StillImage" /></cc:Work></rdf:RDF></metadata><defs
     id="defs8" /><sodipodi:namedview
     pagecolor="#ffffff"
     bordercolor="#666666"
     borderopacity="1"
     objecttolerance="10"
     gridtolerance="10"
     guidetolerance="10"
     inkscape:pageopacity="0"
     inkscape:pageshadow="2"
     inkscape:window-width="640"
     inkscape:window-height="480"
     id="namedview6"
     showgrid="false"
     fit-margin-top="0"
     fit-margin-left="0"
     fit-margin-right="0"
     fit-margin-bottom="0"
     inkscape:zoom="2.6222222"
     inkscape:cx="42.333"
     inkscape:cy="42.133"
     inkscape:window-x="65"
     inkscape:window-y="24"
     inkscape:window-maximized="0"
     inkscape:current-layer="svg2" /><path
     d="M 78.997,63.416 C 82.595,57.194 84.666,50.034 84.666,42.344 84.666,19.011 65.691,0.052 42.361,0.036 L 42.333,0 42.305,0.055 C 18.975,0.07 0,19.057 0,42.391 0,50.081 2.071,57.193 5.67,63.415 L 5.625,63.394 h 0.09 c 7.335,13 20.997,21.133 36.618,21.133 15.621,0 29.283,-8.133 36.619,-21.133 h 0.09 l -0.045,0.022 z m 1.669,-21.022 c 0,6.125 -1.452,11.914 -4.017,17.055 L 44.717,4.142 c 20.03,1.236 35.949,17.916 35.949,38.252 z m -25.93,-13 H 29.931 L 42.333,7.913 54.736,29.394 z m 0.597,11.383 c -2,-3.23 -3.973,-5.383 -7.176,-7.383 h 7.176 v 7.383 z m -26,11.233 c 1,3.38 4.21,6.384 7.621,7.384 H 29.333 V 52.01 z m 2.834,-5.616 c 0,-5.606 4.561,-10.167 10.167,-10.167 5.606,0 10.167,4.561 10.167,10.167 0,5.606 -4.561,10.167 -10.167,10.167 -5.607,0 -10.167,-4.561 -10.167,-10.167 z m 23.166,5.617 v 7.383 h -7.621 c 3.411,-1 5.621,-4.004 7.621,-7.383 z m -26,-11.233 v -7.384 h 7.177 c -3.203,2 -6.177,4.154 -7.177,7.384 z m -4,18.616 H 12.552 L 25.333,37.457 v 21.937 z m 34,-21.937 12.781,21.937 H 59.333 V 37.457 z M 4,42.394 C 4,22.058 19.919,5.378 39.949,4.142 L 8.017,59.45 C 5.452,54.309 4,48.519 4,42.394 z m 38.333,38.133 c -13.303,0 -25.04,-6.133 -31.917,-17.133 H 74.25 c -6.877,11 -18.614,17.133 -31.917,17.133 z"
     id="path4"
     inkscape:connector-curvature="0" /></svg>