<?xml version="1.0" encoding="UTF-8" standalone="no"?>
<!-- Created with Inkscape (http://www.inkscape.org/) -->

<svg
   xmlns:dc="http://purl.org/dc/elements/1.1/"
   xmlns:cc="http://creativecommons.org/ns#"
   xmlns:rdf="http://www.w3.org/1999/02/22-rdf-syntax-ns#"
   xmlns:svg="http://www.w3.org/2000/svg"
   xmlns="http://www.w3.org/2000/svg"
   xmlns:sodipodi="http://sodipodi.sourceforge.net/DTD/sodipodi-0.dtd"
   xmlns:inkscape="http://www.inkscape.org/namespaces/inkscape"
   width="41.999302"
   height="36.655682"
   id="svg3707"
   version="1.1"
   inkscape:version="0.48.4 r9939"
   sodipodi:docname="ambre.svg">
  <defs
     id="defs3709" />
  <sodipodi:namedview
     id="base"
     pagecolor="#ffffff"
     bordercolor="#666666"
     borderopacity="1.0"
     inkscape:pageopacity="0.0"
     inkscape:pageshadow="2"
     inkscape:zoom="3.2581913"
     inkscape:cx="-25.308049"
     inkscape:cy="-12.406751"
     inkscape:document-units="px"
     inkscape:current-layer="layer1"
     showgrid="false"
     fit-margin-top="0"
     fit-margin-left="0"
     fit-margin-right="0"
     fit-margin-bottom="0"
     inkscape:window-width="1301"
     inkscape:window-height="744"
     inkscape:window-x="65"
     inkscape:window-y="24"
     inkscape:window-maximized="1" />
  <metadata
     id="metadata3712">
    <rdf:RDF>
      <cc:Work
         rdf:about="">
        <dc:format>image/svg+xml</dc:format>
        <dc:type
           rdf:resource="http://purl.org/dc/dcmitype/StillImage" />
        <dc:title />
      </cc:Work>
    </rdf:RDF>
  </metadata>
  <g
     inkscape:label="Calque 1"
     inkscape:groupmode="layer"
     id="layer1"
     transform="translate(-351.04759,-507.85325)">
    <g
       style="fill:#658f01;fill-opacity:1;display:inline"
       id="g3020"
       transform="matrix(0.46665889,0,0,0.46665889,351.04759,507.9009)">
      <path
         style="fill:#658f01;fill-opacity:1"
         inkscape:connector-curvature="0"
         id="path4-5"
         d="m 90,34.709994 c 0,-4.602 -8.104,-8.644 -20.366,-10.992 2.133,-5.069 4.389,-10.365 5.749,-13.344 3.771,-8.2720002 -6.079,-14.7880002 -11.193,-6.6180002 -2.37,3.785 -7.3,11.1670002 -11.906,17.9900002 -2.37,-0.11 -4.802,-0.172 -7.282,-0.172 -24.855,0.001 -45.002,5.881 -45.002,13.136 0,15.674 10.451,29.208 25.584,35.556 v 3.951 c 0,2.281 8.695,4.128 19.417,4.128 10.722,0 19.417,-1.847 19.417,-4.128 v -3.951 C 79.549,63.917994 90,50.383994 90,34.709994 z m -84.249,10.669 c 9.513,4.296 24.723,6.322 39.25,6.322 v 18.553 c -18.387,0 -33.994,-10.471 -39.25,-24.875 z m 39.25,-3.261 c -16.778,0 -30.381,-3.317 -30.381,-7.408 0,-4.093 13.603,-7.408 30.381,-7.408 1.183,0 2.344,0.02 3.49,0.053 -3.643,5.371 -6.416,9.428 -6.416,9.428 h 22.114 c 0,0 1.251,-3.037 2.959,-7.134 5.094,1.324 8.234,3.101 8.234,5.061 10e-4,4.091 -13.605,7.408 -30.381,7.408 z" />
    </g>
  </g>
</svg>
