<?xml version="1.0" encoding="UTF-8" standalone="no"?>
<!-- Created with Inkscape (http://www.inkscape.org/) -->

<svg
   xmlns:dc="http://purl.org/dc/elements/1.1/"
   xmlns:cc="http://creativecommons.org/ns#"
   xmlns:rdf="http://www.w3.org/1999/02/22-rdf-syntax-ns#"
   xmlns:svg="http://www.w3.org/2000/svg"
   xmlns="http://www.w3.org/2000/svg"
   xmlns:sodipodi="http://sodipodi.sourceforge.net/DTD/sodipodi-0.dtd"
   xmlns:inkscape="http://www.inkscape.org/namespaces/inkscape"
   width="114.01239"
   height="109.33076"
   id="svg4179"
   version="1.1"
   inkscape:version="0.48.4 r9939"
   sodipodi:docname="feu.svg">
  <defs
     id="defs4181" />
  <sodipodi:namedview
     id="base"
     pagecolor="#ffffff"
     bordercolor="#666666"
     borderopacity="1.0"
     inkscape:pageopacity="0.0"
     inkscape:pageshadow="2"
     inkscape:zoom="1.5"
     inkscape:cx="-87.882949"
     inkscape:cy="17.664105"
     inkscape:document-units="mm"
     inkscape:current-layer="layer1"
     showgrid="false"
     fit-margin-top="0"
     fit-margin-left="0"
     fit-margin-right="0"
     fit-margin-bottom="0"
     inkscape:window-width="1301"
     inkscape:window-height="744"
     inkscape:window-x="65"
     inkscape:window-y="24"
     inkscape:window-maximized="1"
     units="mm" />
  <metadata
     id="metadata4184">
    <rdf:RDF>
      <cc:Work
         rdf:about="">
        <dc:format>image/svg+xml</dc:format>
        <dc:type
           rdf:resource="http://purl.org/dc/dcmitype/StillImage" />
        <dc:title />
      </cc:Work>
    </rdf:RDF>
  </metadata>
  <g
     inkscape:label="Calque 1"
     inkscape:groupmode="layer"
     id="layer1"
     transform="translate(-355.88296,-440.69551)">
    <g
       style="display:inline"
       id="g3200"
       transform="matrix(0.47200747,0,0,0.47200747,160.50267,203.17259)">
      <path
         style="fill:#c48c62"
         d="m 585.61386,734.54624 c -3.06839,-1.20413 -5,-3.72179 -5,-6.51698 l 0,-2.87933 -6.75,0.17719 c -3.7125,0.0975 -9.675,0.86909 -13.25,1.71473 -15.11949,3.57644 -49.48738,0.33809 -60.82878,-5.73165 -3.38034,-1.8091 -3.94504,0.87962 -0.72414,3.44787 3.06919,2.44729 2.08156,4.06098 -1.87733,3.06736 -2.31016,-0.57981 -5.25465,-5.68965 -4.23205,-7.34425 1.35906,-2.19901 -4.43453,-5.26261 -9.95214,-5.26261 -3.06814,0 -3.4386,-0.25754 -2.884,-2.00493 0.42733,-1.34637 0.10683,-2.20812 -0.97574,-2.62353 -2.23424,-0.85736 -3.06514,0.27369 -1.54588,2.10429 1.45627,1.75469 0.70157,1.95927 -1.9644,0.53249 -1.01914,-0.54543 -2.14896,-2.33929 -2.51072,-3.98635 -0.66785,-3.04073 -5.09066,-7.02197 -7.80078,-7.02197 -0.81797,0 -1.74653,-1.0125 -2.06345,-2.25 -0.31693,-1.2375 -3.18372,-5.175 -6.37065,-8.75 -6.36972,-7.14534 -8.85953,-11.237 -7.84083,-12.8853 0.41368,-0.66935 -0.86454,-1.3206 -3.38205,-1.72317 -3.59132,-0.57427 -4.04706,-0.9568 -4.04706,-3.39689 0,-1.51236 -0.65198,-3.29085 -1.44885,-3.95219 -0.79686,-0.66134 -1.97464,-2.85394 -2.61727,-4.87244 -0.64263,-2.01851 -2.61758,-7.04501 -4.38876,-11.17001 -4.98844,-11.61783 -8.39723,-32.34193 -6.6011,-40.13209 0.5539,-2.40235 1.01809,-6.35015 1.03153,-8.7729 0.0236,-4.25042 -0.0416,-4.34521 -1.85796,-2.70143 -1.3059,1.18182 -2.70282,1.49764 -4.56125,1.03121 -2.19153,-0.55004 -2.77987,-0.28601 -3.23422,1.45143 -0.6572,2.51314 -2.84684,2.80473 -3.73238,0.49703 -1.13833,-2.96641 1.42097,-4.64363 6.10593,-4.00149 3.96649,0.54367 4.25639,0.42673 4.03877,-1.62918 -0.15716,-1.48483 0.52151,-2.54907 2.05897,-3.22874 1.74503,-0.77141 2.15583,-1.56418 1.718,-3.31543 -0.36619,-1.46475 0.12235,-3.18865 1.34367,-4.7413 1.05549,-1.34184 2.22734,-4.08292 2.60411,-6.09129 0.89345,-4.76247 9.01212,-19.97152 12.85128,-24.07484 2.55722,-2.73318 2.80758,-3.44381 1.68836,-4.79239 -0.94867,-1.14308 -1.01087,-1.88655 -0.22367,-2.67375 1.56769,-1.56769 4.32523,-0.25003 3.57396,1.70776 -0.52375,1.36487 -0.0671,1.50512 3.01685,0.92656 1.99872,-0.37496 3.63329,-0.29416 3.63238,0.17955 -9e-4,0.47371 -1.78402,3.33629 -3.96248,6.36129 -5.93119,8.23603 -11.03587,17.41759 -11.03587,19.84972 0,1.18664 -0.9,3.83673 -2,5.8891 -1.1,2.05236 -2.00023,5.08823 -2.0005,6.74637 -2.8e-4,1.65815 -0.90028,5.38214 -2,8.27554 -1.45314,3.82324 -1.99477,7.64871 -1.98217,14 0.0326,16.42585 1.68168,26.88266 6.09118,38.62354 2.82965,7.53431 3.91138,11.76628 3.51464,13.75 -0.31523,1.57615 -0.35381,2.86573 -0.0857,2.86573 0.26808,0 2.00703,-2.3625 3.86434,-5.25 1.8573,-2.8875 4.55171,-6.25952 5.98758,-7.49339 1.87073,-1.60755 2.61066,-3.2155 2.61066,-5.67327 0,-2.20514 0.89815,-4.49728 2.51526,-6.41911 1.3834,-1.64407 3.69695,-5.6161 5.14123,-8.82672 1.44429,-3.21063 3.20157,-6.51251 3.90508,-7.33751 0.70351,-0.825 3.9349,-6.675 7.18086,-13 3.24596,-6.325 8.6818,-16.15436 12.07966,-21.84303 3.39785,-5.68867 6.17791,-10.50007 6.17791,-10.69201 0,-0.19194 2.41365,-4.31257 5.36367,-9.15697 2.95001,-4.84439 6.98881,-12.03701 8.9751,-15.98358 1.98629,-3.94658 4.05893,-7.45217 4.60587,-7.79019 1.31012,-0.80971 9.65899,-16.32933 10.50854,-19.53422 0.54918,-2.07174 -0.0273,-1.72912 -3.3654,2 -2.21545,2.475 -4.04023,4.95 -4.05506,5.5 -0.0776,2.87674 -5.5059,13.40233 -7.38395,14.31756 -1.18182,0.57595 -3.74961,1.76277 -5.7062,2.63737 -3.70801,1.6575 -17.86841,14.59762 -19.70149,18.00369 -0.64245,1.19375 -2.12913,1.97479 -3.80693,2 -2.18931,0.0329 -3.35465,1.01861 -5.6926,4.81506 -2.89733,4.70478 -2.91668,4.83136 -1.34066,8.77023 1.96357,4.90744 2.05008,4.12019 -0.81972,7.45998 -3.2896,3.82835 -4.49138,9.17463 -3.48847,15.51897 0.60555,3.83072 0.46134,5.93885 -0.53853,7.87238 -0.75105,1.45237 -1.14541,3.79224 -0.87635,5.19971 0.35191,1.84092 -0.79702,4.67758 -4.09432,10.10868 -2.52092,4.15231 -4.5835,8.01478 -4.5835,8.58327 0,2.21646 -5.45798,9.27155 -6.95037,8.98418 -2.46205,-0.4741 -4.39597,-7.61181 -3.16627,-11.68608 1.17046,-3.87799 0.75688,-5.085 -1.74238,-5.085 -2.12649,0 -4.14098,-1.88328 -4.14098,-3.87126 0,-0.80919 -0.72617,-2.27367 -1.61372,-3.2544 -1.26697,-1.39998 -1.39931,-2.39819 -0.61591,-4.64546 0.70851,-2.03244 0.63271,-3.92431 -0.26143,-6.52521 -1.03094,-2.99881 -1.01589,-3.98386 0.083,-5.43328 0.73825,-0.97371 2.27041,-4.69539 3.40482,-8.27039 1.1344,-3.575 2.76149,-8.61554 3.61576,-11.20119 0.85426,-2.58566 1.28815,-5.53632 0.96419,-6.55703 -0.61932,-1.95128 3.29178,-6.37438 6.69594,-7.57251 1.96207,-0.69056 1.84674,-0.4229 4.31389,-10.01216 1.5965,-6.20524 2.44327,-7.55041 9.08699,-14.43551 4.02954,-4.17595 7.32644,-7.92882 7.32644,-8.33972 0,-0.41091 1.0125,-1.06718 2.25,-1.45838 1.2375,-0.3912 3.62477,-1.75802 5.30505,-3.03738 1.68028,-1.27936 5.28028,-3.30703 8,-4.50593 2.71972,-1.19889 6.29495,-3.20236 7.94495,-4.45214 3.2234,-2.44155 7.91751,-3.99829 10.75594,-3.56708 0.96577,0.14672 3.01821,-0.63206 4.56099,-1.73062 4.25397,-3.02908 7.93858,-3.66159 10.07377,-1.72926 1.70142,1.53976 1.96923,1.40853 4.45971,-2.18523 1.45727,-2.10285 2.64959,-4.22212 2.64959,-4.7095 0,-1.46509 8.16255,-14.50636 9.07955,-14.50636 0.46754,0 1.32637,0.88996 1.90851,1.97768 0.88407,1.65191 1.75468,1.88406 5.28518,1.40932 3.4743,-0.46719 4.90041,-0.10842 8.01084,2.0153 2.95615,2.01839 3.90102,2.2789 4.31861,1.19069 0.31569,-0.82268 1.96428,-1.39299 4.02669,-1.39299 1.92068,0 4.29198,-0.72384 5.26956,-1.60854 1.64702,-1.49054 2.06437,-1.39778 5.68924,1.26447 2.1515,1.58015 5.00276,4.05899 6.33613,5.50854 1.33338,1.44954 3.04253,2.63553 3.79812,2.63553 0.75559,0 5.54295,2.19419 10.63858,4.87598 8.7104,4.5842 9.42558,4.79173 11.95189,3.46806 1.71246,-0.89725 2.6871,-2.23057 2.6871,-3.67598 0,-2.72875 1.74485,-4.66806 4.2,-4.66806 2.19149,0 2.32355,1.3206 0.3,3 -0.825,0.68469 -1.5,2.25969 -1.5,3.5 0,1.24031 -0.675,2.81531 -1.5,3.5 -0.825,0.68469 -1.5,1.57665 -1.5,1.98213 0,0.40548 4.36705,5.18788 9.70455,10.62756 5.3375,5.43967 11.60406,12.81531 13.92567,16.39031 2.32162,3.575 5.37957,7.64194 6.79545,9.03765 1.78373,1.75832 2.57433,3.60342 2.57433,6.00796 0,1.90867 1.125,5.58361 2.5,8.16654 1.375,2.58293 2.5,5.75185 2.5,7.04204 0,1.2902 0.5625,2.90781 1.25,3.59469 1.91564,1.91393 3.51686,12.67731 2.9872,20.07996 -0.43338,6.05715 -0.24654,6.90661 2.14402,9.74763 3.13694,3.72804 3.25726,4.91146 0.6417,6.31126 -3.33543,1.78507 -4.16639,4.42466 -2.58464,8.2103 1.36349,3.2633 1.28092,3.58482 -2.41222,9.39344 -2.90097,4.56268 -3.69355,6.69714 -3.28343,8.84251 0.38084,1.99226 0.0555,3.09951 -1.10101,3.7467 -0.90289,0.50529 -1.64162,1.76978 -1.64162,2.80999 0,1.04021 -0.40939,2.14431 -0.90976,2.45356 -2.52204,1.5587 -6.59934,-3.26485 -5.5512,-6.56722 0.51645,-1.62721 1.18713,-1.87643 3.61486,-1.34321 2.88242,0.63309 2.9373,0.578 1.66343,-1.66959 -0.72453,-1.27834 -1.94858,-2.82749 -2.72011,-3.44253 -1.60307,-1.27795 -0.68723,-3.42168 1.4618,-3.42168 1.94531,0 1.81422,-1.25309 -0.55035,-5.26073 l -1.99133,-3.37505 3.11383,-4.91 c 2.47782,-3.90712 3.12699,-6.0379 3.17828,-10.43211 0.10007,-8.5738 -0.5295,-17.41956 -1.31827,-18.52211 -1.53788,-2.14966 -2.85706,-8.48267 -3.31024,-15.89149 -0.19643,-3.21123 -0.99901,-4.54689 -4.59127,-7.64077 -4.00681,-3.45091 -4.30109,-4.02726 -3.69791,-7.24248 0.67965,-3.62285 -0.32725,-4.74571 -4.22355,-4.70995 -4.1585,0.0382 -4.44278,1.52502 -1.35696,7.09701 2.93962,5.30798 7.42256,17.12049 10.58359,27.88768 2.33761,7.96239 0.83172,30.17344 -2.25501,33.26017 -0.6269,0.6269 -1.13983,3.26303 -1.13983,5.85804 0,5.65832 -0.73544,7.88179 -2.60699,7.88179 -1.84881,0 -1.75645,1.0417 0.35699,4.02654 3.91751,5.53278 10.29221,17.51417 10.03023,18.85206 -0.15642,0.79884 -1.60564,1.52459 -3.28023,1.6427 -19.06651,1.34473 -21.66842,1.79123 -22.63592,3.8844 -2.3915,5.17397 -4.11184,7.60027 -7.12674,10.0513 -7.98629,6.49263 -12.53164,9.67232 -16.37717,11.45663 -2.27691,1.05647 -4.4606,2.43984 -4.85263,3.07417 -0.45275,0.73257 -2.06667,0.92458 -4.42394,0.52632 -3.30669,-0.55866 -3.83918,-0.34599 -4.88592,1.95137 -0.9712,2.13155 -1.62819,2.46456 -3.79121,1.92168 -2.08815,-0.52409 -3.05243,-0.1099 -4.77578,2.05139 -1.77577,2.22703 -3.56626,2.95239 -10.07969,4.08347 -6.28605,1.0916 -22.37009,1.90713 -30.301,1.5364 -0.6875,-0.0321 -1.25,-0.86843 -1.25,-1.85843 0,-3.19585 -2.17398,-4.2 -9.09301,-4.2 -7.35492,0 -7.90699,0.45394 -7.90699,6.50142 0,3.13037 0.32634,3.45022 5.25,5.14574 7.14401,2.46013 40.37914,2.73126 43.24959,0.35284 1.04233,-0.86367 3.82714,-1.50541 6.56447,-1.51276 3.09664,-0.008 5.42344,-0.61845 6.67379,-1.75 1.0558,-0.95548 3.02189,-1.73724 4.3691,-1.73724 5.3569,0 25.83783,-11.50528 31.51635,-17.70449 3.22011,-3.51539 12.96022,-7.11199 14.65919,-5.41302 0.96715,0.96715 -6.4654,8.30296 -14.28249,14.09661 -3.025,2.24198 -6.32503,5.18886 -7.33341,6.54862 -1.00837,1.35975 -2.8231,2.47228 -4.03272,2.47228 -1.20963,0 -5.2847,1.63834 -9.05571,3.64076 l -6.8564,3.64076 2.28212,1.72141 c 1.76492,1.33128 2.13336,2.31414 1.6257,4.33682 -0.55092,2.19502 -0.2674,2.71305 1.76385,3.22286 3.10843,0.78017 6.95362,-1.21584 6.18764,-3.21195 -0.39619,-1.03244 -0.0329,-1.39334 1.17244,-1.16476 2.18962,0.41523 2.85554,5.06375 0.95174,6.64376 -1.728,1.43411 -6.69156,2.28825 -8.70525,1.49801 z m -79,-25.32767 0,-6 -5.80883,0 c -6.94896,0 -12.71944,-3.09768 -25.26853,-13.56452 -7.87166,-6.56553 -10.49968,-9.69279 -9.502,-11.30707 0.28222,-0.45664 7.58087,-0.87255 16.21923,-0.92424 13.38728,-0.0801 16.08658,0.16344 18.28312,1.64967 1.41736,0.95902 3.81451,2.27458 5.32701,2.92348 1.5125,0.64889 2.75,1.7562 2.75,2.46069 0,0.7045 0.91638,1.85319 2.0364,2.55265 1.68361,1.05143 2.41514,1.00648 4.22251,-0.25945 3.1042,-2.17427 4.4769,-1.91352 6.08513,1.15589 l 1.40791,2.68709 13.37402,-0.1559 c 8.52601,-0.0994 15.549,-0.72951 19.37403,-1.73829 3.3,-0.87031 8.025,-2.05794 10.5,-2.63916 2.475,-0.58123 5.4,-1.85584 6.5,-2.83248 1.1,-0.97663 4.18899,-3.11966 6.86443,-4.76229 2.67544,-1.64262 4.47544,-3.22408 4,-3.51435 -1.58145,-0.96553 -7.77767,-1.14078 -15.36443,-0.43457 -4.125,0.38398 -31.125,0.87704 -60,1.0957 -28.875,0.21865 -53.26024,0.70739 -54.18942,1.08609 -1.43436,0.58459 -1.18611,1.13045 1.6443,3.61559 1.83354,1.60987 3.61486,4.04719 3.95847,5.41626 0.34361,1.36906 1.03156,2.48921 1.52878,2.48921 0.49721,0 2.22294,1.31892 3.83495,2.93093 2.02978,2.02977 4.12882,3.02903 6.82693,3.25 3.45186,0.2827 4.0231,0.71235 5.01106,3.76901 1.71234,5.29788 11.09891,11.05006 18.0318,11.05006 2.67769,0 3.59831,0.51468 4.32109,2.41574 0.88149,2.31848 2.51136,3.21831 6.28204,3.46826 1.48511,0.0984 1.75,-0.79219 1.75,-5.884 z m 91.5,-34 c -0.33992,-0.55 -2.72898,-0.93614 -5.30902,-0.85809 l -4.69098,0.1419 4,0.71619 c 6.05502,1.08414 6.67003,1.08414 6,0 z m 10.75,-0.66228 c -0.6875,-0.27741 -1.8125,-0.27741 -2.5,0 -0.6875,0.27741 -0.125,0.50439 1.25,0.50439 1.375,0 1.9375,-0.22698 1.25,-0.50439 z m -52.25,-16.92571 c 26.675,-0.21809 49.5125,-0.63358 50.75,-0.92332 3.11711,-0.72981 2.83293,-2.41962 -1.45071,-8.62648 -4.10113,-5.9424 -8.29929,-14.12841 -8.29929,-16.18282 0,-0.73173 -2.3625,-4.48184 -5.25,-8.33359 -2.8875,-3.85174 -6.375,-8.89129 -7.75,-11.19899 -1.375,-2.3077 -5.15225,-8.3473 -8.39389,-13.42132 -3.24165,-5.07402 -6.88556,-11.02549 -8.09758,-13.22549 -2.22104,-4.03152 -7.40566,-13.13152 -11.04165,-19.38022 -2.07978,-3.57425 -6.64984,-10.8578 -12.78101,-20.36978 -2.03847,-3.1625 -4.11714,-5.75 -4.61929,-5.75 -1.72415,0 -18.06658,26.43931 -18.06658,29.22869 0,0.75886 -1.43588,3.60535 -3.19085,6.32553 -1.75496,2.72018 -5.28649,8.77078 -7.84783,13.44578 -9.60877,17.53805 -18.12253,32 -18.83843,32 -2.19397,0 -4.21451,3.10493 -5.10363,7.84266 -0.55145,2.93846 -2.35638,7.34852 -4.01095,9.80013 -1.65457,2.45161 -3.01646,4.99741 -3.02643,5.65734 -0.01,0.65993 -1.35996,3.63427 -3,6.60964 -1.64003,2.97537 -2.98188,5.75936 -2.98188,6.18664 0,1.19267 5.20873,1.46505 20.5,1.07199 7.7,-0.19792 35.825,-0.5383 62.5,-0.75639 z m 68.25088,-16.63784 c -0.56877,-0.7008 -1.56317,-3.85382 -2.20978,-7.00673 -1.28027,-6.24265 -1.88898,-7.09753 -4.08663,-5.7393 -1.24251,0.76791 -1.1748,1.43829 0.47312,4.68402 2.7058,5.32933 5.95158,10.242 6.4425,9.75108 0.2282,-0.2282 -0.0504,-0.98828 -0.61921,-1.68907 z m -12.00757,-25.52417 c 0.25417,-2.0625 0.0784,-4.79179 -0.39059,-6.0651 -0.469,-1.2733 -0.85272,-3.61892 -0.85272,-5.21249 0,-2.97605 -2.47184,-10.64914 -6.27293,-19.47241 -2.85454,-6.62608 -7.28641,-12.29443 -9.91769,-12.68468 -1.31827,-0.19552 -3.1107,-2.07613 -4.7177,-4.9498 -1.42543,-2.54897 -4.16668,-5.94367 -6.09168,-7.54377 -4.38492,-3.64486 -12.67332,-7.98177 -13.55987,-7.09521 -0.6341,0.6341 0.23054,2.18579 8.6681,15.55589 1.98453,3.14466 4.90953,7.93784 6.5,10.65151 1.59047,2.71366 5.21192,8.78866 8.04766,13.5 2.83574,4.71133 7.05439,11.94106 9.37478,16.06606 4.34406,7.72252 6.73212,11 8.01491,11 0.40459,0 0.94356,-1.6875 1.19773,-3.75 z m 12.50669,-52.99517 c 1.2375,-0.26839 2.25,-1.0024 2.25,-1.63113 0,-0.62873 -3.2625,-4.83505 -7.25,-9.34737 -7.40115,-8.37527 -20.04646,-19.06686 -27.51688,-23.26547 -2.28933,-1.28667 -5.50433,-4.00923 -7.14444,-6.05013 -1.93066,-2.40246 -3.81943,-3.71073 -5.35721,-3.71073 -2.36065,0 -9.97699,-4.22021 -11.20643,-6.20948 -1.24088,-2.0078 -2.52504,-1.01127 -2.52504,1.95948 0,3.85052 -3.21534,4.12717 -5.60365,0.48215 -1.42902,-2.18095 -1.80006,-2.31248 -2.77306,-0.98301 -0.92054,1.25781 -2.02562,1.36618 -6.1225,0.6004 -2.74957,-0.51395 -5.08964,-0.84402 -5.20016,-0.7335 -0.11052,0.11051 0.33913,1.13735 0.99921,2.28185 0.66009,1.1445 2.24389,3.98522 3.51957,6.31272 2.10464,3.83997 2.4384,4.06908 3.60451,2.47432 1.12649,-1.54056 1.88935,-1.62337 6.18059,-0.67092 14.56203,3.23207 23.32891,7.86094 26.24113,13.85517 2.47073,5.08551 6.32852,7.47799 8.98202,5.57035 0.91979,-0.66124 2.2516,-1.47897 2.95959,-1.81718 1.84985,-0.88367 5.21275,2.52431 5.21275,5.28264 0,1.28975 0.38274,2.34501 0.85052,2.34501 0.46779,0 2.19622,2.16476 3.84095,4.81058 1.86725,3.00378 4.36473,5.46274 6.64948,6.54692 2.01248,0.95498 3.65905,2.21337 3.65905,2.79641 0,0.62314 0.72129,0.75689 1.75,0.32448 0.9625,-0.40457 2.7625,-0.95517 4,-1.22356 z m -56.75,-15.55483 c 0,-0.715 -0.41808,-1.7275 -0.92908,-2.25 -0.51099,-0.5225 -2.42349,-3.82671 -4.25,-7.34268 -1.8265,-3.51597 -4.35896,-7.07531 -5.62767,-7.90965 l -2.30676,-1.51698 2.58553,4.86271 c 1.42204,2.67449 3.20276,5.55883 3.95717,6.40965 0.7544,0.85082 2.06849,3.23445 2.9202,5.29695 1.50347,3.64082 3.65061,5.08181 3.65061,2.45 z M 458.21675,710.38505 c -0.31922,-0.51651 0.34024,-1.17985 1.46546,-1.4741 1.24579,-0.32578 1.90132,-0.10139 1.67625,0.57381 -0.50142,1.50426 -2.42734,2.05616 -3.14171,0.90029 z m 159.84326,-23.25361 c -0.36954,-0.59793 -0.21941,-1.53961 0.33362,-2.09264 1.13697,-1.13697 5.22023,0.59557 5.22023,2.21495 0,1.32624 -4.72288,1.22223 -5.55385,-0.12231 z m 6.12186,-4.49791 c -0.86448,-3.44436 0.17382,-6.41177 2.24938,-6.42861 0.92543,-0.008 2.69432,-0.28479 3.93084,-0.61617 2.08103,-0.55771 2.20306,-0.35217 1.64075,2.76365 -0.61798,3.4243 -3.57119,6.86617 -5.89136,6.86617 -0.70444,0 -1.57277,-1.16327 -1.92961,-2.58504 z m 25.08998,-32.0903 c -0.36189,-0.3619 -0.65799,-1.25799 -0.65799,-1.99133 0,-1.4897 2.57786,-1.82538 3.42997,-0.44664 0.68055,1.10115 -1.86765,3.3423 -2.77198,2.43797 z M 458.61386,548.3352 c 0,-1.04236 -0.89309,-2.11691 -2,-2.40638 -3.29578,-0.86187 -2.28481,-2.44003 2.75,-4.29283 5.82461,-2.14345 6.68443,-2.86532 6.72114,-5.64286 0.0202,-1.53109 2.26896,-3.87243 7.52886,-7.83896 6.29843,-4.7497 7.5,-6.1188 7.5,-8.54571 l 0,-2.88989 6.21164,0.28629 c 5.08847,0.23452 7.16786,-0.19293 11.5,-2.364 2.9086,-1.45766 5.98265,-3.25938 6.83124,-4.00383 0.84858,-0.74445 3.54858,-1.31854 6,-1.27574 2.45141,0.0428 7.6584,-0.2529 11.57108,-0.65709 4.64435,-0.47978 7.33806,-0.37228 7.75952,0.30966 1.00708,1.62949 -4.29626,5.20226 -7.75834,5.22667 -1.71333,0.0121 -5.07678,0.91208 -7.47434,2 -2.39757,1.08792 -5.46465,1.97804 -6.81575,1.97804 -2.69059,0 -6.40508,1.67045 -7.55974,3.3997 -0.40408,0.60517 -0.74158,2.3378 -0.75,3.8503 -0.018,3.23969 -1.28986,3.4658 -4.64588,0.82595 l -2.44604,-1.92405 -6.04427,3.41643 c -3.32435,1.87903 -7.1928,4.31985 -8.59656,5.42405 -1.40375,1.10419 -3.36127,2.00762 -4.35003,2.00762 -0.98877,0 -2.08475,0.90425 -2.43553,2.00944 -0.35077,1.10519 -2.40592,3.43036 -4.567,5.16705 -2.16107,1.73669 -3.72023,3.36661 -3.4648,3.62205 0.25544,0.25543 0.0144,1.30526 -0.53557,2.33294 -1.3301,2.48532 -4.92963,2.47448 -4.92963,-0.0149 z m 27.74986,-30.7001 c -0.95295,-0.95296 -2.86349,0.5906 -2.1533,1.7397 0.42212,0.683 0.98146,0.66575 1.69964,-0.0524 0.58876,-0.58876 0.79291,-1.34803 0.45366,-1.68727 z m -38.74986,27.58347 c 0,-0.55 0.45,-1 1,-1 0.55,0 1,0.45 1,1 0,0.55 -0.45,1 -1,1 -0.55,0 -1,-0.45 -1,-1 z m 184,-21 c -1.29225,-0.83512 -1.26548,-0.9715 0.1933,-0.98469 2.40445,-0.0217 4.8067,-3.88888 4.8067,-7.73782 0,-1.80262 0.42448,-3.27749 0.9433,-3.27749 1.50302,0 4.0567,4.23179 4.0567,6.72251 0,4.64722 -6.04154,7.83564 -10,5.27749 z m -6.55227,-3.6509 c -2.38631,-2.57488 -2.51417,-2.59895 -4.45838,-0.83946 -2.54386,2.30216 -3.46233,1.4093 -2.26018,-2.19714 0.74059,-2.22177 1.54696,-2.8125 3.83921,-2.8125 2.39801,0 3.28802,0.73774 5.1272,4.25 2.51249,4.79806 1.43032,5.56791 -2.24785,1.5991 z"
         id="path3208"
         inkscape:connector-curvature="0" />
      <path
         style="fill:#b04e2b"
         d="m 588.05584,733.12469 c -0.30801,-0.49837 -0.19596,-0.91226 0.249,-0.91977 0.44496,-0.008 1.89189,-0.3034 3.21539,-0.65753 1.54559,-0.41355 2.17716,-0.27299 1.76559,0.39295 -0.89596,1.44968 -4.55403,2.27807 -5.22998,1.18435 z m -57.94198,-6.03288 c -2.75,-0.5033 -8.77548,-1.60459 -13.38996,-2.44731 -4.61447,-0.84272 -10.23947,-2.23615 -12.5,-3.09652 -2.26052,-0.86037 -5.21459,-1.62396 -6.56459,-1.69686 -1.35,-0.0729 -3.43722,-1.11523 -4.63827,-2.31628 -1.20105,-1.20105 -3.82001,-2.49069 -5.81991,-2.86588 -1.99991,-0.37518 -4.22377,-1.52104 -4.94193,-2.54635 -0.71815,-1.02531 -2.95715,-2.5542 -4.97554,-3.39754 -2.01839,-0.84334 -3.6698,-1.94204 -3.6698,-2.44156 0,-0.49952 -1.95607,-2.18098 -4.34683,-3.73658 -4.27149,-2.77934 -11.49483,-11.82003 -10.35483,-12.96003 0.31977,-0.31977 2.25249,1.04154 4.29493,3.02513 2.04244,1.9836 4.3195,3.60654 5.06013,3.60654 0.74063,0 1.3466,0.64468 1.3466,1.43261 0,0.78794 1.0125,1.73966 2.25,2.11494 1.2375,0.37527 3.15,1.50277 4.25,2.50554 2.36083,2.15216 16.99932,9.94691 18.68024,9.94691 0.63925,0 1.87271,0.61788 2.74102,1.37306 0.86831,0.75518 6.07874,2.84741 11.57874,4.6494 9.29093,3.04402 11.19128,3.30946 26.80055,3.74349 13.4517,0.37404 17.63763,0.16286 21,-1.05941 2.3097,-0.83961 6.40491,-1.74445 9.10048,-2.01074 3.06756,-0.30304 5.23722,-1.08491 5.79969,-2.08999 0.55361,-0.98924 2.22,-1.60581 4.33998,-1.60581 5.42223,0 30.71175,-13.88835 32.15952,-17.66118 0.70206,-1.82952 5.57422,-4.33882 8.42443,-4.33882 l 2.22398,0 -2.34404,2.49511 c -1.28922,1.37231 -5.64266,5.07892 -9.67431,8.2369 -4.03165,3.15799 -7.33028,6.30162 -7.33028,6.98584 0,0.68423 -1.2375,1.51108 -2.75,1.83746 -3.64078,0.78564 -17.09334,7.1763 -20.12313,9.55954 -1.43979,1.13253 -4.03949,1.89917 -6.51173,1.92028 -2.26333,0.0193 -7.04014,0.75926 -10.61514,1.64431 -7.64597,1.89289 -22.4147,2.49055 -29.5,1.1938 z m -34.91655,-2.51637 c -0.9187,-2.39409 -0.20261,-2.57794 1.21288,-0.31139 0.67134,1.07499 0.81495,1.95452 0.31913,1.95452 -0.49581,0 -1.18522,-0.73941 -1.53201,-1.64313 z m 32.41655,-14.69681 c 0,-3.22674 -5.68316,-5.05127 -13.22919,-4.24712 -5.04258,0.53737 -5.69851,0.39021 -6.26873,-1.40639 -0.5403,-1.70232 -1.50885,-2.00655 -6.38819,-2.00655 -4.88172,0 -6.68488,-0.56701 -11.92539,-3.75 -6.32185,-3.83977 -21.1885,-16.66273 -21.1885,-18.27576 0,-0.49352 5.1402,-0.89732 11.42267,-0.89732 6.28246,0 12.54747,-0.28231 13.92224,-0.62735 1.77738,-0.44609 3.60034,0.12064 6.30946,1.96154 2.09545,1.42389 4.38044,2.58889 5.07776,2.58889 0.69733,0 1.28201,0.7875 1.29929,1.75 0.04,2.22759 4.60334,5.60414 6.55942,4.85351 0.81668,-0.31338 1.73282,0.0764 2.03588,0.86612 0.5393,1.4054 2.30855,1.68534 9.37328,1.48312 1.925,-0.0551 4.85,-0.12242 6.5,-0.1496 9.07694,-0.14953 26.03819,-2.02173 29.26945,-3.2308 2.0518,-0.76773 5.08055,-1.62839 6.73055,-1.91256 1.65,-0.28417 6.07763,-2.54021 9.83918,-5.01341 l 6.83919,-4.49673 13.41081,0.0171 c 12.16604,0.0155 13.41082,0.18167 13.41082,1.79031 0,2.51238 -3.39811,6.51714 -7.7664,9.1529 -2.05348,1.23904 -5.4224,3.74618 -7.48648,5.57143 -2.06409,1.82524 -4.24311,3.31862 -4.84227,3.31862 -0.59917,0 -2.2428,0.90727 -3.65252,2.01616 -1.89005,1.48671 -3.41018,1.85725 -5.78872,1.41104 -2.60341,-0.48841 -3.52556,-0.17684 -4.78082,1.6153 -1.04455,1.49129 -2.12398,2.00218 -3.28721,1.55581 -1.17914,-0.45248 -2.78238,0.3535 -5.02293,2.52512 -2.85124,2.76353 -4.46558,3.36635 -12.08181,4.51155 -4.83496,0.72701 -13.17834,1.33154 -18.54084,1.34342 -9.56164,0.0212 -9.75,-0.0236 -9.75,-2.31834 z m -74.52392,-25.73542 c -0.36228,-1.14145 -0.40348,-2.33057 -0.0916,-2.6425 0.83379,-0.83379 3.61547,1.73618 3.61547,3.3403 0,2.16265 -2.79149,1.60988 -3.52392,-0.6978 z m -6.32693,-15.67688 c 1.74005,-3.16127 4.89333,-7.56479 7.00729,-9.78561 2.90513,-3.05198 3.84356,-4.86394 3.84356,-7.42126 0,-1.86088 0.63184,-4.09384 1.40408,-4.96215 0.77225,-0.86831 3.27453,-5.17874 5.56063,-9.57874 2.2861,-4.4 5.74712,-10.7 7.69115,-14 1.94403,-3.3 4.22754,-7.8 5.07447,-10 0.84692,-2.2 3.0881,-6.475 4.98039,-9.5 5.30758,-8.48466 19.51423,-32.69677 23.76369,-40.5 3.58707,-6.58688 7.24343,-12.54535 13.5603,-22.09808 1.49045,-2.25395 3.21819,-5.63819 3.83942,-7.52054 0.62123,-1.88235 2.92869,-5.59971 5.12769,-8.2608 2.199,-2.66109 3.99818,-5.43779 3.99818,-6.17045 0,-2.02238 1.56009,-2.56788 4.33101,-1.51438 1.90226,0.72324 2.63102,0.60558 3.05253,-0.49285 0.30453,-0.79359 1.24281,-1.4429 2.08508,-1.4429 1.71077,0 2.00207,2.25199 0.6243,4.82638 -0.4989,0.9322 -0.65981,2.98848 -0.35757,4.56951 l 0.54951,2.87461 1.32214,-2.38525 c 0.72717,-1.31189 1.35239,-3.28525 1.38937,-4.38525 0.0663,-1.97355 0.0867,-1.97432 1.53543,-0.0589 0.80751,1.06762 1.4682,2.47698 1.4682,3.13191 0,0.65493 2.0202,3.38142 4.48933,6.05887 2.46914,2.67745 4.49414,5.51409 4.5,6.30364 0.006,0.78955 0.92296,2.40663 2.03797,3.59351 1.11502,1.18689 3.02752,4.01876 4.25,6.29306 1.22249,2.2743 4.41681,7.40722 7.0985,11.40649 8.10348,12.08492 11.3357,17.14707 12.6242,19.77139 0.6751,1.375 2.68472,4.75 4.46583,7.5 3.87501,5.98295 16.53417,27.35143 16.53417,27.90944 0,0.2161 3.375,5.67164 7.5,12.12343 4.125,6.45179 7.5,12.08823 7.5,12.52542 0,0.4372 2.32532,4.54043 5.16738,9.1183 2.84207,4.57788 6.45007,10.78391 8.01778,13.79119 1.56772,3.00728 3.2924,5.90978 3.83262,6.45 5.37345,5.37345 -5.12457,5.90542 -140.27507,7.10822 l -52.75728,0.46953 3.16372,-5.74777 z m 63.85085,-9.29745 c 2.86282,-0.63881 8.21282,-0.68572 14.70519,-0.12895 5.61285,0.48134 12.13785,0.58671 14.5,0.23415 2.36214,-0.35257 20.15731,-0.51483 39.54481,-0.36059 37.33553,0.29704 38.10672,0.20035 33.27553,-4.17182 -1.08596,-0.98278 -2.26151,-2.74002 -2.61234,-3.90498 -0.35084,-1.16497 -1.68005,-3.24312 -2.95383,-4.61812 -2.69976,-2.91432 -6.98447,-11.18324 -8.03164,-15.5 -0.40027,-1.65 -2.49,-5.12299 -4.64386,-7.71776 -2.15386,-2.59476 -4.89885,-6.48107 -6.09998,-8.63623 -1.20114,-2.15516 -5.2895,-8.58217 -9.08525,-14.28224 -3.79575,-5.70007 -7.11386,-11.26377 -7.37357,-12.36377 -0.2597,-1.1 -1.68253,-3.575 -3.16183,-5.5 -1.4793,-1.925 -4.13821,-6.425 -5.90868,-10 -3.97287,-8.02219 -7.9446,-14.74246 -10.90455,-18.45082 -1.2375,-1.55039 -2.25,-3.18823 -2.25,-3.63963 0,-0.45141 -1.8,-3.39032 -4,-6.53093 -2.2,-3.1406 -4,-6.31058 -4,-7.0444 0,-2.92442 -2.26561,-0.99626 -6.77017,5.76179 -2.60141,3.9028 -5.5731,8.5153 -6.60376,10.25 -1.03065,1.73469 -3.12302,5.24878 -4.6497,7.80909 -1.52667,2.5603 -3.08424,6.05955 -3.46126,7.7761 -0.37702,1.71655 -2.2705,5.47175 -4.20774,8.3449 -1.93723,2.87314 -5.10538,8.3739 -7.04031,12.2239 -1.93494,3.85 -4.29601,8.125 -5.24681,9.5 -0.95081,1.375 -3.61745,6.1 -5.92587,10.5 -4.18663,7.97998 -8.00223,12.5 -10.55196,12.5 -0.9007,0 -1.57578,1.97944 -2.04042,5.98274 -0.50035,4.31107 -1.52824,7.13386 -3.67871,10.1025 -1.64138,2.26587 -3.6406,5.98613 -4.4427,8.26726 -0.80211,2.28112 -2.56587,5.82535 -3.91948,7.87606 -3.71626,5.6301 -3.32116,6.6174 2.78889,6.96918 9.2889,0.53479 30.11296,-0.21274 34.75,-1.24743 z m 64,-77.45031 c 0,-0.825 -0.675,-1.5 -1.5,-1.5 -1.56157,0 -1.98397,1.1827 -0.83333,2.33333 1.15063,1.15064 2.33333,0.72824 2.33333,-0.83333 z m -135,81.94098 c 0,-0.85746 0.45,-1.2809 1,-0.94098 0.55,0.33992 1,1.04148 1,1.55902 0,0.51754 -0.45,0.94098 -1,0.94098 -0.55,0 -1,-0.70156 -1,-1.55902 z m -4.2351,-9.06431 c -2.01436,-3.91783 -4.33386,-10.01836 -5.15447,-13.55672 -1.62014,-6.98591 -3.2565,-21.1075 -2.81811,-24.31995 1.38412,-10.1427 1.81264,-17.15666 1.09583,-17.93635 -0.49313,-0.53638 -0.1919,-1.67552 0.70521,-2.66681 1.19,-1.31494 1.31372,-2.20195 0.51523,-3.69394 -0.81689,-1.52636 -0.64021,-2.43693 0.79359,-4.09011 1.01443,-1.16965 2.14529,-4.0082 2.51303,-6.30789 0.36773,-2.29969 2.13718,-6.68408 3.93211,-9.74308 1.79492,-3.059 3.89403,-6.83095 4.66468,-8.3821 1.91099,-3.84641 8.543,-9.67972 11.00507,-9.67972 1.90555,0 1.86883,0.22347 -0.69824,4.25 -1.49025,2.3375 -3.44686,5.15 -4.34803,6.25 -2.98483,3.64342 -6.9708,11.32379 -6.9708,13.43169 0,1.14156 -0.9,3.75476 -2,5.80713 -1.1,2.05236 -2,4.71063 -2,5.90728 0,1.19664 -0.89419,5.0283 -1.9871,8.51481 -3.57434,11.40259 -2.2392,37.75322 2.60416,51.39621 1.40495,3.95752 2.38702,8.26366 2.18238,9.56919 -0.30403,1.93955 -1.04194,1.07085 -4.03454,-4.74964 z m 202.2351,0.62333 c 0,-0.55 0.45,-1 1,-1 0.55,0 1,0.45 1,1 0,0.55 -0.45,1 -1,1 -0.55,0 -1,-0.45 -1,-1 z m -189.0319,-7.54858 c -0.63455,-1.64925 -0.87363,-4.96562 -0.54189,-7.51668 0.57353,-4.41045 0.48314,-4.61392 -2.66549,-6 -1.79253,-0.78911 -3.42451,-2.32352 -3.6266,-3.40981 -0.2021,-1.08628 -1.02323,-2.45458 -1.82473,-3.04065 -1.1948,-0.87365 -1.23978,-1.54296 -0.24974,-3.71585 0.9349,-2.05188 0.94143,-3.70704 0.0289,-7.33088 -0.97462,-3.87056 -0.92987,-4.96245 0.25859,-6.30908 0.79045,-0.89566 2.21924,-4.32847 3.17507,-7.62847 0.95583,-3.3 2.35435,-7.69661 3.10781,-9.77024 0.75346,-2.07363 1.36993,-5.03269 1.36993,-6.57568 0,-2.80276 3.51512,-7.15408 5.77927,-7.15408 1.54848,0 2.5615,-2.22963 4.68694,-10.31583 1.52441,-5.79959 2.61283,-7.66335 7.29995,-12.5 3.02964,-3.12629 6.62506,-7.14667 7.98982,-8.93417 1.36477,-1.7875 2.92102,-3.25 3.45834,-3.25 0.53732,0 2.17141,-0.84557 3.63131,-1.87905 6.5972,-4.67022 24.45924,-13.08254 26.6245,-12.53909 1.3606,0.34149 3.57847,-0.25097 5.63658,-1.50568 3.14719,-1.91867 6.89329,-2.76443 6.89329,-1.55631 0,0.28593 -1.2375,2.37145 -2.75,4.63448 -1.5125,2.26304 -3.48714,5.21761 -4.38809,6.56571 -1.01498,1.51873 -1.89394,2.03713 -2.31069,1.36282 -0.47175,-0.76332 -1.25169,-0.77837 -2.61191,-0.0504 -2.51956,1.34844 -2.48645,2.96753 0.0607,2.96753 1.1,0 2,0.65383 2,1.45295 0,3.63057 -2.69219,6.87 -7.94994,9.56591 -3.05253,1.56519 -7.80006,4.93184 -10.55006,7.48145 -2.75,2.54961 -6.68171,6.18007 -8.73712,8.06767 -2.05542,1.88761 -4.63378,3.43202 -5.72968,3.43202 -1.34232,0 -2.68987,1.3869 -4.12939,4.25 -1.17526,2.3375 -2.84565,5.05574 -3.71199,6.04053 -1.43576,1.63207 -1.42545,2.04396 0.11651,4.65429 2.24497,3.80043 2.1999,4.10472 -1.48655,10.03498 -3.14707,5.06257 -3.16821,5.18332 -2.15651,12.31645 0.80904,5.70419 0.74205,7.61435 -0.32177,9.17626 -0.73893,1.08487 -1.3435,3.16727 -1.3435,4.62755 0,1.46028 -0.675,3.21525 -1.5,3.89994 -0.825,0.68469 -1.5,1.87329 -1.5,2.64134 0,0.76805 -1.35,3.92629 -3,7.01832 -1.65,3.09203 -3.01618,6.12103 -3.03596,6.73111 -0.0198,0.61008 -1.12146,2.43737 -2.44817,4.06065 l -2.41221,2.95142 -1.13556,-2.95142 z m 178.20663,-8.45142 c -1.74523,-3.575 -3.1804,-7.625 -3.18925,-9 -0.0216,-3.35341 -1.45197,-5.41871 -3.26974,-4.72116 -0.86572,0.33221 -2.5931,-0.58517 -4.13781,-2.1975 -2.28197,-2.38186 -2.56248,-3.32578 -2.01177,-6.76971 0.98025,-6.13012 -2.82744,-22.35045 -7.15181,-30.46592 -0.77789,-1.45986 -1.41435,-3.10698 -1.41435,-3.66026 0,-2.43978 -5.82544,-9.56591 -9.24674,-11.31133 -2.06429,-1.05312 -3.75326,-2.65537 -3.75326,-3.56056 0,-0.90518 -0.69825,-2.35853 -1.55168,-3.22967 -0.85342,-0.87114 -2.99092,-3.15889 -4.75,-5.08389 -1.75907,-1.925 -5.74558,-4.83284 -8.85889,-6.46187 -3.6309,-1.89985 -6.20518,-4.05123 -7.17944,-6 -0.83537,-1.67097 -2.41274,-4.89957 -3.50525,-7.17465 -1.09251,-2.27509 -3.14926,-5.97865 -4.57056,-8.23013 -1.4213,-2.25148 -2.58418,-4.32755 -2.58418,-4.61348 0,-1.13219 4.29778,-0.40249 11.52536,1.95683 8.65211,2.82433 13.15053,5.225 13.99812,7.47038 1.73526,4.59694 5.14434,8.06975 8.47652,8.63499 5.44797,0.92415 9.27649,3.02172 12,6.57455 2.88674,3.76576 8.57979,9.451 12.36036,12.34338 1.43778,1.1 4.37913,5.6 6.53634,10 3.49742,7.13363 5.33806,12.05126 10.72073,28.64259 1.03815,3.19994 1.32178,6.61813 0.91274,11 -0.73625,7.88736 -2.57587,16.97526 -3.74921,18.52157 -0.48586,0.64029 -1.23206,4.01529 -1.65823,7.5 l -0.77485,6.33584 -3.17315,-6.5 z m 16.97212,-2.7491 c -1.81529,-2.85451 -2.10046,-4.04893 -1.24761,-5.22559 4.16975,-5.75299 4.06854,-17.71948 -0.30471,-36.02531 -0.85407,-3.575 -1.565,-7.625 -1.57985,-9 -0.0149,-1.375 -0.69923,-3.78894 -1.52084,-5.36431 -0.82161,-1.57537 -1.49384,-3.50832 -1.49384,-4.29545 0,-0.78713 -1.125,-2.55615 -2.5,-3.93115 -1.375,-1.375 -2.5,-3.09944 -2.5,-3.8321 0,-2.02525 -2.13226,-3.37268 -6.00401,-3.79409 -3.35468,-0.36513 -3.12779,-0.73368 1.34965,-2.19228 1.77887,-0.5795 1.77393,-0.72279 -0.1365,-3.96072 -5.23823,-8.87815 -24.67116,-26.90812 -33.53573,-31.11464 -3.34531,-1.58745 -8.67341,-7.04004 -8.67341,-8.87607 0,-0.36961 4.04628,1.41456 8.99174,3.96482 8.65506,4.46321 9.08435,4.57616 11.46482,3.01641 3.35804,-2.20027 3.86347,-2.03848 2.08954,0.66888 -1.45419,2.21937 -1.14946,2.63884 9.97695,13.73368 6.31232,6.29442 11.47695,11.7805 11.47695,12.19129 0,1.67398 7.17004,11.80636 9.07669,12.82677 1.57487,0.84285 1.91372,1.72616 1.45804,3.80084 -0.40256,1.83285 0.21918,4.30498 1.93163,7.68046 1.3889,2.73771 2.52715,5.89003 2.52945,7.00515 0.002,1.11513 0.72466,3.05611 1.60523,4.3133 2.36068,3.37034 4.19255,13.78846 3.65197,20.76928 -0.28596,3.69274 -0.007,6.98199 0.70631,8.31393 0.90791,1.69644 0.90506,2.53448 -0.0124,3.63992 -0.87071,1.04915 -0.89582,1.79276 -0.0932,2.75987 0.80461,0.9695 0.77047,1.65619 -0.12755,2.56575 -0.70105,0.71005 -1.22621,3.87906 -1.22621,7.3994 0,7.49231 -1.82867,8.50414 -5.35315,2.96196 z m 8.85315,-13.69188 c 0,-1.75653 0.60006,-2.01516 1.45729,-0.62812 0.31644,0.512 0.11799,1.21356 -0.44098,1.55902 -0.55897,0.34546 -1.01631,-0.0734 -1.01631,-0.9309 z m -194.6003,-79.29206 c 0.93727,-0.93726 8.89586,-3.30473 9.40336,-2.79724 0.69627,0.69627 -5.66173,3.53028 -7.92007,3.53028 -1.21898,0 -1.88646,-0.32987 -1.48329,-0.73304 z m 9.6003,-8.45516 c 0,-2.29765 21.37765,-16.98785 23.52316,-16.16454 0.59419,0.22801 4.65706,-1.42709 9.0286,-3.67801 7.47759,-3.85024 8.54038,-4.11403 17.94824,-4.45475 9.9624,-0.36081 9.9812,-0.35703 5,1.00689 -2.75,0.75298 -6.78265,2.29371 -8.96144,3.42383 -2.17879,1.13013 -4.88195,2.05478 -6.00702,2.05478 -2.48465,0 -21.3664,9.13303 -27.33579,13.22221 -2.36733,1.62168 -5.51733,3.31324 -7,3.75901 -1.48266,0.44576 -3.48325,1.13049 -4.44575,1.52162 -1.17274,0.47656 -1.75,0.24861 -1.75,-0.69104 z m 169.5259,-15.0618 c 0.37664,-1.7875 1.0427,-3.6328 1.48012,-4.10066 1.32033,-1.41223 2.18611,3.12315 1.0142,5.31289 -1.72973,3.23202 -3.27276,2.48211 -2.49432,-1.21223 z m -63.3289,-5.83651 c -3.54322,-2.60571 -5.5834,-5.91349 -3.64734,-5.91349 1.70111,0 6.38359,3.24918 7.80184,5.41371 3.05415,4.66121 1.72207,4.82146 -4.1545,0.49978 z m -10.72245,-0.23071 c -0.40706,-0.99947 -0.28115,-2.27618 0.2798,-2.83713 1.40547,-1.40547 2.15995,0.22554 1.22785,2.65435 -0.72251,1.8827 -0.81094,1.89342 -1.50765,0.18278 z m -11.47455,-1.41478 c -4.72844,-0.86934 -6.8964,-4.268 -2.72251,-4.268 2.49072,0 6.72251,2.55368 6.72251,4.0567 0,0.51882 -0.3375,0.88202 -0.75,0.80712 -0.4125,-0.0749 -1.875,-0.34302 -3.25,-0.59582 z m -14,-2.70898 c 0,-1.75653 0.60006,-2.01516 1.45729,-0.62812 0.31644,0.512 0.11799,1.21355 -0.44098,1.55902 -0.55897,0.34546 -1.01631,-0.0734 -1.01631,-0.9309 z"
         id="path3206"
         inkscape:connector-curvature="0" />
      <path
         style="fill:#993122"
         d="m 588.05584,733.12469 c -0.30801,-0.49837 -0.19596,-0.91226 0.249,-0.91977 0.44496,-0.008 1.89189,-0.3034 3.21539,-0.65753 1.54559,-0.41355 2.17716,-0.27299 1.76559,0.39295 -0.89596,1.44968 -4.55403,2.27807 -5.22998,1.18435 z m -57.94198,-6.03288 c -2.75,-0.5033 -8.77548,-1.60459 -13.38996,-2.44731 -4.61447,-0.84272 -10.23947,-2.23615 -12.5,-3.09652 -2.26052,-0.86037 -5.21459,-1.62396 -6.56459,-1.69686 -1.35,-0.0729 -3.43722,-1.11523 -4.63827,-2.31628 -1.20105,-1.20105 -3.82001,-2.49069 -5.81991,-2.86588 -1.99991,-0.37518 -4.22377,-1.52104 -4.94193,-2.54635 -0.71815,-1.02531 -2.95715,-2.5542 -4.97554,-3.39754 -2.01839,-0.84334 -3.6698,-1.94204 -3.6698,-2.44156 0,-0.49952 -1.95607,-2.18098 -4.34683,-3.73658 -4.27149,-2.77934 -11.49483,-11.82003 -10.35483,-12.96003 0.31977,-0.31977 2.25249,1.04154 4.29493,3.02513 2.04244,1.9836 4.3195,3.60654 5.06013,3.60654 0.74063,0 1.3466,0.64468 1.3466,1.43261 0,0.78794 1.0125,1.73966 2.25,2.11494 1.2375,0.37527 3.15,1.50277 4.25,2.50554 2.36083,2.15216 16.99932,9.94691 18.68024,9.94691 0.63925,0 1.87271,0.61788 2.74102,1.37306 0.86831,0.75518 6.07874,2.84741 11.57874,4.6494 9.29093,3.04402 11.19128,3.30946 26.80055,3.74349 13.4517,0.37404 17.63763,0.16286 21,-1.05941 2.3097,-0.83961 6.40491,-1.74445 9.10048,-2.01074 3.06756,-0.30304 5.23722,-1.08491 5.79969,-2.08999 0.55361,-0.98924 2.22,-1.60581 4.33998,-1.60581 5.10567,0 26.77535,-11.52574 32.57909,-17.32827 1.55587,-1.55555 3.61732,-2.67642 4.58099,-2.49084 1.37383,0.26458 0.64605,1.44935 -3.37078,5.48737 -2.8176,2.83247 -6.29451,5.9176 -7.72646,6.85585 -1.43195,0.93825 -2.60354,2.32058 -2.60354,3.07185 0,0.75126 -1.2375,1.63297 -2.75,1.95935 -3.64078,0.78564 -17.09334,7.1763 -20.12313,9.55954 -1.43979,1.13253 -4.03949,1.89917 -6.51173,1.92028 -2.26333,0.0193 -7.04014,0.75926 -10.61514,1.64431 -7.64597,1.89289 -22.4147,2.49055 -29.5,1.1938 z m -34.91655,-2.51637 c -0.9187,-2.39409 -0.20261,-2.57794 1.21288,-0.31139 0.67134,1.07499 0.81495,1.95452 0.31913,1.95452 -0.49581,0 -1.18522,-0.73941 -1.53201,-1.64313 z m 32.41655,-14.69681 c 0,-3.22674 -5.68316,-5.05127 -13.22919,-4.24712 -5.04258,0.53737 -5.69851,0.39021 -6.26873,-1.40639 -0.53861,-1.697 -1.5135,-2.008 -6.31947,-2.01593 -6.80825,-0.0113 -12.72054,-3.09715 -21.14019,-11.03409 -4.64821,-4.38171 -5.2105,-5.28296 -3.79154,-6.07706 0.91633,-0.5128 1.44108,-1.51864 1.16611,-2.2352 -1.39084,-3.62446 17.02281,-4.99551 22.08301,-1.64427 1.65,1.09275 3.7875,1.98979 4.75,1.99341 0.98543,0.004 1.76373,0.77116 1.78142,1.75659 0.04,2.22759 4.60334,5.60414 6.55942,4.85351 0.81668,-0.31338 1.73282,0.0764 2.03588,0.86612 0.5393,1.4054 2.30855,1.68534 9.37328,1.48312 1.925,-0.0551 4.85,-0.12242 6.5,-0.1496 9.48952,-0.15633 26.16701,-2.055 29.20677,-3.3251 1.94561,-0.81293 4.49502,-1.48468 5.66535,-1.49279 1.17034,-0.008 3.10312,-0.57061 4.29508,-1.25 14.72514,-8.39302 13.01332,-7.8547 23.33273,-7.3375 5.22504,0.26188 10.73757,0.50451 12.25007,0.53919 1.59784,0.0366 2.75,0.62341 2.75,1.40053 0,1.50194 -16.50068,16.66252 -18.13539,16.66252 -0.57703,0 -2.20256,0.90727 -3.61228,2.01616 -1.89005,1.48671 -3.41018,1.85725 -5.78872,1.41104 -2.60341,-0.48841 -3.52556,-0.17684 -4.78082,1.6153 -1.04455,1.49129 -2.12398,2.00218 -3.28721,1.55581 -1.17914,-0.45248 -2.78238,0.3535 -5.02293,2.52512 -2.85124,2.76353 -4.46558,3.36635 -12.08181,4.51155 -4.83496,0.72701 -13.17834,1.33154 -18.54084,1.34342 -9.56164,0.0212 -9.75,-0.0236 -9.75,-2.31834 z m -15.57017,-36.56185 c -0.22004,-0.22098 -5.39524,-0.3142 -11.50045,-0.20715 -11.83891,0.20758 -14.11962,-1.10775 -4.1926,-2.41797 5.57397,-0.73568 5.6565,-0.78971 2.51322,-1.64546 -4.26419,-1.16093 -4.12612,-2.57264 0.33343,-3.40926 2.86474,-0.53743 3.4852,-1.04792 3.09362,-2.54531 -0.78999,-3.02096 3.18063,-2.37758 4.35274,0.70529 0.85711,2.25439 1.37148,2.49243 4.09374,1.89452 2.38096,-0.52295 3.00864,-0.36493 2.66795,0.67165 -0.24503,0.74551 -1.90067,1.49853 -3.6792,1.67337 -3.63047,0.35689 -3.79049,2.48625 -0.22614,3.00924 3.55556,0.5217 7.11386,-2.40452 7.11386,-5.85018 0,-1.65337 -0.55576,-3.02824 -1.25,-3.0923 -0.6875,-0.0634 -1.7,-0.2199 -2.25,-0.34769 -0.55,-0.12778 -1.675,-0.30776 -2.5,-0.39996 -1.15828,-0.12944 -1.20949,-0.35199 -0.22479,-0.97691 1.39208,-0.88345 37.18797,-0.88535 38.75838,-0.002 0.53152,0.29896 4.34141,0.18853 8.46641,-0.24541 10.29672,-1.08319 21.78693,-1.09452 23.81574,-0.0235 0.92634,0.48903 3.70926,0.58635 6.18426,0.21626 2.475,-0.37009 5.37781,-0.49482 6.45068,-0.27717 1.7104,0.34697 1.52563,0.74815 -1.5,3.25684 -2.88934,2.3957 -3.12533,2.86677 -1.45068,2.89583 1.1244,0.0195 2.49696,1.1065 3.13513,2.48286 1.09661,2.36509 0.98282,2.47099 -3.35412,3.12135 -2.46908,0.37026 -7.00479,0.41358 -10.07934,0.0963 -3.07456,-0.31732 -7.6402,-0.15835 -10.14589,0.35328 -4.41905,0.9023 -57.82185,1.87112 -58.62595,1.06357 z m 70.57017,-6.59821 c 2.76719,-1.58187 1.57943,-1.8217 -4.25,-0.85815 -2.0625,0.34091 -3.75,1.01096 -3.75,1.48899 0,1.36277 5.23463,0.94999 8,-0.63084 z m -102.38844,4.06988 c 0.70037,-1.82514 6.38844,-3.94252 6.38844,-2.3781 0,1.48311 -3.11533,3.73749 -5.21862,3.77642 -1.08575,0.0201 -1.51653,-0.49482 -1.16982,-1.39832 z m 7.07075,-6.46302 c 0.59277,-2.26677 2.09521,-3.66267 2.98477,-2.77311 0.29371,0.29371 -0.38351,1.51887 -1.50493,2.72258 l -2.03895,2.18855 0.55911,-2.13802 z m -51.91741,-9.73019 c -2.01436,-3.91783 -4.33386,-10.01836 -5.15447,-13.55672 -1.62014,-6.98591 -3.2565,-21.1075 -2.81811,-24.31995 1.38412,-10.1427 1.81264,-17.15666 1.09583,-17.93635 -0.49313,-0.53638 -0.1919,-1.67552 0.70521,-2.66681 1.19,-1.31494 1.31372,-2.20195 0.51523,-3.69394 -0.81689,-1.52636 -0.64021,-2.43693 0.79359,-4.09011 1.01443,-1.16965 2.14529,-4.0082 2.51303,-6.30789 0.36773,-2.29969 2.13718,-6.68408 3.93211,-9.74308 1.79492,-3.059 3.89403,-6.83095 4.66468,-8.3821 1.91099,-3.84641 8.543,-9.67972 11.00507,-9.67972 1.90555,0 1.86883,0.22347 -0.69824,4.25 -1.49025,2.3375 -3.44686,5.15 -4.34803,6.25 -2.98483,3.64342 -6.9708,11.32379 -6.9708,13.43169 0,1.14156 -0.9,3.75476 -2,5.80713 -1.1,2.05236 -2,4.71063 -2,5.90728 0,1.19664 -0.89419,5.0283 -1.9871,8.51481 -3.57434,11.40259 -2.2392,37.75322 2.60416,51.39621 1.40495,3.95752 2.38702,8.26366 2.18238,9.56919 -0.30403,1.93955 -1.04194,1.07085 -4.03454,-4.74964 z m 202.2351,0.62333 c 0,-0.55 0.45,-1 1,-1 0.55,0 1,0.45 1,1 0,0.55 -0.45,1 -1,1 -0.55,0 -1,-0.45 -1,-1 z M 615.407,645.53484 c -0.90023,-0.99895 -1.78446,-3.39127 -1.96496,-5.31627 -0.28418,-3.03075 -0.71889,-3.54455 -3.24239,-3.83227 -1.88561,-0.21499 -3.22675,0.22621 -3.79969,1.25 -0.48701,0.87025 -1.33608,1.58227 -1.88682,1.58227 -1.47417,0 -4.06578,-6.765 -4.78863,-12.5 -0.55313,-4.38844 -0.89351,-4.96355 -2.7829,-4.70197 -5.0152,0.69433 -10.2475,-13.28715 -10.30932,-27.54803 -0.0101,-2.3375 -0.46843,-4.25 -1.01843,-4.25 -0.55,0 -1.04486,1.9125 -1.09968,4.25 -0.0548,2.3375 -0.44921,5.375 -0.87641,6.75 -0.75067,2.4161 -0.83961,2.35772 -2.65032,-1.73983 -1.03048,-2.33191 -2.39164,-4.24441 -3.02481,-4.25 -0.63318,-0.006 -2.05035,-1.53407 -3.14928,-3.39661 -1.64502,-2.7881 -1.76856,-3.62736 -0.69921,-4.75 2.16838,-2.27645 2.91119,-7.76843 1.14249,-8.44714 -0.83407,-0.32007 -1.27322,-1.2159 -0.97588,-1.99075 0.29733,-0.77485 -0.18108,-1.68575 -1.06315,-2.02423 -0.88206,-0.33848 -1.60375,-1.51606 -1.60375,-2.61684 0,-1.6662 -0.44428,-1.88991 -2.65259,-1.33566 -2.64858,0.66475 -2.65003,0.66186 -0.95844,-1.91984 0.93178,-1.42207 1.43784,-3.0003 1.12458,-3.50717 -0.31326,-0.50687 0.2864,-1.37968 1.33258,-1.93958 1.45955,-0.78113 2.28044,-0.59998 3.528,0.77857 0.89423,0.98811 1.62587,2.24519 1.62587,2.79351 0,0.54832 1.11292,2.04248 2.47315,3.32035 1.36024,1.27787 3.56005,4.39382 4.88848,6.92431 1.32842,2.5305 3.928,6.92223 5.77684,9.7594 1.84884,2.83716 6.01443,9.81216 9.25685,15.5 3.24243,5.68783 8.15183,13.91619 10.90977,18.28523 7.72732,12.24139 14.07488,24.91607 12.09827,24.15757 -0.97293,-0.37335 -2.13572,0.018 -2.81546,0.94761 -1.04622,1.43079 -1.31596,1.40834 -2.79476,-0.23263 z m 2.97769,-3.50377 c -0.21771,-0.65313 -0.93051,-1.36573 -1.58401,-1.58356 -0.73075,-0.24358 -0.95424,0.21359 -0.58051,1.1875 0.69752,1.81771 2.76448,2.19592 2.16452,0.39606 z m -169.36421,1.67145 c -0.34732,-1.38382 -0.41105,-3.35901 -0.14162,-4.3893 0.63732,-2.43712 -0.11453,-3.4785 -3.75277,-5.19789 -1.64328,-0.77659 -3.15828,-2.29734 -3.36667,-3.37944 -0.20839,-1.0821 -1.03467,-2.44697 -1.83617,-3.03304 -1.1948,-0.87365 -1.23978,-1.54296 -0.24974,-3.71585 0.9349,-2.05188 0.94143,-3.70704 0.0289,-7.33088 -0.97462,-3.87056 -0.92987,-4.96245 0.25859,-6.30908 0.79045,-0.89566 2.21923,-4.32847 3.17507,-7.62847 0.95583,-3.3 2.35435,-7.69661 3.10781,-9.77024 0.75346,-2.07363 1.36993,-5.03269 1.36993,-6.57568 0,-2.80276 3.51512,-7.15408 5.77927,-7.15408 1.54848,0 2.5615,-2.22963 4.68694,-10.31583 1.52441,-5.79959 2.61283,-7.66335 7.29995,-12.5 3.02964,-3.12629 6.62506,-7.14667 7.98982,-8.93417 1.36477,-1.7875 2.92102,-3.25 3.45834,-3.25 0.53732,0 2.17141,-0.85011 3.63131,-1.88914 2.98058,-2.12131 16.92892,-9.19243 21.90527,-11.10489 2.48061,-0.95333 3.58345,-0.97337 4.65435,-0.0846 0.79905,0.66315 2.52126,0.8842 3.9991,0.51328 1.65039,-0.41422 2.59565,-0.2388 2.59565,0.48169 0,1.37644 -4.78719,3.33321 -6.12772,2.50472 -0.52794,-0.32628 -1.56479,-0.0912 -2.30412,0.52237 -1.40117,1.16287 -0.95993,4.64596 1.31389,10.37167 1.68125,4.23355 1.56266,4.42821 -4.63205,7.60283 -3.1625,1.6207 -8,5.03277 -10.75,7.58238 -2.75,2.54961 -6.68171,6.18007 -8.73712,8.06767 -2.05542,1.88761 -4.63378,3.43202 -5.72968,3.43202 -1.34232,0 -2.68987,1.3869 -4.12939,4.25 -1.17526,2.3375 -2.84565,5.05574 -3.71199,6.04053 -1.43576,1.63207 -1.42545,2.04396 0.11651,4.65429 2.24497,3.80043 2.1999,4.10472 -1.48655,10.03498 -3.14707,5.06257 -3.16821,5.18332 -2.15651,12.31645 0.80904,5.70419 0.74205,7.61435 -0.32177,9.17626 -0.73893,1.08487 -1.3435,2.69799 -1.3435,3.5847 0,0.88671 -1.35,2.81505 -3,4.28521 -1.65,1.47015 -3,3.18243 -3,3.80505 0,0.62263 -0.71665,1.65607 -1.59256,2.29655 -0.97148,0.71037 -1.70817,3.00116 -1.889,5.87403 -0.43396,6.89448 -3.81932,10.31564 -5.11182,5.1659 z m 21.62518,-3.23395 c 0.0175,-0.9625 0.69249,-2.62351 1.5,-3.69113 0.80751,-1.06762 1.4682,-3.34012 1.4682,-5.05 0,-1.70988 0.50063,-3.60949 1.1125,-4.22137 0.61187,-0.61188 0.90596,-1.71438 0.65353,-2.45 -0.6142,-1.78985 -4.75737,4.98746 -4.76229,7.79006 -0.002,1.17015 -0.67874,2.68775 -1.50374,3.37244 -3.0459,2.52787 -1.56743,-3.18491 2.82137,-10.90174 2.37676,-4.17904 5.10703,-9.71757 6.06728,-12.30785 0.96024,-2.59027 2.74207,-6.19027 3.95962,-8 1.21755,-1.80972 4.61749,-7.34041 7.55542,-12.29041 8.6993,-14.65709 13.4952,-21.43465 15.19132,-21.46833 2.2861,-0.0454 4.89965,-3.28039 4.9366,-6.11041 0.0232,-1.7797 1.2156,-3.13974 4.5,-5.13278 l 4.46839,-2.71153 -0.007,6.21153 c -0.005,4.38787 -0.55728,7.04678 -1.88229,9.05649 -1.14886,1.74254 -2.13793,2.42067 -2.55243,1.75 -1.34293,-2.17291 -2.308,-1.01142 -2.80212,3.37242 -0.50005,4.43641 -3.36403,10.76427 -12.68753,28.03261 -5.94794,11.01636 -8.95088,14.5 -12.49918,14.5 -2.48181,0 -2.61783,0.22736 -2.02537,3.38548 0.38265,2.03969 0.2019,3.65322 -0.45468,4.05902 -0.5994,0.37044 -1.08981,1.89685 -1.08981,3.39201 0,3.7849 -2.40777,6.83068 -7.24883,9.16962 -4.98752,2.40971 -4.75851,2.39788 -4.71937,0.24387 z m 26.93302,-41.18426 c 1.4894,-2.78297 1.2741,-5.76008 -0.46482,-6.42737 -1.14479,-0.43929 -1.5,0.19842 -1.5,2.69301 0,1.79774 -0.54,3.80862 -1.2,4.46862 -0.93333,0.93333 -0.83004,1.2 0.46482,1.2 0.91565,0 2.13065,-0.87042 2.7,-1.93426 z m 10.24507,-18.04248 c 0.50339,-3.42981 -0.4836,-5.59017 -2.09809,-4.59236 -1.20422,0.74425 -1.53131,5.81625 -0.44513,6.90243 1.32618,1.32618 2.11465,0.60999 2.54322,-2.31007 z m 137.79011,56.97674 c 0,-0.55 -0.94045,-1.94045 -2.08988,-3.08988 l -2.08988,-2.08988 2.01751,-2.16012 c 3.27456,-3.50605 2.73397,-19.01212 -1.24322,-35.66012 -0.85407,-3.575 -1.565,-7.625 -1.57985,-9 -0.0149,-1.375 -0.69923,-3.78894 -1.52084,-5.36431 -0.82161,-1.57537 -1.49384,-3.50832 -1.49384,-4.29545 0,-0.78713 -1.125,-2.55615 -2.5,-3.93115 -1.375,-1.375 -2.5,-3.09944 -2.5,-3.8321 0,-2.02525 -2.13226,-3.37268 -6.00401,-3.79409 -3.49355,-0.38024 -3.10933,-0.87549 1.84965,-2.38415 4.95488,-1.50741 -22.15387,-29.1804 -34.17223,-34.88349 -3.34531,-1.58745 -8.67341,-7.04004 -8.67341,-8.87607 0,-0.36961 4.04628,1.41456 8.99174,3.96482 8.65506,4.46321 9.08435,4.57616 11.46482,3.01641 3.35804,-2.20027 3.86347,-2.03848 2.08954,0.66888 -1.45419,2.21937 -1.14946,2.63884 9.97695,13.73368 6.31232,6.29442 11.47695,11.7805 11.47695,12.19129 0,1.67398 7.17004,11.80636 9.07669,12.82677 1.57487,0.84285 1.91372,1.72616 1.45804,3.80084 -0.40256,1.83285 0.21918,4.30498 1.93163,7.68046 1.3889,2.73771 2.52715,5.89003 2.52945,7.00515 0.002,1.11513 0.72466,3.05611 1.60523,4.3133 2.36068,3.37034 4.19255,13.78846 3.65197,20.76928 -0.28596,3.69274 -0.007,6.98199 0.70631,8.31393 0.91326,1.70642 0.90252,2.53754 -0.0475,3.6823 -0.92509,1.11467 -0.94389,1.76159 -0.0764,2.62908 0.86749,0.86749 0.65093,1.68251 -0.88009,3.31221 -1.771,1.88514 -1.90595,2.71684 -1.05522,6.50317 0.53652,2.38787 0.75193,4.7033 0.47869,5.14541 -0.71073,1.14993 -3.3788,0.99502 -3.3788,-0.19617 z m -18.48392,-4.84154 c -1.09115,-1.46019 -1.86203,-3.37431 -1.71307,-4.25359 0.34297,-2.02447 -2.38238,-4.33045 -5.16779,-4.37258 -1.44036,-0.0218 -2.23921,-0.7645 -2.45477,-2.28229 -0.17575,-1.2375 -0.73825,-2.25 -1.25,-2.25 -0.51175,0 -0.92927,-1.2375 -0.92784,-2.75 0.005,-5.76787 -5.33656,-25.30189 -8.58826,-31.40429 -0.77789,-1.45986 -1.41435,-3.10698 -1.41435,-3.66026 0,-2.43978 -5.82544,-9.56591 -9.24674,-11.31133 -2.18757,-1.11601 -3.75326,-2.64789 -3.75326,-3.6722 0,-0.96659 -0.7875,-2.48858 -1.75,-3.3822 -0.9625,-0.89362 -3.07981,-3.12568 -4.70513,-4.96014 -3.28621,-3.70904 -7.87547,-7.28838 -11.29487,-8.8093 -1.46283,-0.65065 -2.25,-1.87176 -2.25,-3.49035 0,-1.46611 -0.8222,-2.92959 -2,-3.55993 -1.27986,-0.68496 -2,-2.09382 -2,-3.91274 0,-1.5633 -0.675,-3.40257 -1.5,-4.08726 -0.825,-0.68469 -1.5,-2.54836 -1.5,-4.1415 0,-2.64087 0.24279,-2.84285 2.75,-2.28774 10.59726,2.34629 14.9914,4.89691 18.79037,10.90704 2.27116,3.59307 3.56654,4.62501 6.40338,5.10113 5.49424,0.92211 9.32151,3.01021 12.05625,6.57769 2.88674,3.76576 8.57979,9.451 12.36036,12.34338 1.43778,1.1 4.37913,5.6 6.53634,10 3.49452,7.12772 5.37551,12.15282 10.70287,28.59291 2.37828,7.33932 -0.25059,25.34099 -4.1447,28.38157 -0.72236,0.56404 -1.45772,1.99603 -1.63413,3.1822 -0.31083,2.09004 -0.38204,2.07464 -2.30466,-0.49822 z m 25.48392,-10.59944 c 0,-1.75653 0.60006,-2.01516 1.45729,-0.62812 0.31644,0.512 0.11799,1.21356 -0.44098,1.55902 -0.55897,0.34546 -1.01631,-0.0734 -1.01631,-0.9309 z m -147,-56.5 c 0,-0.51754 0.45,-1.2191 1,-1.55902 0.55,-0.33992 1,0.0835 1,0.94098 0,0.85746 -0.45,1.55902 -1,1.55902 -0.55,0 -1,-0.42344 -1,-0.94098 z m -47.6003,-22.79206 c 0.93727,-0.93726 8.89586,-3.30473 9.40336,-2.79724 0.69627,0.69627 -5.66173,3.53028 -7.92007,3.53028 -1.21898,0 -1.88646,-0.32987 -1.48329,-0.73304 z m 9.6003,-8.45516 c 0,-2.29765 21.37765,-16.98785 23.52316,-16.16454 0.59419,0.22801 4.65706,-1.43338 9.0286,-3.69199 7.01806,-3.62598 8.84973,-4.13618 15.65139,-4.35963 4.23674,-0.13918 7.47268,0.11986 7.19099,0.57565 -0.2817,0.45579 -1.04812,0.84278 -1.70316,0.85998 -0.65504,0.0172 -3.44098,1.13809 -6.19098,2.49086 -2.75,1.35277 -5.90316,2.4637 -7.00702,2.46873 -2.46225,0.0112 -21.39505,9.18821 -27.29723,13.23135 -2.36733,1.62168 -5.51733,3.31324 -7,3.75901 -1.48266,0.44576 -3.48325,1.13049 -4.44575,1.52162 -1.17274,0.47656 -1.75,0.24861 -1.75,-0.69104 z m 169.5259,-15.0618 c 0.37664,-1.7875 1.0427,-3.6328 1.48012,-4.10066 1.32033,-1.41223 2.18611,3.12315 1.0142,5.31289 -1.72973,3.23202 -3.27276,2.48211 -2.49432,-1.21223 z m -62.14104,-4.96553 c -4.59426,-3.52832 -5.68093,-5.78447 -2.78607,-5.78447 0.87933,0 2.90433,1.39759 4.5,3.10576 4.63601,4.96286 3.52378,6.70119 -1.71393,2.67871 z m -11.30591,-2.20114 c -0.0434,-1.05416 0.19292,-1.64479 0.52522,-1.3125 0.33229,0.33229 0.36781,1.1948 0.0789,1.91667 -0.31922,0.79773 -0.55618,0.56078 -0.60416,-0.60417 z m -14.57895,-2.58333 c -0.78687,-1.27319 1.52988,-1.27319 3.5,0 1.21948,0.78809 1.09025,0.97224 -0.69098,0.98469 -1.20504,0.008 -2.4691,-0.43469 -2.80902,-0.98469 z"
         id="path3204"
         inkscape:connector-curvature="0" />
      <path
         style="fill:#3f4244"
         d="m 588.05584,733.12469 c -0.30801,-0.49837 -0.19596,-0.91226 0.249,-0.91977 0.44496,-0.008 1.89189,-0.3034 3.21539,-0.65753 1.54559,-0.41355 2.17716,-0.27299 1.76559,0.39295 -0.89596,1.44968 -4.55403,2.27807 -5.22998,1.18435 z m -57.94198,-6.03288 c -2.75,-0.5033 -8.77548,-1.60459 -13.38996,-2.44731 -4.61447,-0.84272 -10.23947,-2.23615 -12.5,-3.09652 -2.26052,-0.86037 -5.21459,-1.62396 -6.56459,-1.69686 -1.35,-0.0729 -3.43722,-1.11523 -4.63827,-2.31628 -1.20105,-1.20105 -3.82001,-2.49069 -5.81991,-2.86588 -1.99991,-0.37518 -4.22377,-1.52104 -4.94193,-2.54635 -0.71815,-1.02531 -2.95715,-2.5542 -4.97554,-3.39754 -2.01839,-0.84334 -3.6698,-1.94204 -3.6698,-2.44156 0,-0.49952 -1.95607,-2.18098 -4.34683,-3.73658 -4.27149,-2.77934 -11.49483,-11.82003 -10.35483,-12.96003 0.31977,-0.31977 2.25249,1.04154 4.29493,3.02513 2.04244,1.9836 4.3195,3.60654 5.06013,3.60654 0.74063,0 1.3466,0.64468 1.3466,1.43261 0,0.78794 1.0125,1.73966 2.25,2.11494 1.2375,0.37527 3.15,1.50277 4.25,2.50554 2.36083,2.15216 16.99932,9.94691 18.68024,9.94691 0.63925,0 1.87271,0.61788 2.74102,1.37306 0.86831,0.75518 6.07874,2.84741 11.57874,4.6494 9.29093,3.04402 11.19128,3.30946 26.80055,3.74349 13.4517,0.37404 17.63763,0.16286 21,-1.05941 2.3097,-0.83961 6.40491,-1.74445 9.10048,-2.01074 3.06756,-0.30304 5.23722,-1.08491 5.79969,-2.08999 0.55361,-0.98924 2.22,-1.60581 4.33998,-1.60581 3.22946,0 20.70273,-8.18157 24.4593,-11.45267 1.5571,-1.35587 7.48782,-4.54733 8.45034,-4.54733 0.30231,0 0.54966,0.6266 0.54966,1.39244 0,0.76584 -2.25,3.10831 -5,5.20548 -2.75,2.09718 -5,4.38701 -5,5.08851 0,0.70151 -1.2375,1.5425 -2.75,1.86888 -3.64078,0.78564 -17.09334,7.1763 -20.12313,9.55954 -1.43979,1.13253 -4.03949,1.89917 -6.51173,1.92028 -2.26333,0.0193 -7.04014,0.75926 -10.61514,1.64431 -7.64597,1.89289 -22.4147,2.49055 -29.5,1.1938 z m -34.91655,-2.51637 c -0.9187,-2.39409 -0.20261,-2.57794 1.21288,-0.31139 0.67134,1.07499 0.81495,1.95452 0.31913,1.95452 -0.49581,0 -1.18522,-0.73941 -1.53201,-1.64313 z m 32.41655,-14.69681 c 0,-3.22674 -5.68316,-5.05127 -13.22919,-4.24712 -5.04258,0.53737 -5.69851,0.39021 -6.26873,-1.40639 -0.53552,-1.68729 -1.50915,-2.00655 -6.11913,-2.00655 -5.42566,0 -9.10384,-1.31398 -14.70324,-5.25253 l -2.82029,-1.98376 2.82029,-1.7198 c 1.55116,-0.94588 3.43789,-2.46772 4.19273,-3.38185 0.75485,-0.91413 1.94059,-1.66206 2.63499,-1.66206 0.6944,0 1.99968,-1.125 2.90061,-2.5 1.29276,-1.97299 2.47642,-2.5 5.61501,-2.5 3.10893,0 3.98381,0.38196 4.00837,1.75 0.04,2.22759 4.60334,5.60414 6.55942,4.85351 0.81668,-0.31338 1.73282,0.0764 2.03588,0.86612 0.5393,1.4054 2.30855,1.68534 9.37328,1.48312 1.925,-0.0551 4.85,-0.12242 6.5,-0.1496 9.07694,-0.14953 26.03819,-2.02173 29.26945,-3.2308 2.0518,-0.76773 5.19717,-1.65016 6.9897,-1.96095 1.79254,-0.31078 4.57901,-1.54087 6.19215,-2.73352 2.50717,-1.85362 3.34065,-2.00299 5.74085,-1.02877 1.54432,0.62682 4.55861,1.35471 6.69843,1.61752 2.13982,0.26281 4.61564,1.13402 5.50183,1.936 0.88619,0.80199 2.91746,1.95478 4.51394,2.56176 l 2.90269,1.1036 -2.83059,2.9545 c -1.55682,1.62497 -3.76386,3.24658 -4.90452,3.60356 -1.14066,0.35699 -3.15636,1.49444 -4.47933,2.52767 -1.73391,1.35417 -3.30586,1.70967 -5.63099,1.27348 -2.60341,-0.48841 -3.52556,-0.17684 -4.78082,1.6153 -1.04455,1.49129 -2.12398,2.00218 -3.28721,1.55581 -1.17914,-0.45248 -2.78238,0.3535 -5.02293,2.52512 -2.85124,2.76353 -4.46558,3.36635 -12.08181,4.51155 -4.83496,0.72701 -13.17834,1.33154 -18.54084,1.34342 -9.56164,0.0212 -9.75,-0.0236 -9.75,-2.31834 z m -92.2351,-55.28339 c -2.01436,-3.91783 -4.33386,-10.01836 -5.15447,-13.55672 -1.62014,-6.98591 -3.2565,-21.1075 -2.81811,-24.31995 1.38412,-10.1427 1.81264,-17.15666 1.09583,-17.93635 -0.49313,-0.53638 -0.1919,-1.67552 0.70521,-2.66681 1.19,-1.31494 1.31372,-2.20195 0.51523,-3.69394 -0.81689,-1.52636 -0.64021,-2.43693 0.79359,-4.09011 1.01443,-1.16965 2.14529,-4.0082 2.51303,-6.30789 0.36773,-2.29969 2.13718,-6.68408 3.93211,-9.74308 1.79492,-3.059 3.89403,-6.83095 4.66468,-8.3821 1.91099,-3.84641 8.543,-9.67972 11.00507,-9.67972 1.90555,0 1.86883,0.22347 -0.69824,4.25 -1.49025,2.3375 -3.44686,5.15 -4.34803,6.25 -2.98483,3.64342 -6.9708,11.32379 -6.9708,13.43169 0,1.14156 -0.9,3.75476 -2,5.80713 -1.1,2.05236 -2,4.71063 -2,5.90728 0,1.19664 -0.89419,5.0283 -1.9871,8.51481 -3.57434,11.40259 -2.2392,37.75322 2.60416,51.39621 1.40495,3.95752 2.38702,8.26366 2.18238,9.56919 -0.30403,1.93955 -1.04194,1.07085 -4.03454,-4.74964 z m 202.2351,0.62333 c 0,-0.55 0.45,-1 1,-1 0.55,0 1,0.45 1,1 0,0.55 -0.45,1 -1,1 -0.55,0 -1,-0.45 -1,-1 z M 448.91355,636.86952 c -0.43983,-0.74198 -2.14419,-1.9829 -3.78746,-2.75761 -1.64328,-0.77471 -3.15828,-2.29392 -3.36667,-3.37602 -0.20839,-1.0821 -1.03467,-2.44697 -1.83617,-3.03304 -1.1948,-0.87365 -1.23978,-1.54296 -0.24974,-3.71585 0.9349,-2.05188 0.94143,-3.70704 0.0289,-7.33088 -0.97462,-3.87056 -0.92987,-4.96245 0.25859,-6.30908 0.79045,-0.89566 2.21924,-4.32847 3.17507,-7.62847 0.95583,-3.3 2.35435,-7.69661 3.10781,-9.77024 0.75346,-2.07363 1.36993,-5.03269 1.36993,-6.57568 0,-2.80276 3.51512,-7.15408 5.77927,-7.15408 1.54848,0 2.5615,-2.22963 4.68694,-10.31583 1.52441,-5.79959 2.61283,-7.66335 7.29995,-12.5 3.02964,-3.12629 6.62506,-7.14667 7.98982,-8.93417 1.36477,-1.7875 2.92102,-3.25 3.45834,-3.25 0.53732,0 2.17141,-0.85011 3.63131,-1.88914 5.33758,-3.79881 18.88886,-10.14998 20.41067,-9.566 0.85832,0.32937 1.98985,1.80402 2.5145,3.277 1.99983,5.61455 4.23889,12.70791 4.23415,13.41374 -0.003,0.40459 -2.59245,2.06163 -5.75495,3.68233 -3.1625,1.6207 -8,5.03277 -10.75,7.58238 -2.75,2.54961 -6.68171,6.18007 -8.73712,8.06767 -2.05542,1.88761 -4.63378,3.43202 -5.72968,3.43202 -1.34232,0 -2.68987,1.3869 -4.12939,4.25 -1.17526,2.3375 -2.84565,5.05574 -3.71199,6.04053 -1.43576,1.63207 -1.42545,2.04396 0.11651,4.65429 2.24497,3.80043 2.1999,4.10472 -1.48655,10.03498 -3.14707,5.06257 -3.16821,5.18332 -2.15651,12.31645 0.80904,5.70419 0.74205,7.61435 -0.32177,9.17626 -0.73893,1.08487 -1.3435,2.69799 -1.3435,3.5847 0,0.88671 -1.2375,2.77401 -2.75,4.19402 -1.5125,1.42 -4.26506,4.64438 -6.11679,7.1653 -3.56921,4.85903 -4.54859,5.40205 -5.83352,3.23442 z m 198.70031,0.34905 c 0,-0.55 0.45,-1 1,-1 0.55,0 1,0.45 1,1 0,0.55 -0.45,1 -1,1 -0.55,0 -1,-0.45 -1,-1 z m -6,-3.94098 c 0,-0.58246 0.45,-1.05902 1,-1.05902 0.55,0 1,0.19844 1,0.44098 0,0.24254 -0.45,0.7191 -1,1.05902 -0.55,0.33992 -1,0.14148 -1,-0.44098 z m 4.52473,-7.019 c -0.32632,-0.528 -0.56114,-3.1155 -0.52184,-5.75 0.0888,-5.95169 -1.36437,-16.73412 -3.40836,-25.29002 -0.85407,-3.575 -1.565,-7.625 -1.57985,-9 -0.0149,-1.375 -0.69923,-3.78894 -1.52084,-5.36431 -0.82161,-1.57537 -1.49384,-3.50832 -1.49384,-4.29545 0,-0.78713 -1.125,-2.55615 -2.5,-3.93115 -1.375,-1.375 -2.5,-3.09944 -2.5,-3.8321 0,-2.02525 -2.13226,-3.37268 -6.00401,-3.79409 -3.49355,-0.38024 -3.10933,-0.87549 1.84965,-2.38415 4.95488,-1.50741 -22.15387,-29.1804 -34.17223,-34.88349 -3.34531,-1.58745 -8.67341,-7.04004 -8.67341,-8.87607 0,-0.36961 4.04628,1.41456 8.99174,3.96482 8.65506,4.46321 9.08435,4.57616 11.46482,3.01641 3.35804,-2.20027 3.86347,-2.03848 2.08954,0.66888 -1.45419,2.21937 -1.14946,2.63884 9.97695,13.73368 6.31232,6.29442 11.47695,11.7805 11.47695,12.19129 0,1.67398 7.17004,11.80636 9.07669,12.82677 1.57487,0.84285 1.91372,1.72616 1.45804,3.80084 -0.40256,1.83285 0.21918,4.30498 1.93163,7.68046 1.3889,2.73771 2.52715,5.89003 2.52945,7.00515 0.002,1.11513 0.72466,3.05611 1.60523,4.3133 2.36068,3.37034 4.19255,13.78846 3.65197,20.76928 -0.28596,3.69274 -0.007,6.98199 0.70631,8.31393 0.90791,1.69644 0.90506,2.53448 -0.0124,3.63992 -0.87071,1.04915 -0.89582,1.79276 -0.0932,2.75987 0.80229,0.9667 0.78137,1.64108 -0.0776,2.5 -1.42327,1.42327 -3.44203,1.52594 -4.25148,0.21623 z m 6.47527,-3.481 c 0,-1.75653 0.60006,-2.01516 1.45729,-0.62812 0.31644,0.512 0.11799,1.21356 -0.44098,1.55902 -0.55897,0.34546 -1.01631,-0.0734 -1.01631,-0.9309 z m -22.63432,-3.32433 c -0.62387,-0.40408 -1.30309,-1.63469 -1.50936,-2.73469 -0.31157,-1.66149 -1.29923,-2.05245 -5.83537,-2.30988 -3.00318,-0.17043 -6.01174,-0.76751 -6.68569,-1.32684 -0.67395,-0.55933 -1.72284,-3.56989 -2.33085,-6.69012 -1.24896,-6.40948 -4.47314,-16.35468 -6.59006,-20.32745 -0.77789,-1.45986 -1.41435,-3.10698 -1.41435,-3.66026 0,-2.43978 -5.82544,-9.56591 -9.24674,-11.31133 -2.06429,-1.05312 -3.75326,-2.65537 -3.75326,-3.56056 0,-0.90518 -0.67696,-2.35853 -1.50435,-3.22967 -0.8274,-0.87114 -4.2489,-4.41548 -7.60334,-7.8763 -5.80614,-5.99029 -6.06595,-6.47043 -5.41103,-10 0.37837,-2.03918 1.32487,-4.41802 2.10333,-5.28633 0.77847,-0.86831 1.41539,-2.55581 1.41539,-3.75 0,-3.53766 2.50943,-2.48853 5.54874,2.31977 2.26287,3.57996 3.56019,4.61212 6.39501,5.0879 5.49424,0.92211 9.32151,3.01021 12.05625,6.57769 2.88674,3.76576 8.57979,9.451 12.36036,12.34338 1.43778,1.1 4.37913,5.6 6.53634,10 3.49452,7.12772 5.37551,12.15282 10.70287,28.59291 1.06709,3.29302 1.29529,6.47702 0.80628,11.25 -0.60445,5.89975 -0.9223,6.65535 -2.79394,6.64178 -1.16155,-0.008 -2.62235,-0.34592 -3.24623,-0.75 z M 458.01356,543.48553 c 0.93727,-0.93726 8.89586,-3.30473 9.40336,-2.79724 0.69627,0.69627 -5.66173,3.53028 -7.92007,3.53028 -1.21898,0 -1.88646,-0.32987 -1.48329,-0.73304 z m 9.6003,-8.45516 c 0,-2.29765 21.37765,-16.98785 23.52316,-16.16454 0.59419,0.22801 4.65706,-1.43338 9.0286,-3.69199 7.01806,-3.62598 8.84973,-4.13618 15.65139,-4.35963 4.23674,-0.13918 7.47268,0.11986 7.19099,0.57565 -0.2817,0.45579 -1.04812,0.84278 -1.70316,0.85998 -0.65504,0.0172 -3.44098,1.13809 -6.19098,2.49086 -2.75,1.35277 -5.90316,2.4637 -7.00702,2.46873 -2.46225,0.0112 -21.39505,9.18821 -27.29723,13.23135 -2.36733,1.62168 -5.51733,3.31324 -7,3.75901 -1.48266,0.44576 -3.48325,1.13049 -4.44575,1.52162 -1.17274,0.47656 -1.75,0.24861 -1.75,-0.69104 z m 169.5259,-15.0618 c 0.37664,-1.7875 1.0427,-3.6328 1.48012,-4.10066 1.32033,-1.41223 2.18611,3.12315 1.0142,5.31289 -1.72973,3.23202 -3.27276,2.48211 -2.49432,-1.21223 z m -62.14104,-4.96553 c -4.59426,-3.52832 -5.68093,-5.78447 -2.78607,-5.78447 0.87933,0 2.90433,1.39759 4.5,3.10576 4.63601,4.96286 3.52378,6.70119 -1.71393,2.67871 z"
         id="path3202"
         inkscape:connector-curvature="0" />
    </g>
  </g>
</svg>
