<?xml version="1.0" encoding="UTF-8" standalone="no"?>
<svg
   xmlns:dc="http://purl.org/dc/elements/1.1/"
   xmlns:cc="http://creativecommons.org/ns#"
   xmlns:rdf="http://www.w3.org/1999/02/22-rdf-syntax-ns#"
   xmlns:svg="http://www.w3.org/2000/svg"
   xmlns="http://www.w3.org/2000/svg"
   xmlns:sodipodi="http://sodipodi.sourceforge.net/DTD/sodipodi-0.dtd"
   xmlns:inkscape="http://www.inkscape.org/namespaces/inkscape"
   version="1.1"
   x="0px"
   y="0px"
   viewBox="0 0 90 90"
   enable-background="new 0 0 100 100"
   xml:space="preserve"
   id="svg2"
   inkscape:version="0.48.4 r9939"
   width="100%"
   height="100%"
   sodipodi:docname="pantacl.svg"
   style="fill:#000000"><metadata
     id="metadata24"><rdf:RDF><cc:Work
         rdf:about=""><dc:format>image/svg+xml</dc:format><dc:type
           rdf:resource="http://purl.org/dc/dcmitype/StillImage" /></cc:Work></rdf:RDF></metadata><defs
     id="defs22" /><sodipodi:namedview
     pagecolor="#ffffff"
     bordercolor="#666666"
     borderopacity="1"
     objecttolerance="10"
     gridtolerance="10"
     guidetolerance="10"
     inkscape:pageopacity="0"
     inkscape:pageshadow="2"
     inkscape:window-width="1301"
     inkscape:window-height="744"
     id="namedview20"
     showgrid="false"
     fit-margin-top="0"
     fit-margin-left="0"
     fit-margin-right="0"
     fit-margin-bottom="0"
     inkscape:zoom="2.36"
     inkscape:cx="45"
     inkscape:cy="45"
     inkscape:window-x="65"
     inkscape:window-y="24"
     inkscape:window-maximized="1"
     inkscape:current-layer="svg2" /><g
     id="g6"
     transform="translate(-5,-5)"><path
       inkscape:connector-curvature="0"
       id="rect8"
       d="m 23,43.400002 79.1,0 0,5.599999 -79.1,0 z"
       transform="matrix(-0.3139,-0.9494,0.9494,-0.3139,38.2629,120.0249)" /><path
       inkscape:connector-curvature="0"
       id="rect10"
       d="m 34.900002,6.5999999 5.599999,0 0,79.0999981 -5.599999,0 z"
       transform="matrix(-0.9495,-0.3138,0.3138,-0.9495,58.944,101.865)" /><path
       inkscape:connector-curvature="0"
       id="rect12"
       d="m 10.2,34.400002 79.699997,0 0,5.599999 -79.699997,0 z" /><path
       inkscape:connector-curvature="0"
       id="rect14"
       d="m 54.700001,20.700001 5.6,0 0,79.599999 -5.6,0 z"
       transform="matrix(-0.5843,-0.8115,0.8115,-0.5843,42.0987,142.5215)" /><path
       inkscape:connector-curvature="0"
       id="rect16"
       d="m 2.7,57.700001 79.699997,0 0,5.6 -79.699997,0 z"
       transform="matrix(-0.8123,-0.5833,0.5833,-0.8123,41.8032,134.4126)" /></g><path
     inkscape:connector-curvature="0"
     id="path18"
     d="M 45,0 C 69.8,0 90,20.2 90,45 90,69.8 69.8,90 45,90 20.2,90 0,69.8 0,45 0,20.2 20.2,0 45,0 z m 0,84.4 C 66.7,84.4 84.4,66.7 84.4,45 84.4,23.3 66.7,5.6 45,5.6 23.3,5.6 5.6,23.3 5.6,45 5.6,66.7 23.3,84.4 45,84.4 z" /></svg>