<?xml version="1.0" encoding="UTF-8" standalone="no"?>
<svg
   xmlns:dc="http://purl.org/dc/elements/1.1/"
   xmlns:cc="http://creativecommons.org/ns#"
   xmlns:rdf="http://www.w3.org/1999/02/22-rdf-syntax-ns#"
   xmlns:svg="http://www.w3.org/2000/svg"
   xmlns="http://www.w3.org/2000/svg"
   xmlns:sodipodi="http://sodipodi.sourceforge.net/DTD/sodipodi-0.dtd"
   xmlns:inkscape="http://www.inkscape.org/namespaces/inkscape"
   version="1.1"
   x="0px"
   y="0px"
   viewBox="0 0 32 32"
   enable-background="new 0 0 32 32"
   xml:space="preserve"
   id="svg2"
   inkscape:version="0.48.4 r9939"
   width="100%"
   height="100%"
   sodipodi:docname="magi2.svg"
   style="fill:#000000"><metadata
     id="metadata84"><rdf:RDF><cc:Work
         rdf:about=""><dc:format>image/svg+xml</dc:format><dc:type
           rdf:resource="http://purl.org/dc/dcmitype/StillImage" /></cc:Work></rdf:RDF></metadata><defs
     id="defs82" /><sodipodi:namedview
     pagecolor="#ffffff"
     bordercolor="#666666"
     borderopacity="1"
     objecttolerance="10"
     gridtolerance="10"
     guidetolerance="10"
     inkscape:pageopacity="0"
     inkscape:pageshadow="2"
     inkscape:window-width="1301"
     inkscape:window-height="744"
     id="namedview80"
     showgrid="false"
     fit-margin-top="0"
     fit-margin-left="0"
     fit-margin-right="0"
     fit-margin-bottom="0"
     inkscape:zoom="7.375"
     inkscape:cx="16"
     inkscape:cy="16"
     inkscape:window-x="65"
     inkscape:window-y="24"
     inkscape:window-maximized="1"
     inkscape:current-layer="svg2" /><g
     display="none"
     id="g4"
     style="display:none"><rect
       x="-489.66699"
       y="-31"
       display="inline"
       width="542"
       height="232"
       id="rect6"
       style="fill:#000000;display:inline" /></g><g
     display="none"
     id="g8"
     style="display:none"><g
       display="inline"
       id="g10"
       style="display:inline"><path
         stroke-miterlimit="10"
         d="m 20.427,17.465 c 0,0 0.448,2.705 1.365,5.41 0,0 -1.901,-0.324 -2.381,-1.831 -0.524,-1.642 -1.077,-3.369 -1.077,-3.369 l 2.093,-0.21 z"
         id="path12"
         inkscape:connector-curvature="0"
         style="fill:#000000;stroke:#000000;stroke-miterlimit:10" /><path
         stroke-miterlimit="10"
         d="m 7.196,19.944 c -0.329,1.128 -0.561,2.629 2.465,2.742 3.027,0.113 7.549,-1.77 8.975,-4.233"
         id="path14"
         inkscape:connector-curvature="0"
         style="fill:#000000;stroke:#000000;stroke-miterlimit:10" /><path
         stroke-miterlimit="10"
         d="m 17.199,17.534 c 0,0 -1.339,2.859 -5.529,3.992 -4.19,1.133 -4.652,-0.177 -4.587,-1.152"
         id="path16"
         inkscape:connector-curvature="0"
         style="fill:#000000;stroke:#000000;stroke-miterlimit:10" /><path
         stroke-miterlimit="10"
         d="m 5.997,12.058 v 1.16 c 0,0 2.557,-0.043 8.406,-1.868 5.849,-1.824 11.6,1.467 11.6,1.467 v -1.423 c 0,0 -1.796,-2.289 -7.065,-2.289 -5.985,0 -6.8,1.728 -12.941,2.953 z"
         id="path18"
         inkscape:connector-curvature="0"
         style="fill:#000000;stroke:#000000;stroke-miterlimit:10" /><path
         stroke-miterlimit="10"
         d="m 10.443,16.069 c 0,0 1.283,-0.274 4.217,-1.499 2.934,-1.225 7.366,-2.142 10.3,1.37"
         id="path20"
         inkscape:connector-curvature="0"
         style="fill:#000000;stroke:#000000;stroke-miterlimit:10" /><path
         stroke-miterlimit="10"
         d="m 5.994,16.019 c 0,0 1.353,0 3.099,0 4.627,0 7.072,1.529 9.997,1.529 2.925,0 3.318,-1.55 6.919,-1.55"
         id="path22"
         inkscape:connector-curvature="0"
         style="fill:#000000;stroke:#000000;stroke-miterlimit:10" /><ellipse
         stroke-miterlimit="10"
         cx="18.804001"
         cy="15.544"
         rx="1.975"
         ry="1.921"
         id="ellipse24"
         sodipodi:cx="18.804001"
         sodipodi:cy="15.544"
         sodipodi:rx="1.975"
         sodipodi:ry="1.921"
         style="fill:#000000;stroke:#000000;stroke-miterlimit:10" /></g><g
       display="inline"
       id="g26"
       style="display:inline"><path
         d="M 16,1 C 24.271,1 31,7.729 31,16 31,24.271 24.271,31 16,31 7.729,31 1,24.271 1,16 1,7.729 7.729,1 16,1 M 16,0 C 7.163,0 0,7.163 0,16 0,24.837 7.163,32 16,32 24.837,32 32,24.837 32,16 32,7.163 24.837,0 16,0 l 0,0 z"
         id="path28"
         inkscape:connector-curvature="0"
         style="fill:#000000" /></g></g><path
     d="M 16 0 C 7.163 0 0 7.163 0 16 C 0 24.837 7.163 32 16 32 C 24.837 32 32 24.837 32 16 C 32 7.163 24.837 0 16 0 z M 16 2 C 23.72 2 30 8.28 30 16 C 30 23.72 23.72 30 16 30 C 8.28 30 2 23.72 2 16 C 2 8.28 8.28 2 16 2 z M 18.9375 8.09375 C 15.1865 8.09375 13.31325 8.76125 11.15625 9.53125 C 9.76425 10.02825 8.2095 10.61575 5.8125 11.09375 L 5 11.25 L 5 14.25 L 6 14.21875 C 6.111 14.21575 8.7695 14.1575 14.6875 12.3125 C 20.0325 10.6455 25.445 13.6565 25.5 13.6875 L 27 14.53125 L 27 11.0625 L 26.78125 10.78125 C 26.69625 10.67225 24.6265 8.09375 18.9375 8.09375 z M 19.1875 12.46875 C 17.673818 12.518461 16.029125 12.926125 14.28125 13.65625 C 11.96425 14.62425 10.70375 14.9695 10.34375 15.0625 C 9.93975 15.0385 9.53475 15.03125 9.09375 15.03125 L 6 15.03125 L 6 17.03125 L 9.09375 17.03125 C 11.54875 17.03125 13.376 17.47 15 17.875 C 15.211 17.928 15.417 17.98125 15.625 18.03125 C 14.931 18.83425 13.63525 19.9615 11.40625 20.5625 C 8.80925 21.2645 8.21725 20.83025 8.15625 20.78125 C 8.09825 20.73325 8.09175 20.616 8.09375 20.5 C 8.12175 20.383 8.13825 20.28075 8.15625 20.21875 L 6.25 19.65625 C 6.097 20.18125 5.7085 21.4275 6.4375 22.4375 C 7.0045 23.2235 8.056 23.6285 9.625 23.6875 C 9.722 23.6915 9.80625 23.6875 9.90625 23.6875 C 12.53525 23.6875 16.0595 22.44925 18.1875 20.53125 L 18.46875 21.34375 C 19.12675 23.40575 21.522 23.858 21.625 23.875 L 23.28125 24.15625 L 22.75 22.5625 C 22.171 20.8555 21.7625 19.112 21.5625 18.125 C 21.9065 18.005 22.21825 17.883 22.53125 17.75 C 23.44325 17.362 24.31 17 26 17 L 26 15 C 25.809 15 25.64475 14.992 25.46875 15 C 23.85625 13.238125 21.710303 12.385898 19.1875 12.46875 z M 19.78125 14.46875 C 20.09225 14.72975 20.28125 15.10325 20.28125 15.53125 C 20.28125 15.90025 20.115 16.247 19.875 16.5 C 19.634 16.532 19.38975 16.5625 19.09375 16.5625 C 18.60975 16.5625 18.13925 16.48525 17.65625 16.40625 C 17.46125 16.16625 17.3125 15.86125 17.3125 15.53125 C 17.3125 15.20325 17.46125 14.9285 17.65625 14.6875 C 18.35525 14.5445 19.07125 14.44675 19.78125 14.46875 z M 21.09375 14.65625 C 21.73375 14.80825 22.3565 15.07875 22.9375 15.46875 C 22.5025 15.61275 22.111 15.75225 21.75 15.90625 C 21.552 15.99025 21.3745 16.08325 21.1875 16.15625 C 21.2395 15.96125 21.28125 15.74225 21.28125 15.53125 C 21.28125 15.21625 21.20675 14.93325 21.09375 14.65625 z M 16.40625 15 C 16.36525 15.175 16.3125 15.34425 16.3125 15.53125 C 16.3125 15.74925 16.3815 15.95525 16.4375 16.15625 C 16.1375 16.08525 15.818 16.0175 15.5 15.9375 C 15.185 15.8595 14.86525 15.79775 14.53125 15.71875 C 14.70525 15.64775 14.84325 15.578 15.03125 15.5 C 15.45825 15.322 15.93725 15.147 16.40625 15 z "
     id="path34" /><g
     display="none"
     id="g40"
     style="display:none"><g
       display="inline"
       id="g42"
       style="display:inline"><circle
         cx="16"
         cy="16"
         r="16"
         id="circle44"
         sodipodi:cx="16"
         sodipodi:cy="16"
         sodipodi:rx="16"
         sodipodi:ry="16"
         style="fill:#000000" /></g><path
       display="inline"
       d="m 26.396,11.085 c -0.08,-0.102 -2.01,-2.48 -7.458,-2.48 -3.664,0 -5.489,0.651 -7.602,1.405 -1.408,0.502 -3.004,1.072 -5.438,1.558 l -0.402,0.08 v 2.079 l 0.509,-0.009 c 0.107,-0.002 2.696,-0.066 8.546,-1.89 5.569,-1.734 11.147,1.392 11.203,1.423 l 0.748,0.427 v -2.457 l -0.106,-0.136 z m -0.893,0.916 C 23.725,11.165 19.065,9.375 14.255,10.872 10.001,12.199 7.498,12.573 6.497,12.677 v -0.212 c 2.281,-0.48 3.814,-1.028 5.176,-1.514 2.108,-0.753 3.774,-1.347 7.266,-1.347 4.243,0 6.121,1.549 6.564,1.985 v 0.412 z"
       id="path46"
       inkscape:connector-curvature="0"
       style="fill:#000000;display:inline" /><path
       display="inline"
       d="m 26.009,15.498 c -0.268,0 -0.517,0.01 -0.755,0.025 -3.263,-3.778 -8.149,-2.515 -10.786,-1.414 -2.487,1.038 -3.776,1.384 -4.066,1.456 C 9.983,15.539 9.553,15.52 9.094,15.52 h -3.1 v 1 h 3.1 c 2.517,0 4.389,0.467 6.04,0.88 0.463,0.115 0.917,0.223 1.37,0.322 -0.528,0.784 -1.986,2.517 -4.965,3.322 C 8.998,21.73 8.126,21.426 7.831,21.185 7.713,21.089 7.563,20.902 7.583,20.447 7.61,20.327 7.641,20.206 7.677,20.085 L 6.716,19.806 c -0.219,0.752 -0.374,1.617 0.142,2.333 0.472,0.653 1.383,0.996 2.786,1.049 0.088,0.003 0.178,0.005 0.269,0.005 2.73,-0.001 6.603,-1.48 8.507,-3.607 l 0.516,1.612 c 0.566,1.775 2.685,2.156 2.774,2.172 l 0.827,0.141 -0.27,-0.794 c -0.687,-2.026 -1.11,-4.07 -1.271,-4.92 0.5,-0.141 0.932,-0.322 1.355,-0.502 0.918,-0.391 1.867,-0.795 3.659,-0.795 v -1.002 z m -7.205,1.467 c -0.813,0 -1.476,-0.638 -1.476,-1.421 0,-0.783 0.662,-1.421 1.476,-1.421 0.814,0 1.475,0.638 1.475,1.421 0,0.783 -0.662,1.421 -1.475,1.421 z m -6.031,-1.116 c 0.575,-0.211 1.257,-0.474 2.08,-0.818 0.558,-0.233 1.157,-0.45 1.78,-0.626 -0.188,0.341 -0.304,0.724 -0.304,1.138 0,0.434 0.127,0.837 0.333,1.19 -0.416,-0.092 -0.838,-0.193 -1.285,-0.305 -0.801,-0.199 -1.655,-0.41 -2.604,-0.579 z m -0.531,6.023 c 3.494,-1.091 4.964,-3.318 5.32,-3.956 0.112,0.017 0.225,0.036 0.338,0.05 l 0.15,0.467 c -1.072,1.585 -3.517,2.87 -5.808,3.439 z m 7.645,-0.98 -0.89,-2.78 1.02,-0.103 c 0.144,0.757 0.472,2.344 0.997,4.075 -0.447,-0.222 -0.937,-0.593 -1.127,-1.192 z m 2.071,-4.519 c -0.346,0.147 -0.678,0.28 -1.031,0.393 0.218,-0.36 0.351,-0.775 0.351,-1.223 0,-0.558 -0.202,-1.066 -0.527,-1.475 1.168,0.19 2.296,0.676 3.282,1.615 -0.854,0.173 -1.49,0.441 -2.075,0.69 z"
       id="path48"
       inkscape:connector-curvature="0"
       style="fill:#000000;display:inline" /></g><g
     display="none"
     id="g50"
     style="display:none"><g
       display="inline"
       id="g52"
       style="display:inline"><path
         stroke-miterlimit="10"
         d="m 20.427,17.465 c 0,0 0.448,2.705 1.365,5.41 0,0 -1.901,-0.324 -2.381,-1.831 -0.524,-1.642 -1.077,-3.369 -1.077,-3.369 l 2.093,-0.21 z"
         id="path54"
         inkscape:connector-curvature="0"
         style="fill:#000000;stroke:#000000;stroke-width:0.5;stroke-miterlimit:10" /><path
         stroke-miterlimit="10"
         d="m 7.196,19.944 c -0.329,1.128 -0.561,2.629 2.465,2.742 3.027,0.113 7.549,-1.77 8.975,-4.233"
         id="path56"
         inkscape:connector-curvature="0"
         style="fill:#000000;stroke:#000000;stroke-width:0.5;stroke-miterlimit:10" /><path
         stroke-miterlimit="10"
         d="m 17.199,17.534 c 0,0 -1.339,2.859 -5.529,3.992 -4.19,1.133 -4.652,-0.177 -4.587,-1.152"
         id="path58"
         inkscape:connector-curvature="0"
         style="fill:#000000;stroke:#000000;stroke-width:0.5;stroke-miterlimit:10" /><path
         stroke-miterlimit="10"
         d="m 5.997,12.058 v 1.16 c 0,0 2.557,-0.043 8.406,-1.868 5.849,-1.824 11.6,1.467 11.6,1.467 v -1.423 c 0,0 -1.796,-2.289 -7.065,-2.289 -5.985,0 -6.8,1.728 -12.941,2.953 z"
         id="path60"
         inkscape:connector-curvature="0"
         style="fill:#000000;stroke:#000000;stroke-width:0.5;stroke-miterlimit:10" /><path
         stroke-miterlimit="10"
         d="m 10.443,16.069 c 0,0 1.283,-0.274 4.217,-1.499 2.934,-1.225 7.366,-2.142 10.3,1.37"
         id="path62"
         inkscape:connector-curvature="0"
         style="fill:#000000;stroke:#000000;stroke-width:0.5;stroke-miterlimit:10" /><path
         stroke-miterlimit="10"
         d="m 5.994,16.019 c 0,0 1.353,0 3.099,0 4.627,0 7.072,1.529 9.997,1.529 2.925,0 3.318,-1.55 6.919,-1.55"
         id="path64"
         inkscape:connector-curvature="0"
         style="fill:#000000;stroke:#000000;stroke-width:0.5;stroke-miterlimit:10" /><ellipse
         stroke-miterlimit="10"
         cx="18.804001"
         cy="15.544"
         rx="1.975"
         ry="1.921"
         id="ellipse66"
         sodipodi:cx="18.804001"
         sodipodi:cy="15.544"
         sodipodi:rx="1.975"
         sodipodi:ry="1.921"
         style="fill:#000000;stroke:#000000;stroke-width:0.5;stroke-miterlimit:10" /></g><g
       display="inline"
       id="g68"
       style="display:inline"><path
         d="M 16,0.5 C 24.547,0.5 31.5,7.453 31.5,16 31.5,24.547 24.547,31.5 16,31.5 7.453,31.5 0.5,24.547 0.5,16 0.5,7.453 7.453,0.5 16,0.5 M 16,0 C 7.163,0 0,7.163 0,16 0,24.837 7.163,32 16,32 24.837,32 32,24.837 32,16 32,7.163 24.837,0 16,0 l 0,0 z"
         id="path70"
         inkscape:connector-curvature="0"
         style="fill:#000000" /></g></g><g
     display="none"
     id="g72"
     style="display:none"><g
       display="inline"
       id="g74"
       style="display:inline"><path
         d="M 31.989,10.82 V 8.484 c 0,0 -3.198,-3.421 -11.621,-3.421 -9.569,0 -9.961,4.034 -20.363,4.512 v 1.903 c 0,0 4.088,-0.071 13.439,-3.065 9.351,-2.994 18.545,2.407 18.545,2.407 z"
         id="path76"
         inkscape:connector-curvature="0" /><path
         d="m 30.684,15.578 c -2.846,-3.465 -6.518,-4.354 -9.935,-4.15 l -1.245,0.121 c -2.233,0.301 -4.292,1.006 -5.852,1.675 -4.565,1.957 -6.532,2.4 -6.552,2.404 L 7.058,15.637 C 6.385,15.593 5.693,15.561 4.955,15.561 H 0 v 1.032 h 4.955 c 4.056,0 7.066,0.771 9.723,1.452 1.085,0.278 2.14,0.546 3.197,0.743 -1.835,1.919 -6.664,6.478 -11.406,6.774 -4.402,0.275 -4.549,-3.045 -4.549,-3.045 -0.526,1.852 -0.897,4.314 3.942,4.5 4.49,0.172 11.495,-3.111 14.305,-6.814 0.335,1.074 0.815,2.618 1.282,4.12 0.769,2.473 2.606,2.602 2.606,2.602 -0.714,-3.038 -1.336,-6.647 -1.549,-7.927 1.451,-0.201 2.507,-0.662 3.537,-1.112 1.493,-0.653 3.037,-1.328 5.958,-1.328 v -1.032 c -0.474,-10e-4 -0.905,0.02 -1.317,0.052 z m -15.75,1.466 C 13.342,16.636 11.618,16.2 9.627,15.906 c 1.075,-0.371 2.532,-0.921 4.432,-1.735 1.055,-0.452 2.204,-0.862 3.396,-1.177 -0.408,0.591 -0.649,1.305 -0.649,2.075 0,1.07 0.469,2.026 1.203,2.697 -0.989,-0.188 -1.995,-0.445 -3.075,-0.722 z m 10.695,-0.105 c -0.887,0.387 -1.747,0.757 -2.844,0.962 0.827,-0.673 1.368,-1.686 1.368,-2.832 0,-1.008 -0.41,-1.923 -1.072,-2.587 2.277,0.263 4.481,1.22 6.349,3.245 -1.618,0.269 -2.763,0.758 -3.801,1.212 z"
         id="path78"
         inkscape:connector-curvature="0" /></g></g></svg>