<?xml version="1.0" encoding="UTF-8" standalone="no"?>
<svg
   xmlns:dc="http://purl.org/dc/elements/1.1/"
   xmlns:cc="http://creativecommons.org/ns#"
   xmlns:rdf="http://www.w3.org/1999/02/22-rdf-syntax-ns#"
   xmlns:svg="http://www.w3.org/2000/svg"
   xmlns="http://www.w3.org/2000/svg"
   xmlns:sodipodi="http://sodipodi.sourceforge.net/DTD/sodipodi-0.dtd"
   xmlns:inkscape="http://www.inkscape.org/namespaces/inkscape"
   version="1.1"
   x="0px"
   y="0px"
   viewBox="0 0 71.982637 71.99496"
   enable-background="new 0 0 73 73"
   xml:space="preserve"
   id="svg2"
   inkscape:version="0.48.4 r9939"
   width="100%"
   height="100%"
   sodipodi:docname="mdk.svg"
   style="fill:#000000"><metadata
     id="metadata10"><rdf:RDF><cc:Work
         rdf:about=""><dc:format>image/svg+xml</dc:format><dc:type
           rdf:resource="http://purl.org/dc/dcmitype/StillImage" /></cc:Work></rdf:RDF></metadata><defs
     id="defs8" /><sodipodi:namedview
     pagecolor="#ffffff"
     bordercolor="#666666"
     borderopacity="1"
     objecttolerance="10"
     gridtolerance="10"
     guidetolerance="10"
     inkscape:pageopacity="0"
     inkscape:pageshadow="2"
     inkscape:window-width="640"
     inkscape:window-height="480"
     id="namedview6"
     showgrid="false"
     fit-margin-top="0"
     fit-margin-left="0"
     fit-margin-right="0"
     fit-margin-bottom="0"
     inkscape:zoom="3.2328767"
     inkscape:cx="35.989669"
     inkscape:cy="36.02943"
     inkscape:window-x="65"
     inkscape:window-y="24"
     inkscape:window-maximized="0"
     inkscape:current-layer="svg2" /><path
     d="m 69.889669,2.2655301 c -3.6,-3.9 -11.3,-2.70000002 -21.5,3.1 -3.8,-1.5 -8,-2.4 -12.3,-2.4 -18.1,-0.1 -32.9000004,14.6999999 -32.9000004,32.8999999 0,4.2 0.8,8.3 2.3,12 -5.99999999,10.2 -7,17.8 -3.4,21.8 4.1,4.6 12.7000004,1.8 21.6000004,-3.3 3.8,1.6 8.1,2.5 12.5,2.5 18.2,0 32.9,-14.8 32.9,-32.9 0,-4.3 -0.8,-8.5 -2.4,-12.3 5.1,-9.1 7.2,-17.1999999 3.2,-21.3999999 z m -2.8,2.8 c 2.1,2.2 1.1,7.3999999 -2.5,14.1999999 -2.9,-4.8 -6.9,-8.9 -11.8,-11.7999999 6.9,-3.4 12.3,-4.4 14.3,-2.4 z m -13.5,28.6999999 c -0.1,-3.7 -0.5,-7.3 -1.2,-10.5 h 9.8 c 0,0 0,0.1 0.1,0.1 -2,3.3 -4.5,6.8 -7.5,10.4 h -1.2 z m 6.2,-14.5 h -8.5 c -1.3,-4.2 -3,-7.8 -5.2,-10.4999999 5.6,1.9999999 10.3,5.6999999 13.7,10.4999999 z m -21.7,-11.9999999 c 3.7,1.2 6.9,5.6999999 9,11.9999999 h -9 V 7.2655301 z m 0,15.9999999 h 10.1 c 0.8,3.2 1.2,6.8 1.4,10.5 h -11.5 v -10.5 z m 0,14.6 h 11.5 c 0,0.7 -0.1,1.4 -0.1,2.1 -1.5,1.6 -7,7.1 -8.4,8.4 h -2.9 v -10.5 z m 10.5,8.9 c -0.1,0.5 -0.2,1.1 -0.3,1.6 h -1.3 c 0.2,-0.2 1.3,-1.3 1.6,-1.6 z m -25.2,15 c -4.4,-2.2 -8.1,-5.4 -10.9,-9.4 h 8.5 c 1,3.3 2.3,6.1 3.8,8.5 -0.6,0.3 -1,0.6 -1.4,0.9 z m 10.7,-23.9 v 10.5 h -10.1 c -0.8,-3.2 -1.2,-6.8 -1.4,-10.5 h 11.5 z m -11.5,-4.1 c 0.1,-3.7 0.6,-7.3 1.4,-10.5 h 10.1 v 10.5 h -11.5 z m 2.5,18.6 h 9 v 1.8 c -2,1.5 -4,3.1 -6.1,4.5 -1.1,-1.8 -2.1,-3.9 -2.9,-6.3 z m 9,-45.0999999 V 19.26553 h -9 c 2.1,-6.3 5.3,-10.7999999 9,-11.9999999 z m -8.1,1.5 c -2.1,2.6999999 -3.9,6.2999999 -5.2,10.4999999 h -8.5 c 3.5,-4.8 8.2,-8.5 13.7,-10.4999999 z m -15.9,14.4999999 h 9.8 c -0.7,3.3 -1.1,6.8 -1.2,10.5 H 7.2896686 c 0.2,-3.7 1.2,-7.3 2.8000004,-10.5 z m 8.5,14.6 c 0.1,3.7 0.5,7.3 1.2,10.5 H 9.9896686 c -1.5,-3.2 -2.5,-6.8 -2.7,-10.5 H 18.589669 z m -13.7000004,28.9 c -2.2,-1.9 -1,-7.5 2.7,-14.5 2.8000004,4.9 6.9000004,9 11.7000004,11.9 -6.2,3.3 -11.7000004,4.9 -14.4000004,2.6 z m 25.5000004,-4.8 c 1.2,-0.9 2.5,-1.8 3.7,-2.7 v 5.1 c -1.3,-0.4 -2.5,-1.2 -3.7,-2.4 z m 7.7,2.4 v -8.2 c 1.6,-1.3 3.1,-2.6 4.5,-3.8 h 4.5 c -2.1,6.3 -5.3,10.8 -9,12 z m 8.1,-1.4 c 2.1,-2.7 3.9,-6.3 5.2,-10.6 h 8.5 c -3.5,4.8 -8.2,8.5 -13.7,10.6 z m 16,-14.6 h -9.8 c 0.5,-2.1 0.8,-4.4 1,-6.8 1.1,-1.2 2.2,-2.5 3.2,-3.8 h 8.4 c -0.3,3.8 -1.3,7.4 -2.8,10.6 z m 2.7,-14.6 h -5.2 c 1.5,-2 2.9,-3.9 4.2,-5.9 0.6,2 0.9,3.9 1,5.9 z"
     id="path4"
     inkscape:connector-curvature="0" /></svg>