<svg fill="#000000" xmlns="http://www.w3.org/2000/svg" xmlns:xlink="http://www.w3.org/1999/xlink" version="1.1" x="0px" y="0px" viewBox="0 0 73 73" enable-background="new 0 0 73 73" xml:space="preserve"><path d="M70.4,2.8c-3.6-3.9-11.3-2.7-21.5,3.1c-3.8-1.5-8-2.4-12.3-2.4C18.5,3.4,3.7,18.2,3.7,36.4c0,4.2,0.8,8.3,2.3,12  C0,58.6-1,66.2,2.6,70.2c4.1,4.6,12.7,1.8,21.6-3.3c3.8,1.6,8.1,2.5,12.5,2.5c18.2,0,32.9-14.8,32.9-32.9c0-4.3-0.8-8.5-2.4-12.3  C72.3,15.1,74.4,7,70.4,2.8z M67.6,5.6c2.1,2.2,1.1,7.4-2.5,14.2C62.2,15,58.2,10.9,53.3,8C60.2,4.6,65.6,3.6,67.6,5.6z M54.1,34.3  c-0.1-3.7-0.5-7.3-1.2-10.5h9.8c0,0,0,0.1,0.1,0.1c-2,3.3-4.5,6.8-7.5,10.4H54.1z M60.3,19.8h-8.5c-1.3-4.2-3-7.8-5.2-10.5  C52.2,11.3,56.9,15,60.3,19.8z M38.6,7.8c3.7,1.2,6.9,5.7,9,12h-9V7.8z M38.6,23.8h10.1c0.8,3.2,1.2,6.8,1.4,10.5H38.6V23.8z   M38.6,38.4h11.5c0,0.7-0.1,1.4-0.1,2.1c-1.5,1.6-7,7.1-8.4,8.4h-2.9V38.4z M49.1,47.3c-0.1,0.5-0.2,1.1-0.3,1.6h-1.3  C47.7,48.7,48.8,47.6,49.1,47.3z M23.9,62.3c-4.4-2.2-8.1-5.4-10.9-9.4h8.5c1,3.3,2.3,6.1,3.8,8.5C24.7,61.7,24.3,62,23.9,62.3z   M34.6,38.4v10.5H24.5c-0.8-3.2-1.2-6.8-1.4-10.5H34.6z M23.1,34.3c0.1-3.7,0.6-7.3,1.4-10.5h10.1v10.5H23.1z M25.6,52.9h9v1.8  c-2,1.5-4,3.1-6.1,4.5C27.4,57.4,26.4,55.3,25.6,52.9z M34.6,7.8v12h-9C27.7,13.5,30.9,9,34.6,7.8z M26.5,9.3  c-2.1,2.7-3.9,6.3-5.2,10.5h-8.5C16.3,15,21,11.3,26.5,9.3z M10.6,23.8h9.8c-0.7,3.3-1.1,6.8-1.2,10.5H7.8C8,30.6,9,27,10.6,23.8z   M19.1,38.4c0.1,3.7,0.5,7.3,1.2,10.5h-9.8C9,45.7,8,42.1,7.8,38.4H19.1z M5.4,67.3c-2.2-1.9-1-7.5,2.7-14.5  c2.8,4.9,6.9,9,11.7,11.9C13.6,68,8.1,69.6,5.4,67.3z M30.9,62.5c1.2-0.9,2.5-1.8,3.7-2.7v5.1C33.3,64.5,32.1,63.7,30.9,62.5z   M38.6,64.9v-8.2c1.6-1.3,3.1-2.6,4.5-3.8h4.5C45.5,59.2,42.3,63.7,38.6,64.9z M46.7,63.5c2.1-2.7,3.9-6.3,5.2-10.6h8.5  C56.9,57.7,52.2,61.4,46.7,63.5z M62.7,48.9h-9.8c0.5-2.1,0.8-4.4,1-6.8c1.1-1.2,2.2-2.5,3.2-3.8h8.4C65.2,42.1,64.2,45.7,62.7,48.9  z M65.4,34.3h-5.2c1.5-2,2.9-3.9,4.2-5.9C65,30.4,65.3,32.3,65.4,34.3z"/></svg>