<?xml version="1.0" encoding="UTF-8" standalone="no"?>
<!-- Created with Inkscape (http://www.inkscape.org/) -->

<svg
   xmlns:dc="http://purl.org/dc/elements/1.1/"
   xmlns:cc="http://creativecommons.org/ns#"
   xmlns:rdf="http://www.w3.org/1999/02/22-rdf-syntax-ns#"
   xmlns:svg="http://www.w3.org/2000/svg"
   xmlns="http://www.w3.org/2000/svg"
   xmlns:sodipodi="http://sodipodi.sourceforge.net/DTD/sodipodi-0.dtd"
   xmlns:inkscape="http://www.inkscape.org/namespaces/inkscape"
   width="41.999302"
   height="36.655682"
   id="svg3707"
   version="1.1"
   inkscape:version="0.48.4 r9939"
   sodipodi:docname="métal.svg">
  <defs
     id="defs3709" />
  <sodipodi:namedview
     id="base"
     pagecolor="#ffffff"
     bordercolor="#666666"
     borderopacity="1.0"
     inkscape:pageopacity="0.0"
     inkscape:pageshadow="2"
     inkscape:zoom="3.2581913"
     inkscape:cx="-25.308049"
     inkscape:cy="-12.406751"
     inkscape:document-units="px"
     inkscape:current-layer="layer1"
     showgrid="false"
     fit-margin-top="0"
     fit-margin-left="0"
     fit-margin-right="0"
     fit-margin-bottom="0"
     inkscape:window-width="1301"
     inkscape:window-height="744"
     inkscape:window-x="65"
     inkscape:window-y="24"
     inkscape:window-maximized="1" />
  <metadata
     id="metadata3712">
    <rdf:RDF>
      <cc:Work
         rdf:about="">
        <dc:format>image/svg+xml</dc:format>
        <dc:type
           rdf:resource="http://purl.org/dc/dcmitype/StillImage" />
        <dc:title />
      </cc:Work>
    </rdf:RDF>
  </metadata>
  <g
     inkscape:label="Calque 1"
     inkscape:groupmode="layer"
     id="layer1"
     transform="translate(-351.04759,-507.85325)">
    <g
       style="fill:#e20808;fill-opacity:1;display:inline"
       id="g3007"
       transform="matrix(0.41844385,0,0,0.41844385,358.78257,507.85325)">
      <g
         transform="translate(-18.3,-7.5)"
         id="g4"
         style="fill:#e20808;fill-opacity:1">
        <g
           id="g6"
           style="fill:#e20808;fill-opacity:1">
          <path
             inkscape:connector-curvature="0"
             id="path8"
             d="m 72.1,37.1 c -0.2,-0.6 -0.4,-1.2 -0.6,-1.8 -0.8,-3.5 -5.3,-10 -10.7,-10 H 39.2 c -5.4,0 -9.9,6.6 -10.7,10 -0.1,0.6 -0.3,1.2 -0.6,1.8 -5.6,2.4 -9.6,8 -9.6,14.6 v 32.5 c 0,6 4.9,10.9 10.9,10.9 h 41.6 c 6,0 10.9,-4.9 10.9,-10.9 V 51.6 c 0,-6.5 -4,-12.1 -9.6,-14.5 z m 1.3,38.3 c 0,6 -4.9,10.9 -10.9,10.9 h -25 c -6,0 -10.9,-4.9 -10.9,-10.9 V 65.9 C 26.6,53 37.1,42.5 50,42.5 62.9,42.5 73.4,53 73.4,65.9 v 9.5 z"
             style="fill:#e20808;fill-opacity:1" />
        </g>
        <g
           id="g10"
           style="fill:#e20808;fill-opacity:1">
          <path
             inkscape:connector-curvature="0"
             id="path12"
             d="M 62.8,22.3 H 37.2 V 12.2 c 0,-2.6 2.1,-4.7 4.7,-4.7 h 16.3 c 2.6,0 4.7,2.1 4.7,4.7 v 10.1 z"
             style="fill:#e20808;fill-opacity:1" />
        </g>
        <path
           inkscape:connector-curvature="0"
           id="path14-0"
           d="M 65.5,75 59.5,56.7 55,70.6 49.7,50.1 44.4,70.6 39.8,56.7 33.8,75 c -1,3.1 1.9,6.1 6,6.1 h 0 c 2.2,0 4.1,-0.9 5.2,-2.2 1.1,1.3 2.8,2.2 4.7,2.2 h 0 c 1.9,0 3.6,-0.9 4.7,-2.2 1.1,1.3 3,2.2 5.2,2.2 h 0 c 4,0 7,-3.1 5.9,-6.1 z"
           style="fill:#e20808;fill-opacity:1" />
      </g>
    </g>
  </g>
</svg>
