<?xml version="1.0" encoding="UTF-8" standalone="no"?>
<svg
   xmlns:dc="http://purl.org/dc/elements/1.1/"
   xmlns:cc="http://creativecommons.org/ns#"
   xmlns:rdf="http://www.w3.org/1999/02/22-rdf-syntax-ns#"
   xmlns:svg="http://www.w3.org/2000/svg"
   xmlns="http://www.w3.org/2000/svg"
   xmlns:sodipodi="http://sodipodi.sourceforge.net/DTD/sodipodi-0.dtd"
   xmlns:inkscape="http://www.inkscape.org/namespaces/inkscape"
   version="1.1"
   x="0px"
   y="0px"
   viewBox="0 0 94.1811 94.1811"
   enable-background="new 0 0 100 100"
   xml:space="preserve"
   id="svg2"
   inkscape:version="0.48.4 r9939"
   width="100%"
   height="100%"
   sodipodi:docname="sephirah.svg"
   style="fill:#000000"><metadata
     id="metadata12"><rdf:RDF><cc:Work
         rdf:about=""><dc:format>image/svg+xml</dc:format><dc:type
           rdf:resource="http://purl.org/dc/dcmitype/StillImage" /></cc:Work></rdf:RDF></metadata><defs
     id="defs10" /><sodipodi:namedview
     pagecolor="#ffffff"
     bordercolor="#666666"
     borderopacity="1"
     objecttolerance="10"
     gridtolerance="10"
     guidetolerance="10"
     inkscape:pageopacity="0"
     inkscape:pageshadow="2"
     inkscape:window-width="1301"
     inkscape:window-height="744"
     id="namedview8"
     showgrid="false"
     fit-margin-top="0"
     fit-margin-left="0"
     fit-margin-right="0"
     fit-margin-bottom="0"
     inkscape:zoom="2.36"
     inkscape:cx="-44.289475"
     inkscape:cy="47.099"
     inkscape:window-x="65"
     inkscape:window-y="24"
     inkscape:window-maximized="1"
     inkscape:current-layer="svg2"
     inkscape:document-units="mm"
     units="mm" /><g
     id="g4"
     transform="translate(-2.9094495,-2.9178912)"><path
       d="m 50.005,97.099 c -3.228,0 -5.854,-2.626 -5.854,-5.854 0,-1.655 0.689,-3.209 1.903,-4.318 L 33.903,65.892 c -0.571,0.181 -1.164,0.273 -1.769,0.273 -3.228,0 -5.853,-2.626 -5.853,-5.854 0,-2.771 1.9,-5.118 4.568,-5.711 v -9.2 c -2.668,-0.593 -4.568,-2.94 -4.568,-5.711 0,-2.771 1.9,-5.118 4.568,-5.711 v -9.195 c -2.668,-0.593 -4.568,-2.94 -4.568,-5.711 0,-3.228 2.625,-5.853 5.853,-5.853 1.652,0 3.205,0.687 4.313,1.897 l 7.975,-4.598 c -0.181,-0.57 -0.271,-1.162 -0.271,-1.763 0,-3.228 2.626,-5.854 5.854,-5.854 3.228,0 5.853,2.626 5.853,5.854 0,0.603 -0.092,1.196 -0.272,1.768 l 7.961,4.599 c 1.109,-1.214 2.664,-1.903 4.319,-1.903 3.228,0 5.853,2.625 5.853,5.853 0,2.785 -1.91,5.134 -4.593,5.717 v 9.183 c 2.683,0.583 4.593,2.933 4.593,5.717 0,2.784 -1.91,5.134 -4.593,5.717 v 9.188 c 2.683,0.583 4.593,2.933 4.593,5.717 0,3.228 -2.625,5.854 -5.853,5.854 -0.604,0 -1.196,-0.092 -1.768,-0.273 L 53.954,86.926 c 1.214,1.109 1.903,2.664 1.903,4.319 0,3.228 -2.625,5.854 -5.852,5.854 z M 48.236,85.666 c 0.168,-0.053 0.338,-0.099 0.508,-0.136 v -9.19 c -2.683,-0.583 -4.593,-2.933 -4.593,-5.717 0,-0.603 0.092,-1.195 0.272,-1.766 l -7.969,-4.598 c -0.117,0.129 -0.241,0.252 -0.37,0.37 l 12.152,21.037 z m 3.029,-0.137 c 0.17,0.037 0.34,0.083 0.507,0.136 L 63.917,64.631 c -0.129,-0.118 -0.253,-0.242 -0.37,-0.371 l -7.961,4.596 c 0.182,0.571 0.272,1.164 0.272,1.767 0,2.784 -1.91,5.134 -4.593,5.717 v 9.189 z m -5.58,-18.853 c 0.816,-0.895 1.883,-1.511 3.06,-1.77 V 61.572 H 37.852 c -0.037,0.169 -0.083,0.338 -0.136,0.505 l 7.969,4.599 z m 5.58,-1.77 c 1.177,0.258 2.242,0.874 3.06,1.768 l 7.96,-4.596 C 62.232,61.911 62.186,61.742 62.149,61.572 H 51.265 v 3.334 z m 10.883,-5.854 c 0.037,-0.17 0.083,-0.339 0.136,-0.506 l -7.961,-4.595 c -0.816,0.894 -1.882,1.51 -3.059,1.768 v 3.334 h 10.884 z m -13.404,0 v -3.334 c -1.177,-0.259 -2.243,-0.875 -3.06,-1.769 l -7.969,4.598 c 0.053,0.167 0.099,0.335 0.136,0.505 H 48.744 z M 33.37,54.589 c 1.188,0.255 2.263,0.873 3.086,1.775 l 7.968,-4.598 C 44.243,51.195 44.152,50.602 44.152,50 c 0,-0.602 0.092,-1.194 0.271,-1.764 l -7.968,-4.599 c -0.823,0.901 -1.897,1.519 -3.085,1.774 v 9.178 z m 30.175,1.774 c 0.817,-0.895 1.883,-1.511 3.06,-1.769 V 45.405 C 65.428,45.147 64.363,44.53 63.546,43.637 l -7.961,4.596 c 0.182,0.571 0.272,1.164 0.272,1.767 0,0.604 -0.091,1.197 -0.272,1.768 l 7.96,4.595 z M 45.684,46.054 c 0.117,-0.128 0.239,-0.251 0.367,-0.368 l -2.74,-4.737 h -5.459 c -0.037,0.17 -0.083,0.339 -0.136,0.506 l 7.968,4.599 z m 8.27,-0.372 c 0.129,0.118 0.253,0.241 0.37,0.37 l 7.96,-4.597 c -0.053,-0.167 -0.099,-0.336 -0.136,-0.507 h -5.461 l -2.733,4.734 z m -5.723,-1.26 c 0.17,-0.054 0.341,-0.1 0.513,-0.138 v -3.335 h -2.521 l 2.008,3.473 z m 3.034,-0.138 c 0.171,0.038 0.341,0.083 0.508,0.136 l 2.005,-3.472 h -2.513 v 3.336 z m 10.882,-5.856 c 0.488,-2.236 2.222,-3.969 4.457,-4.457 v -9.184 c -0.17,-0.038 -0.339,-0.083 -0.507,-0.136 l -7.955,13.777 h 4.005 z m -6.915,0 8.684,-15.038 c -0.895,-0.817 -1.51,-1.883 -1.768,-3.059 H 51.265 v 18.097 h 3.967 z m -6.488,0 V 20.331 H 37.852 c -0.259,1.183 -0.88,2.252 -1.78,3.07 l 8.693,15.027 h 3.979 z m -6.891,0 -7.967,-13.771 c -0.17,0.053 -0.342,0.099 -0.516,0.136 v 9.174 c 2.216,0.479 3.992,2.248 4.481,4.461 h 4.002 z M 62.148,17.811 c 0.037,-0.171 0.083,-0.34 0.137,-0.508 l -7.962,-4.599 c -0.816,0.893 -1.882,1.509 -3.059,1.767 v 3.34 h 10.884 z m -13.404,0 v -3.34 C 47.566,14.213 46.5,13.596 45.682,12.7 l -7.97,4.595 c 0.054,0.17 0.101,0.342 0.139,0.516 h 10.893 z"
       id="path6"
       inkscape:connector-curvature="0" /></g></svg>